<svg width="53" height="21" viewBox="0 0 53 21" fill="none" xmlns="http://www.w3.org/2000/svg">
<path d="M11.7886 20.5C9.15245 20.5 7.00781 18.3553 7.00781 15.7192C7.00781 13.083 9.15245 10.9384 11.7886 10.9384C14.4248 10.9384 16.5686 13.083 16.5686 15.7192C16.5686 18.3553 14.424 20.5 11.7886 20.5ZM11.7886 12.1672C9.82997 12.1672 8.23664 13.7605 8.23664 15.7192C8.23664 17.6778 9.82997 19.2712 11.7886 19.2712C13.7473 19.2712 15.3406 17.6778 15.3406 15.7192C15.3406 13.7605 13.7473 12.1672 11.7886 12.1672Z" fill="#1D2742"/>
<path d="M11.7879 18.093C10.4793 18.093 9.41406 17.0286 9.41406 15.7192C9.41406 14.4098 10.4793 13.3454 11.7879 13.3454C13.0964 13.3454 14.1616 14.4098 14.1616 15.7192C14.1616 17.0286 13.0972 18.093 11.7879 18.093ZM11.7879 14.5742C11.156 14.5742 10.6429 15.0882 10.6429 15.7192C10.6429 16.3502 11.1568 16.8642 11.7879 16.8642C12.4189 16.8642 12.9328 16.3502 12.9328 15.7192C12.9328 15.0882 12.4189 14.5742 11.7879 14.5742Z" fill="#1D2742"/>
<path d="M42.4519 18.093C41.1434 18.093 40.0781 17.0286 40.0781 15.7192C40.0781 14.4098 41.1425 13.3454 42.4519 13.3454C43.7613 13.3454 44.8257 14.4098 44.8257 15.7192C44.8257 17.0286 43.7604 18.093 42.4519 18.093ZM42.4519 14.5742C41.8209 14.5742 41.3069 15.0882 41.3069 15.7192C41.3069 16.3502 41.8209 16.8642 42.4519 16.8642C43.0829 16.8642 43.5969 16.3502 43.5969 15.7192C43.5969 15.0882 43.0829 14.5742 42.4519 14.5742Z" fill="#1D2742"/>
<path d="M42.4527 20.5C39.8165 20.5 37.6719 18.3553 37.6719 15.7192C37.6719 13.083 39.8165 10.9384 42.4527 10.9384C45.0888 10.9384 47.2335 13.083 47.2335 15.7192C47.2335 18.3553 45.0888 20.5 42.4527 20.5ZM42.4527 12.1672C40.494 12.1672 38.9007 13.7605 38.9007 15.7192C38.9007 17.6778 40.494 19.2712 42.4527 19.2712C44.4113 19.2712 46.0047 17.6778 46.0047 15.7192C46.0047 13.7605 44.4113 12.1672 42.4527 12.1672Z" fill="#1D2742"/>
<path d="M35.638 18.0191H17.7785C17.4389 18.0191 17.1641 17.7443 17.1641 17.4047C17.1641 17.0651 17.4389 16.7903 17.7785 16.7903H35.638C35.9775 16.7903 36.2524 17.0651 36.2524 17.4047C36.2524 17.7443 35.9775 18.0191 35.638 18.0191Z" fill="#1D2742"/>
<path d="M5.56066 18.0191H2.29929C2.0527 18.0191 1.83017 17.8721 1.73386 17.6446C1.25644 16.5204 0.980799 15.3671 0.914376 14.2172C0.75247 11.3942 3.03078 8.47907 5.89278 7.84307L14.5726 5.45433L22.521 2.2353C24.7627 1.09947 27.2752 0.5 29.7885 0.5H39.4987C41.9954 0.5 44.3907 1.26387 46.4249 2.70857C48.7157 4.33593 50.1421 5.43606 50.6644 5.97824C51.7587 7.11574 51.8027 8.92078 51.7728 9.62736C53.4807 11.6109 52.4495 15.2625 52.403 15.4228C52.359 15.5739 52.2586 15.7026 52.1224 15.7823C50.8603 16.5187 49.531 16.8824 48.8519 17.0335C48.5198 17.1083 48.1926 16.8982 48.1187 16.5677C48.0448 16.2365 48.254 15.9085 48.5845 15.8346C49.1549 15.7076 50.2326 15.4153 51.2846 14.8441C51.547 13.7547 51.8351 11.3743 50.715 10.2949C50.578 10.1629 50.51 9.97359 50.5315 9.78428C50.5332 9.76602 50.7317 7.82065 49.7785 6.82929C49.4563 6.49468 48.4891 5.681 45.7134 3.70907C43.8884 2.41299 41.7396 1.728 39.4987 1.728H29.7885C27.4587 1.728 25.1297 2.28595 23.054 3.34208C23.0382 3.35038 23.0224 3.35702 23.0067 3.36367L15.001 6.60594C14.9786 6.61507 14.9562 6.62254 14.9329 6.62919L6.20331 9.03204C6.19334 9.03453 6.18254 9.03785 6.17174 9.03951C3.89676 9.53852 2.01366 11.9248 2.14069 14.1474C2.19134 15.0292 2.38398 15.9168 2.71443 16.7911H5.56066C5.90025 16.7911 6.17507 17.0659 6.17507 17.4055C6.17507 17.7451 5.90025 18.0199 5.56066 18.0199V18.0191Z" fill="#1D2742"/>
<path d="M19.0906 7.77169C18.7618 7.77169 18.4903 7.51264 18.477 7.18135C18.4638 6.8426 18.7278 6.55698 19.0666 6.54369L36.8397 5.84874C38.6016 5.72254 40.2215 4.65977 41.0476 3.07641C41.2045 2.77585 41.5757 2.65961 41.8762 2.8157C42.1768 2.97262 42.2939 3.34376 42.1369 3.64433C41.1148 5.60298 39.1114 6.91732 36.9078 7.07508L19.1147 7.77086C19.1064 7.77086 19.0989 7.77086 19.0906 7.77086V7.77169Z" fill="#1D2742"/>
<path d="M51.1614 9.87312H51.1573C45.8459 9.83825 45.6624 6.56525 45.6566 6.42659C45.6508 6.25971 45.7122 6.0978 45.8285 5.97741C45.9439 5.85702 46.1041 5.78976 46.271 5.78976H50.2191C50.5587 5.78976 50.8335 6.06459 50.8335 6.40418C50.8335 6.74376 50.5587 7.01859 50.2191 7.01859H47.1005C47.47 7.68282 48.4697 8.62852 51.1656 8.64595C51.5052 8.64845 51.7784 8.92493 51.7759 9.26452C51.7734 9.60245 51.4993 9.87478 51.1614 9.87478V9.87312Z" fill="#1D2742"/>
<path d="M30.3411 7.25523C30.3171 7.25523 30.293 7.25357 30.2689 7.25108C29.9318 7.21123 29.691 6.90651 29.7309 6.56941L30.1161 3.28895C30.156 2.95185 30.464 2.71024 30.7978 2.75009C31.1349 2.78994 31.3757 3.09466 31.3358 3.43176L30.9506 6.71222C30.914 7.02524 30.6484 7.25523 30.3411 7.25523Z" fill="#1D2742"/>
<path d="M4.44956 12.6562H2.16128C1.82169 12.6562 1.54688 12.3814 1.54688 12.0418C1.54688 11.7022 1.82169 11.4274 2.16128 11.4274H4.44956C4.87135 11.4274 5.27736 11.2331 5.5912 10.8811L6.15165 10.2525C6.37749 9.99931 6.76606 9.97689 7.0193 10.2027C7.27253 10.4286 7.29496 10.8171 7.06912 11.0696L6.50868 11.6981C5.9582 12.3158 5.22754 12.6554 4.45039 12.6554L4.44956 12.6562Z" fill="#1D2742"/>
</svg>
