<svg width="36" height="21" viewBox="0 0 36 21" fill="none" xmlns="http://www.w3.org/2000/svg">
<path d="M6.16534 20.5C3.27821 20.5 0.929688 18.1515 0.929688 15.2643C0.929688 12.3772 3.27821 10.0287 6.16534 10.0287C9.05247 10.0287 11.401 12.3772 11.401 15.2643C11.401 18.1515 9.05247 20.5 6.16534 20.5ZM6.16534 11.05C3.84168 11.05 1.95099 12.9407 1.95099 15.2643C1.95099 17.588 3.84168 19.4787 6.16534 19.4787C8.48899 19.4787 10.379 17.588 10.379 15.2643C10.379 12.9407 8.4883 11.05 6.16534 11.05Z" fill="#1D2742"/>
<path d="M30.1653 20.5C27.2782 20.5 24.9297 18.1515 24.9297 15.2643C24.9297 12.3772 27.2782 10.0287 30.1653 10.0287C33.0525 10.0287 35.401 12.3772 35.401 15.2643C35.401 18.1515 33.0525 20.5 30.1653 20.5ZM30.1653 11.05C27.8417 11.05 25.9517 12.9407 25.9517 15.2643C25.9517 17.588 27.8424 19.4787 30.1653 19.4787C32.4883 19.4787 34.379 17.588 34.379 15.2643C34.379 12.9407 32.4883 11.05 30.1653 11.05Z" fill="#1D2742"/>
<path d="M30.1621 18.4733C28.3929 18.4733 26.9531 17.0335 26.9531 15.2643C26.9531 13.4952 28.3929 12.0554 30.1621 12.0554C31.9312 12.0554 33.371 13.4952 33.371 15.2643C33.371 17.0335 31.9312 18.4733 30.1621 18.4733ZM30.1621 13.0767C28.9557 13.0767 27.9744 14.058 27.9744 15.2643C27.9744 16.4707 28.9557 17.452 30.1621 17.452C31.3684 17.452 32.3497 16.4707 32.3497 15.2643C32.3497 14.058 31.3684 13.0767 30.1621 13.0767Z" fill="#1D2742"/>
<path d="M6.16987 18.4733C4.40071 18.4733 2.96094 17.0335 2.96094 15.2643C2.96094 13.4952 4.40071 12.0554 6.16987 12.0554C7.93902 12.0554 9.37879 13.4952 9.37879 15.2643C9.37879 17.0335 7.93902 18.4733 6.16987 18.4733ZM6.16987 13.0767C4.9635 13.0767 3.98224 14.058 3.98224 15.2643C3.98224 16.4707 4.9635 17.452 6.16987 17.452C7.37623 17.452 8.35748 16.4707 8.35748 15.2643C8.35748 14.058 7.37623 13.0767 6.16987 13.0767Z" fill="#1D2742"/>
<path d="M6.16716 15.7754C6.0919 15.7754 6.01594 15.7588 5.94343 15.7236C5.69 15.6 5.58435 15.294 5.70796 15.0406L12.6575 0.787263C12.7431 0.611867 12.9213 0.5 13.1167 0.5H16.4044C16.6868 0.5 16.9154 0.728569 16.9154 1.011C16.9154 1.29343 16.6868 1.52199 16.4044 1.52199H13.4364L6.62637 15.4888C6.53798 15.6704 6.35568 15.776 6.16647 15.776L6.16716 15.7754Z" fill="#1D2742"/>
<path d="M23.4517 16.314H13.5853C13.4472 16.314 13.3146 16.258 13.2179 16.1579C13.1219 16.0585 13.0702 15.9238 13.0743 15.7857C13.0757 15.7408 13.0854 15.6352 13.0957 15.5233C13.1054 15.4204 13.1164 15.3099 13.1178 15.2616C13.1178 13.0602 12.1069 11.0341 10.3439 9.70621C10.1188 9.53634 10.0739 9.21593 10.2431 8.99082C10.413 8.76571 10.7327 8.72013 10.9585 8.89C12.9797 10.4133 14.1391 12.7363 14.1391 15.2643C14.1391 15.2719 14.1391 15.2816 14.1384 15.2927H23.451C23.7334 15.2927 23.962 15.5212 23.962 15.8037C23.962 16.0861 23.7334 16.3146 23.451 16.3146L23.4517 16.314Z" fill="#1D2742"/>
<path d="M24.1661 12.8716C24.1434 12.8716 24.1206 12.8702 24.0978 12.8668C23.8181 12.8295 23.6213 12.5726 23.6593 12.293C23.9908 9.80841 28.1126 8.39212 28.288 8.33342C28.3404 8.31547 28.3957 8.30649 28.4509 8.30649C31.0397 8.30649 32.0514 6.68097 32.4153 5.76532H27.2446C26.8316 6.29496 26.0658 7.0435 24.8574 7.39361C24.3319 7.54552 23.787 7.60215 23.2381 7.56003C22.957 7.53862 22.7457 7.29348 22.7671 7.01243C22.7885 6.73069 23.0357 6.5187 23.3147 6.54148C23.7422 6.57394 24.1648 6.53044 24.5729 6.41235C25.6577 6.09816 26.2868 5.37102 26.5651 4.96568C26.6604 4.82688 26.8178 4.74402 26.9863 4.74402H33.1031C33.255 4.74402 33.3986 4.81169 33.496 4.92839C33.5933 5.04509 33.6334 5.19908 33.6058 5.34824C33.5982 5.3876 32.8289 9.27601 28.5393 9.32849C27.4607 9.70897 24.8733 10.925 24.673 12.429C24.6392 12.6859 24.4196 12.8723 24.1675 12.8723L24.1661 12.8716Z" fill="#1D2742"/>
<path d="M21.6046 7.08426C21.4313 7.08426 21.2614 6.99587 21.1661 6.83567C21.0246 6.59882 19.7077 4.51547 17.1514 4.22406C14.9782 3.97478 13.4273 5.16112 13.0026 5.53056C12.7899 5.71562 12.4675 5.69352 12.2817 5.48084C12.0966 5.26815 12.1187 4.94567 12.3321 4.75992C12.8362 4.32143 14.6813 2.91481 17.2667 3.20897C20.2477 3.54941 21.7683 5.85235 22.0424 6.31086C22.1874 6.55324 22.1087 6.86674 21.8663 7.01176C21.7842 7.06079 21.6937 7.08426 21.6046 7.08426Z" fill="#1D2742"/>
<path d="M7.7684 8.53095C7.53224 8.53095 7.32024 8.3666 7.26914 8.12629L6.75332 5.70458C6.74296 5.65486 6.7395 5.60445 6.74434 5.55404C6.94597 3.24075 9.55413 1.9964 9.66462 1.94461C9.79996 1.88177 9.95602 1.88039 10.0914 1.94185L10.8661 2.29264C11.123 2.40934 11.237 2.7118 11.121 2.96868C11.0043 3.22556 10.7011 3.33949 10.4449 3.22348L9.89802 2.97558C9.36493 3.27597 7.93551 4.20059 7.76978 5.57062L8.26835 7.91361C8.32704 8.18982 8.15096 8.46051 7.87475 8.5199C7.83884 8.52749 7.80293 8.53095 7.76771 8.53095H7.7684Z" fill="#1D2742"/>
<path d="M33.7672 9.32851H28.4563C28.1739 9.32851 27.9453 9.09994 27.9453 8.81751C27.9453 8.53509 28.1739 8.30652 28.4563 8.30652H33.7672C34.0496 8.30652 34.2782 8.53509 34.2782 8.81751C34.2782 9.09994 34.0496 9.32851 33.7672 9.32851Z" fill="#1D2742"/>
<path d="M20.0099 14.8307C19.7275 14.8307 19.4989 14.6021 19.4989 14.3197V12.2937L14.0533 9.76077C13.7978 9.642 13.6866 9.33816 13.8054 9.08197C13.9249 8.82578 14.2287 8.71599 14.4842 8.83407L20.2246 11.5044C20.4049 11.5879 20.5202 11.7688 20.5202 11.9677V14.3197C20.5202 14.6021 20.2916 14.8307 20.0092 14.8307H20.0099Z" fill="#1D2742"/>
</svg>
