<svg width="54" height="21" viewBox="0 0 54 21" fill="none" xmlns="http://www.w3.org/2000/svg">
<path d="M9.54082 20.4999C6.97243 20.4999 4.88281 18.4103 4.88281 15.8419C4.88281 13.2735 6.97243 11.1839 9.54082 11.1839C12.1092 11.1839 14.1988 13.2735 14.1988 15.8419C14.1988 18.4103 12.1092 20.4999 9.54082 20.4999ZM9.54082 12.3474C7.61394 12.3474 6.04634 13.915 6.04634 15.8419C6.04634 17.7688 7.61394 19.3364 9.54082 19.3364C11.4677 19.3364 13.0353 17.7688 13.0353 15.8419C13.0353 13.915 11.4677 12.3474 9.54082 12.3474Z" fill="#1D2742"/>
<path d="M9.54309 18.6116C8.01557 18.6116 6.77344 17.3694 6.77344 15.8419C6.77344 14.3144 8.01557 13.0723 9.54309 13.0723C11.0706 13.0723 12.3127 14.3144 12.3127 15.8419C12.3127 17.3694 11.0706 18.6116 9.54309 18.6116ZM9.54309 14.2358C8.65708 14.2358 7.93695 14.9567 7.93695 15.8419C7.93695 16.7271 8.65787 17.448 9.54309 17.448C10.4283 17.448 11.1492 16.7271 11.1492 15.8419C11.1492 14.9567 10.4283 14.2358 9.54309 14.2358Z" fill="#1D2742"/>
<path d="M41.4549 20.4999C38.8865 20.4999 36.7969 18.4103 36.7969 15.8419C36.7969 13.2735 38.8865 11.1839 41.4549 11.1839C44.0233 11.1839 46.1129 13.2735 46.1129 15.8419C46.1129 18.4103 44.0233 20.4999 41.4549 20.4999ZM41.4549 12.3474C39.528 12.3474 37.9604 13.915 37.9604 15.8419C37.9604 17.7688 39.528 19.3364 41.4549 19.3364C43.3818 19.3364 44.9494 17.7688 44.9494 15.8419C44.9494 13.915 43.3818 12.3474 41.4549 12.3474Z" fill="#1D2742"/>
<path d="M41.4571 18.6116C39.9296 18.6116 38.6875 17.3694 38.6875 15.8419C38.6875 14.3144 39.9304 13.0723 41.4571 13.0723C42.9839 13.0723 44.2268 14.3144 44.2268 15.8419C44.2268 17.3694 42.9847 18.6116 41.4571 18.6116ZM41.4571 14.2358C40.5711 14.2358 39.8502 14.9567 39.8502 15.8419C39.8502 16.7271 40.5711 17.448 41.4571 17.448C42.3432 17.448 43.0633 16.7271 43.0633 15.8419C43.0633 14.9567 42.3424 14.2358 41.4571 14.2358Z" fill="#1D2742"/>
<path d="M47.4834 15.3003C47.1736 15.3003 46.9165 15.0566 46.9032 14.7437C46.889 14.423 47.1383 14.1517 47.459 14.1376C49.0809 14.0668 49.5431 13.9497 50.0321 13.8247C50.2703 13.7642 50.5164 13.7013 50.8819 13.6415C51.4771 13.544 51.9087 13.0362 51.9087 12.4355V11.8027H51.6791C51.4999 11.8027 51.3308 11.7201 51.2208 11.5794C51.1107 11.4379 51.0714 11.2539 51.1147 11.0802C51.2923 10.3679 51.1429 8.80426 50.7043 6.78854C50.6131 6.36795 50.2475 6.07392 49.8159 6.07392H34.8474C34.5258 6.07392 34.2656 5.8137 34.2656 5.49216C34.2656 5.17062 34.5258 4.9104 34.8474 4.9104H49.8159C50.7837 4.9104 51.6359 5.59593 51.8411 6.54011C52.1225 7.83256 52.4079 9.49372 52.3395 10.6777C52.7624 10.7995 53.0722 11.1895 53.0722 11.651V12.4348C53.0722 13.6085 52.2302 14.5983 51.0706 14.7885C50.7546 14.8404 50.5431 14.8947 50.3191 14.9513C49.7703 15.0912 49.2522 15.2233 47.5101 15.2987C47.5015 15.2987 47.4928 15.2987 47.4841 15.2987L47.4834 15.3003Z" fill="#1D2742"/>
<path d="M3.50703 16.5928H2.0432C1.8498 16.5928 1.6682 16.4961 1.5605 16.3357L0.692569 15.0432C0.613953 14.9269 0.580938 14.7862 0.598234 14.647C0.635183 14.3506 0.665839 13.9206 0.702003 13.423C0.772757 12.4434 0.860806 11.2249 1.0542 10.1628C1.37181 8.42455 2.6902 7.08571 4.41268 6.75081C7.86865 6.07942 13.1147 5.68162 14.1234 5.6093L19.4771 1.83729C20.7193 0.962295 22.1784 0.500031 23.6965 0.500031H32.9645C33.9551 0.500031 34.7538 1.2744 34.7829 2.26261C34.8466 4.37896 34.8985 8.54875 34.5321 12.6903C34.5038 13.0102 34.2255 13.2492 33.9016 13.2186C33.5817 13.1903 33.345 12.908 33.3733 12.5881C33.7342 8.50631 33.6831 4.38917 33.6202 2.29798C33.6092 1.94185 33.3214 1.66355 32.9637 1.66355H23.6957C22.4182 1.66355 21.191 2.0527 20.1454 2.78855L14.6587 6.65332C14.5715 6.71464 14.4693 6.7508 14.3639 6.75788C14.3034 6.76181 8.31756 7.17612 4.63281 7.89232C3.40326 8.13131 2.42449 9.12737 2.19728 10.3711C2.0149 11.3703 1.9292 12.5543 1.86081 13.5055C1.83172 13.912 1.80578 14.2752 1.7759 14.5708L2.35216 15.4293H3.50625C3.82779 15.4293 4.088 15.6895 4.088 16.011C4.088 16.3326 3.82779 16.5928 3.50625 16.5928H3.50703Z" fill="#1D2742"/>
<path d="M35.5235 16.4237H16.5896C16.268 16.4237 16.0078 16.1635 16.0078 15.842C16.0078 15.5204 16.268 15.2602 16.5896 15.2602H35.5235C35.845 15.2602 36.1053 15.5204 36.1053 15.842C36.1053 16.1635 35.845 16.4237 35.5235 16.4237Z" fill="#1D2742"/>
<path d="M30.0809 7.05742H18.3474C18.0259 7.05742 17.7656 6.79719 17.7656 6.47565C17.7656 6.15411 18.0259 5.89389 18.3474 5.89389H30.0809C30.6123 5.89389 31.0447 5.4615 31.0447 4.93006V3.12818C31.0447 2.80664 31.3049 2.54642 31.6265 2.54642C31.948 2.54642 32.2082 2.80664 32.2082 3.12818V4.93006C32.2082 6.10301 31.2538 7.05742 30.0809 7.05742Z" fill="#1D2742"/>
<path d="M26.1755 6.98038C25.854 6.98038 25.5938 6.72016 25.5938 6.39862V3.12896C25.5938 2.80742 25.854 2.54721 26.1755 2.54721C26.497 2.54721 26.7573 2.80742 26.7573 3.12896V6.39862C26.7573 6.72016 26.497 6.98038 26.1755 6.98038Z" fill="#1D2742"/>
<path d="M50.2462 10.6871H49.9278C49.1566 10.6871 48.5214 10.1085 48.4498 9.34122L48.2604 7.33416C48.2305 7.01419 48.4648 6.73038 48.7847 6.7005C49.1039 6.66984 49.3885 6.90491 49.4184 7.22488L49.6079 9.23194C49.6236 9.39861 49.7612 9.52362 49.9278 9.52362H50.2462C50.5678 9.52362 50.828 9.78384 50.828 10.1054C50.828 10.4269 50.5678 10.6871 50.2462 10.6871Z" fill="#1D2742"/>
<path d="M1.62784 10.8483C1.33696 10.8483 1.08539 10.6305 1.0508 10.3341C1.01385 10.0149 1.24184 9.72643 1.56102 9.68948L4.73633 9.31998C5.36605 9.24687 5.90771 8.86244 6.18522 8.29247C6.32594 8.00316 6.67343 7.88288 6.96274 8.0236C7.25126 8.16432 7.37154 8.51181 7.23161 8.80111C6.77956 9.72957 5.8967 10.3561 4.87076 10.4749L1.69545 10.8443C1.67265 10.8467 1.64985 10.8483 1.62705 10.8483H1.62784Z" fill="#1D2742"/>
</svg>
