<svg width="55" height="21" viewBox="0 0 55 21" fill="none" xmlns="http://www.w3.org/2000/svg">
<path d="M3.93289 17.1589H2.38056C1.09382 17.1589 0.046875 16.112 0.046875 14.8253V12.2965C0.046875 11.1696 0.651145 10.1106 1.62244 9.53301C3.21776 8.58406 6.82271 6.84348 13.0742 5.82749L21.558 2.04031C23.8478 1.01831 26.2795 0.5 28.7868 0.5H34.7821C36.6757 0.5 38.5478 0.801703 40.346 1.39565L48.4455 4.38001H50.866C52.3874 4.38001 53.6243 5.61776 53.6243 7.1383V9.0061L54.8002 10.3797C54.899 10.4948 54.9532 10.641 54.9532 10.7931V13.9769C54.9532 14.1995 54.8371 14.4058 54.6463 14.521C54.5389 14.5863 51.9697 16.1232 48.559 16.742C48.2117 16.8057 47.8825 16.5753 47.8198 16.2298C47.757 15.8842 47.9865 15.5533 48.3321 15.4905C50.8531 15.0333 52.9255 14.0113 53.6819 13.6047V11.0286L52.506 9.65506C52.4072 9.53988 52.353 9.39376 52.353 9.24162V7.13916C52.353 6.31915 51.686 5.65214 50.8669 5.65214H48.3329C48.2581 5.65214 48.1834 5.63839 48.1129 5.6126L39.9274 2.59558C38.2779 2.05149 36.5408 1.77127 34.783 1.77127H28.7876C26.46 1.77127 24.2028 2.25262 22.0771 3.20071L13.5177 7.0214C13.467 7.04375 13.4137 7.06008 13.3596 7.06868C7.26538 8.04943 3.7971 9.71781 2.27312 10.6246C1.68433 10.9745 1.31901 11.6148 1.31901 12.2956V14.8244C1.31901 15.4097 1.79521 15.8868 2.38142 15.8868H3.93376C4.28531 15.8868 4.56983 16.1713 4.56983 16.5229C4.56983 16.8744 4.28531 17.1589 3.93376 17.1589H3.93289Z" fill="#1D2742"/>
<path d="M10.1174 20.5C7.5155 20.5 5.39844 18.3829 5.39844 15.7811C5.39844 13.1792 7.5155 11.0621 10.1174 11.0621C12.7192 11.0621 14.8363 13.1792 14.8363 15.7811C14.8363 18.3829 12.7192 20.5 10.1174 20.5ZM10.1174 12.3334C8.21689 12.3334 6.67057 13.8797 6.67057 15.7811C6.67057 17.6824 8.21689 19.2287 10.1174 19.2287C12.0178 19.2287 13.565 17.6824 13.565 15.7811C13.565 13.8797 12.0187 12.3334 10.1174 12.3334Z" fill="#1D2742"/>
<path d="M10.1195 18.1818C8.79576 18.1818 7.71875 17.1048 7.71875 15.7802C7.71875 14.4556 8.79576 13.3786 10.1195 13.3786C11.4432 13.3786 12.5211 14.4556 12.5211 15.7802C12.5211 17.1048 11.444 18.1818 10.1195 18.1818ZM10.1195 14.6516C9.49715 14.6516 8.99003 15.1579 8.99003 15.7811C8.99003 16.4042 9.49629 16.9105 10.1195 16.9105C10.7426 16.9105 11.2489 16.4042 11.2489 15.7811C11.2489 15.1579 10.7426 14.6516 10.1195 14.6516Z" fill="#1D2742"/>
<path d="M42.2297 18.1818C40.9051 18.1818 39.8281 17.1048 39.8281 15.7802C39.8281 14.4556 40.9051 13.3786 42.2297 13.3786C43.5543 13.3786 44.6304 14.4556 44.6304 15.7802C44.6304 17.1048 43.5534 18.1818 42.2297 18.1818ZM42.2297 14.6516C41.6065 14.6516 41.1003 15.1579 41.1003 15.7811C41.1003 16.4042 41.6065 16.9105 42.2297 16.9105C42.8529 16.9105 43.3592 16.4042 43.3592 15.7811C43.3592 15.1579 42.8529 14.6516 42.2297 14.6516Z" fill="#1D2742"/>
<path d="M42.2267 20.5C39.6249 20.5 37.5078 18.3829 37.5078 15.7811C37.5078 13.1792 39.6249 11.0621 42.2267 11.0621C44.8286 11.0621 46.9457 13.1792 46.9457 15.7811C46.9457 18.3829 44.8286 20.5 42.2267 20.5ZM42.2267 12.3334C40.3254 12.3334 38.7791 13.8797 38.7791 15.7811C38.7791 17.6824 40.3254 19.2287 42.2267 19.2287C44.1281 19.2287 45.6744 17.6824 45.6744 15.7811C45.6744 13.8797 44.1281 12.3334 42.2267 12.3334Z" fill="#1D2742"/>
<path d="M36.0742 17.1589H16.4876C16.1361 17.1589 15.8516 16.8744 15.8516 16.5228C15.8516 16.1713 16.1361 15.8867 16.4876 15.8867H36.0742C36.4257 15.8867 36.7102 16.1713 36.7102 16.5228C36.7102 16.8744 36.4257 17.1589 36.0742 17.1589Z" fill="#1D2742"/>
<path d="M52.1297 8.59521C51.2745 8.59521 50.0238 8.41384 49.0259 7.52593C48.8849 7.40043 48.8076 7.21993 48.8127 7.03169C48.8188 6.84345 48.9073 6.66724 49.0551 6.5512L51.3819 4.72122C51.6578 4.50461 52.0575 4.55189 52.275 4.8278C52.4916 5.10372 52.4443 5.50341 52.1684 5.72087L50.5344 7.0059C51.62 7.50358 52.8483 7.26721 52.8629 7.26463C53.2067 7.19586 53.542 7.41763 53.6125 7.76059C53.6829 8.10355 53.4629 8.43877 53.1199 8.51011C53.0804 8.51785 52.6902 8.59607 52.1306 8.59607L52.1297 8.59521Z" fill="#1D2742"/>
<path d="M30.308 7.06611C30.2805 7.06611 30.2539 7.06439 30.2264 7.06095C29.8783 7.01625 29.6324 6.69736 29.6771 6.34924L30.131 2.81478C30.1757 2.4658 30.4971 2.22169 30.8427 2.26553C31.1908 2.31022 31.4366 2.62912 31.3919 2.97723L30.9381 6.5117C30.8968 6.83231 30.6235 7.06611 30.308 7.06611Z" fill="#1D2742"/>
<path d="M19.5351 7.74943C18.5517 7.74943 17.6509 7.74513 16.8567 7.74255H16.7811C16.4295 7.74083 16.1467 7.4546 16.1484 7.10391C16.1502 6.75407 16.4347 6.47128 16.7845 6.47128H16.8627C23.1357 6.49878 36.1914 6.55466 42.9492 4.48916C43.2836 4.38601 43.6403 4.57511 43.7434 4.9112C43.8457 5.24728 43.6566 5.60227 43.3214 5.70542C37.2495 7.56119 26.3994 7.75029 19.5359 7.75029L19.5351 7.74943Z" fill="#1D2742"/>
<path d="M3.98261 12.0618H1.722C1.37044 12.0618 1.08594 11.7773 1.08594 11.4257C1.08594 11.0742 1.37044 10.7896 1.722 10.7896H3.98261C4.38574 10.7896 4.77426 10.5928 5.07854 10.2352L5.63209 9.58456C5.85901 9.31724 6.26043 9.28458 6.52861 9.51236C6.79593 9.74014 6.82858 10.1415 6.6008 10.4089L6.04725 11.0595C5.498 11.7059 4.76481 12.0618 3.98261 12.0618Z" fill="#1D2742"/>
</svg>
