<svg width="46" height="21" viewBox="0 0 46 21" fill="none" xmlns="http://www.w3.org/2000/svg">
<path d="M6.43665 20.5C4.11964 20.5 2.23438 18.6148 2.23438 16.2978C2.23438 13.9807 4.11964 12.0955 6.43665 12.0955C8.75366 12.0955 10.6389 13.9807 10.6389 16.2978C10.6389 18.6148 8.75366 20.5 6.43665 20.5ZM6.43665 13.1858C4.72081 13.1858 3.32398 14.5819 3.32398 16.2978C3.32398 18.0136 4.72008 19.4097 6.43665 19.4097C8.15323 19.4097 9.54859 18.0136 9.54859 16.2978C9.54859 14.5819 8.15249 13.1858 6.43665 13.1858Z" fill="#1D2742"/>
<path d="M6.43868 18.424C5.26655 18.424 4.3125 17.4699 4.3125 16.2978C4.3125 15.1256 5.26655 14.1716 6.43868 14.1716C7.61082 14.1716 8.56489 15.1256 8.56489 16.2978C8.56489 17.4699 7.61082 18.424 6.43868 18.424ZM6.43868 15.2619C5.86772 15.2619 5.40212 15.7268 5.40212 16.2978C5.40212 16.8687 5.86698 17.3336 6.43868 17.3336C7.01039 17.3336 7.47453 16.8687 7.47453 16.2978C7.47453 15.7268 7.00965 15.2619 6.43868 15.2619Z" fill="#1D2742"/>
<path d="M35.4679 20.5C33.1509 20.5 31.2656 18.6148 31.2656 16.2978C31.2656 13.9807 33.1509 12.0955 35.4679 12.0955C37.7849 12.0955 39.6702 13.9807 39.6702 16.2978C39.6702 18.6148 37.7849 20.5 35.4679 20.5ZM35.4679 13.1858C33.752 13.1858 32.3552 14.5819 32.3552 16.2978C32.3552 18.0136 33.7513 19.4097 35.4679 19.4097C37.1845 19.4097 38.5798 18.0136 38.5798 16.2978C38.5798 14.5819 37.1837 13.1858 35.4679 13.1858Z" fill="#1D2742"/>
<path d="M35.4699 18.424C34.2978 18.424 33.3438 17.4699 33.3438 16.2978C33.3438 15.1256 34.2978 14.1716 35.4699 14.1716C36.6421 14.1716 37.5962 15.1256 37.5962 16.2978C37.5962 17.4699 36.6421 18.424 35.4699 18.424ZM35.4699 15.2619C34.899 15.2619 34.4334 15.7268 34.4334 16.2978C34.4334 16.8687 34.8982 17.3336 35.4699 17.3336C36.0416 17.3336 36.5058 16.8687 36.5058 16.2978C36.5058 15.7268 36.0409 15.2619 35.4699 15.2619Z" fill="#1D2742"/>
<path d="M45.1384 11.6077C45.1288 11.6077 45.1192 11.6077 45.1096 11.6077C44.809 11.5922 44.5777 11.3358 44.5939 11.0352C44.7214 8.57162 44.3036 6.64656 44.0988 5.87152H42.2717C41.9704 5.87152 41.7266 5.62766 41.7266 5.32634C41.7266 5.02502 41.9704 4.78116 42.2717 4.78116H44.5077C44.7413 4.78116 44.9497 4.92998 45.0241 5.15173C45.058 5.25267 45.8589 7.6706 45.682 11.0905C45.6673 11.3815 45.4264 11.6077 45.1384 11.6077Z" fill="#1D2742"/>
<path d="M43.6356 16.8428H40.783C40.4817 16.8428 40.2378 16.599 40.2378 16.2977C40.2378 15.9964 40.4817 15.7525 40.783 15.7525H43.0904V13.6609H42.557C42.3905 13.6609 42.2328 13.585 42.1297 13.4539C42.0266 13.3235 41.9883 13.1526 42.0266 12.9905C42.0303 12.9728 42.4517 11.1119 42.1894 7.79732L41.0349 1.80772C41.0106 1.68174 40.9001 1.58965 40.7712 1.58965H19.566C19.219 1.58965 18.8963 1.76131 18.7025 2.04937L15.1758 7.15783C15.069 7.31255 14.89 7.40317 14.7021 7.39285C10.8321 7.21162 4.37614 7.40906 3.16864 8.68654L2.77743 10.5652C2.75902 10.6543 2.71775 10.7376 2.65881 10.8076L1.72317 11.9068V15.533C1.72317 15.8343 1.47932 16.0781 1.178 16.0781C0.87668 16.0781 0.632812 15.8343 0.632812 15.533V11.7064C0.632812 11.5767 0.67849 11.4515 0.762477 11.3535L1.7379 10.2071L2.12837 8.33144C2.14458 8.25409 2.177 8.18041 2.22489 8.11705C3.79117 6.0137 12.1081 6.19567 14.4494 6.2907L17.8015 1.43567C18.1942 0.851446 18.855 0.500031 19.5652 0.500031H40.7705C41.4203 0.500031 41.9816 0.963428 42.1047 1.60143L43.2643 7.6205C43.2679 7.64039 43.2709 7.66028 43.2724 7.68017C43.4625 10.0517 43.321 11.713 43.2024 12.5706H43.6341C43.9354 12.5706 44.1793 12.8144 44.1793 13.1157V16.2977C44.1793 16.599 43.9354 16.8428 43.6341 16.8428H43.6356Z" fill="#1D2742"/>
<path d="M12.038 14.503C11.8729 14.503 11.7094 14.4286 11.6026 14.2864L9.88745 12.0106C9.41005 11.3778 8.6527 10.9998 7.85998 10.9998H4.83423C4.53291 10.9998 4.28906 10.756 4.28906 10.4547C4.28906 10.1533 4.53291 9.90948 4.83423 9.90948H7.85998C8.99233 9.90948 10.0761 10.4495 10.7575 11.3542L12.4726 13.63C12.6539 13.8701 12.606 14.212 12.3658 14.3932C12.2678 14.4669 12.1521 14.503 12.038 14.503Z" fill="#1D2742"/>
<path d="M28.9145 16.8428H12.0139C11.7126 16.8428 11.4688 16.599 11.4688 16.2977C11.4688 15.9963 11.7126 15.7525 12.0139 15.7525H28.5969C29.0235 15.0047 30.2391 12.8999 31.2926 11.3122C31.7118 10.6809 32.4603 10.3036 33.2951 10.3036H37.9784C38.7284 10.3036 39.4239 10.7059 39.7981 11.355L40.6653 12.698C40.8288 12.9507 40.7559 13.2881 40.5032 13.4517C40.2512 13.6145 39.9131 13.5423 39.7495 13.2896L38.8743 11.934C38.8684 11.9252 38.8625 11.9163 38.8581 11.9068C38.679 11.59 38.3416 11.3933 37.9784 11.3933H33.2951C32.8331 11.3933 32.4139 11.5929 32.2002 11.9149C30.9257 13.8355 29.4037 16.5371 29.3889 16.5644C29.2924 16.736 29.1112 16.8421 28.9137 16.8421L28.9145 16.8428Z" fill="#1D2742"/>
<path d="M40.5786 7.57336H17.8108C17.5095 7.57336 17.2656 7.3295 17.2656 7.02818C17.2656 6.72686 17.5095 6.483 17.8108 6.483H40.5786C40.88 6.483 41.1238 6.72686 41.1238 7.02818C41.1238 7.3295 40.88 7.57336 40.5786 7.57336Z" fill="#1D2742"/>
<path d="M25.8811 7.57335C25.5798 7.57335 25.3359 7.32949 25.3359 7.02817V2.57539C25.3359 2.27407 25.5798 2.03021 25.8811 2.03021C26.1824 2.03021 26.4263 2.27407 26.4263 2.57539V7.02817C26.4263 7.32949 26.1824 7.57335 25.8811 7.57335Z" fill="#1D2742"/>
</svg>
