<svg width="47" height="21" viewBox="0 0 47 21" fill="none" xmlns="http://www.w3.org/2000/svg">
<path d="M8.84494 20.5C6.88407 20.5 5.28906 18.905 5.28906 16.9441C5.28906 14.9833 6.88407 13.3882 8.84494 13.3882C10.8058 13.3882 12.4008 14.9833 12.4008 16.9441C12.4008 18.905 10.8058 20.5 8.84494 20.5ZM8.84494 14.408C7.44629 14.408 6.30808 15.5462 6.30808 16.9448C6.30808 18.3435 7.44629 19.481 8.84494 19.481C10.2436 19.481 11.3811 18.3435 11.3811 16.9448C11.3811 15.5462 10.2436 14.408 8.84494 14.408Z" fill="#1D2742"/>
<path d="M8.84995 18.7706C7.84265 18.7706 7.02344 17.9514 7.02344 16.9441C7.02344 15.9368 7.84265 15.1176 8.84995 15.1176C9.85725 15.1176 10.6765 15.9368 10.6765 16.9441C10.6765 17.9514 9.85725 18.7706 8.84995 18.7706ZM8.84995 16.1373C8.40486 16.1373 8.04245 16.4997 8.04245 16.9448C8.04245 17.3899 8.40486 17.7523 8.84995 17.7523C9.29504 17.7523 9.65676 17.3899 9.65676 16.9448C9.65676 16.4997 9.29435 16.1373 8.84995 16.1373Z" fill="#1D2742"/>
<path d="M38.4934 20.5C36.5325 20.5 34.9375 18.905 34.9375 16.9441C34.9375 14.9833 36.5325 13.3882 38.4934 13.3882C40.4542 13.3882 42.0493 14.9833 42.0493 16.9441C42.0493 18.905 40.4542 20.5 38.4934 20.5ZM38.4934 14.408C37.0947 14.408 35.9572 15.5462 35.9572 16.9448C35.9572 18.3435 37.0947 19.481 38.4934 19.481C39.892 19.481 41.0302 18.3435 41.0302 16.9448C41.0302 15.5462 39.892 14.408 38.4934 14.408Z" fill="#1D2742"/>
<path d="M38.4984 18.7706C37.4911 18.7706 36.6719 17.9514 36.6719 16.9441C36.6719 15.9368 37.4911 15.1176 38.4984 15.1176C39.5057 15.1176 40.3249 15.9368 40.3249 16.9441C40.3249 17.9514 39.5057 18.7706 38.4984 18.7706ZM38.4984 16.1373C38.0533 16.1373 37.6916 16.4997 37.6916 16.9448C37.6916 17.3899 38.054 17.7523 38.4984 17.7523C38.9428 17.7523 39.3059 17.3899 39.3059 16.9448C39.3059 16.4997 38.9435 16.1373 38.4984 16.1373Z" fill="#1D2742"/>
<path d="M33.9275 18.0451H13.6739C13.3921 18.0451 13.1641 17.8171 13.1641 17.5353C13.1641 17.2535 13.3921 17.0254 13.6739 17.0254H33.9275C34.2092 17.0254 34.4373 17.2535 34.4373 17.5353C34.4373 17.8171 34.2092 18.0451 33.9275 18.0451Z" fill="#1D2742"/>
<path d="M42.966 17.8019C42.7097 17.8019 42.4886 17.609 42.4603 17.3479C42.43 17.0681 42.6312 16.816 42.9116 16.7856C44.1504 16.6499 45.4106 16.3743 45.8198 16.1614V10.0439C45.7337 9.53817 44.8697 4.55333 43.9658 2.01716C43.859 1.71882 43.5772 1.51833 43.2637 1.51833H18.5992C17.0077 1.51833 15.4395 1.93861 14.0629 2.73302C12.4073 3.68865 10.6641 4.86613 8.88241 6.23378C8.83694 6.26823 8.78595 6.29509 8.73221 6.313C7.47343 6.72915 4.00574 8.04375 3.08594 9.11789C1.98907 10.398 1.79064 12.3989 1.78857 12.4188C1.78031 12.5105 1.74654 12.598 1.6928 12.6724L1.19122 13.3572L1.32557 16.2868C1.33798 16.5652 1.56672 16.7829 1.84507 16.7829H3.94649C4.22829 16.7829 4.45634 17.011 4.45634 17.2927C4.45634 17.5745 4.22829 17.8026 3.94649 17.8026H1.84507C1.02035 17.8026 0.345141 17.1577 0.307247 16.3337L0.164625 13.225C0.159113 13.1085 0.194253 12.9948 0.262463 12.9004L0.790917 12.1791C0.861194 11.6437 1.1802 9.77587 2.31221 8.45508C3.52965 7.03507 7.56093 5.6316 8.33053 5.37323C10.124 4.00145 11.8809 2.81638 13.5538 1.85111C15.0847 0.967134 16.8292 0.5 18.5992 0.5H43.2637C44.0071 0.5 44.6747 0.972652 44.9255 1.67611C45.9046 4.42173 46.7948 9.69457 46.832 9.9178C46.8368 9.94536 46.8388 9.97361 46.8388 10.0019V16.4019C46.8388 16.508 46.8058 16.6113 46.7438 16.6981C46.2759 17.3527 44.2117 17.6696 43.0225 17.7998C43.0039 17.8019 42.9846 17.8026 42.966 17.8026V17.8019Z" fill="#1D2742"/>
<path d="M4.34836 11.4219H3.07235C2.79056 11.4219 2.5625 11.1938 2.5625 10.912C2.5625 10.6302 2.79056 10.4022 3.07235 10.4022H4.04727C4.31047 9.96053 4.90851 9.10067 5.91443 8.39377C6.14456 8.23186 6.46218 8.28697 6.62478 8.51778C6.78669 8.7479 6.73158 9.06622 6.50076 9.22813C5.33982 10.0446 4.81343 11.1215 4.80792 11.1325C4.72317 11.3089 4.54403 11.4226 4.34836 11.4226V11.4219Z" fill="#1D2742"/>
<path d="M18.286 7.7158H9.50204C9.22024 7.7158 8.99219 7.48774 8.99219 7.20594C8.99219 6.92415 9.22024 6.69609 9.50204 6.69609H18.286C18.4437 6.69609 18.5974 6.65544 18.7311 6.57827L20.0174 5.83485C20.2572 5.69637 20.4005 5.46073 20.4005 5.20443V2.30447C20.4005 2.02267 20.6285 1.79462 20.9103 1.79462C21.1921 1.79462 21.4202 2.02267 21.4202 2.30447V5.20443C21.4202 5.81969 21.0784 6.39982 20.5279 6.71744L19.2416 7.46087C18.9536 7.62691 18.6229 7.71511 18.2867 7.71511L18.286 7.7158Z" fill="#1D2742"/>
<path d="M41.0543 7.14875H23.6167C22.8333 7.14875 22.1953 6.51144 22.1953 5.72737V2.30447C22.1953 2.02267 22.4234 1.79462 22.7052 1.79462C22.987 1.79462 23.215 2.02267 23.215 2.30447V5.72737C23.215 5.94853 23.3955 6.12905 23.6167 6.12905H41.0543C41.8363 6.12905 42.5708 5.82451 43.1234 5.27195L43.4534 4.94193C43.6518 4.74281 43.975 4.74281 44.1741 4.94193C44.3732 5.14104 44.3732 5.46349 44.1741 5.66261L43.8441 5.99263C43.0993 6.73812 42.1085 7.14806 41.0543 7.14806V7.14875Z" fill="#1D2742"/>
<path d="M34.3302 7.14876C34.0484 7.14876 33.8203 6.92071 33.8203 6.63891V2.50704C33.8203 2.22524 34.0484 1.99719 34.3302 1.99719C34.612 1.99719 34.84 2.22524 34.84 2.50704V6.63891C34.84 6.92071 34.612 7.14876 34.3302 7.14876Z" fill="#1D2742"/>
</svg>
