<?xml version="1.0" encoding="utf-8" ?><svg xmlns="http://www.w3.org/2000/svg" xmlns:xlink="http://www.w3.org/1999/xlink" width="1080" height="1080" viewBox="0 0 1080 1080"><path fill="#086A80" d="M151.249 371.002C191.117 389.695 224.538 403.509 266.579 416.91C278.325 420.55 290.138 423.968 302.013 427.163C308.238 428.813 317.704 430.872 323.39 433.009C326.062 436.959 330.088 444.8 332.383 449.124L346.436 475.633L392.802 561.946L554.083 862.255C561.297 849.635 568.202 836.105 575.096 823.228L613.083 752.402L718.62 555.977L762.107 474.833L775.64 449.398C778.333 444.343 782.068 436.919 785.326 432.425C791.132 430.51 799.139 428.895 805.255 427.308C815.475 424.608 825.632 421.68 835.721 418.527C877.095 405.808 917.448 389.98 956.436 371.176C952.61 405.039 948.833 433.759 941.462 467.218C906.506 623.982 825.884 766.874 709.775 877.85C706.014 881.43 702.187 884.941 698.297 888.381C660.83 924.338 600.034 969.335 554.162 993.896C504.391 967.509 454.794 928.002 412.473 891.087L398.583 878.041C375.149 857.212 342.866 820.205 323.891 796.457C245.955 698.894 191.766 584.55 165.604 462.452C159.086 431.966 155.178 401.876 151.249 371.002Z"/><defs><linearGradient id="gradient_0" gradientUnits="userSpaceOnUse" x1="555.04669" y1="991.93353" x2="555.02832" y2="881.71283"><stop offset="0" stop-color="#0B0507"/><stop offset="1" stop-color="#07313B"/></linearGradient></defs><path fill="url(#gradient_0)" d="M412.473 891.087C412.802 890.458 413.052 889.982 413.025 889.246C412.857 884.226 418.44 883.217 422.311 882.914C436.679 881.788 451.192 882.494 465.633 882.518L536.886 882.496C588.544 882.518 643.449 881.499 694.753 882.973C696.558 885.167 697.427 885.597 698.297 888.381C660.83 924.338 600.034 969.335 554.162 993.896C504.391 967.509 454.794 928.002 412.473 891.087Z"/><path fill="#082731" d="M398.583 878.041C404.224 878.159 409.043 876.054 414.492 875.652C424.363 874.923 434.419 874.886 444.309 874.576C456.276 874.2 467.708 875.277 479.724 875.294L595.897 875.309C603.104 875.288 610.918 874.586 617.983 874.827C639.325 875.557 660.399 875.088 681.715 874.304C685.168 874.177 690.897 874.742 694.467 875.06C699.592 875.517 706.423 873.894 709.775 877.85C706.014 881.43 702.187 884.941 698.297 888.381C697.427 885.597 696.558 885.167 694.753 882.973C643.449 881.499 588.544 882.518 536.886 882.496L465.633 882.518C451.192 882.494 436.679 881.788 422.311 882.914C418.44 883.217 412.857 884.226 413.025 889.246C413.052 889.982 412.802 890.458 412.473 891.087L398.583 878.041Z"/><defs><linearGradient id="gradient_1" gradientUnits="userSpaceOnUse" x1="284.81116" y1="442.53485" x2="398.80719" y2="303.68619"><stop offset="0" stop-color="#B00501"/><stop offset="1" stop-color="#D7441C"/></linearGradient></defs><path fill="url(#gradient_1)" d="M553.702 85.7235C560.312 89.065 568.853 95.4786 575.778 99.5459C595.131 111.13 615.651 120.638 637 127.914L636.939 331.445L636.95 396.825C636.956 406.712 637.448 420.667 636.912 430.022L637.004 475.939C637.002 481.083 637.012 498.234 636.183 502.974C634.698 509.247 619.19 538.438 615.371 545.828C594.795 585.644 575.164 626.996 554.101 666.446C546.154 652.494 538.064 635.361 530.759 620.879L494.505 549.298L382.428 328.132C366.299 325.045 351.128 323.117 334.692 319.544C263.414 304.596 194.9 278.638 131.612 242.603C123.036 185.548 122.1 142.871 124.481 85.9899C137.665 94.7206 146.578 100.247 160.408 107.683C189.404 122.568 225.664 136.183 257.72 142.698C281.225 147.414 305.095 150.087 329.062 150.688C347.04 150.967 364.258 149.37 382.065 147.242C427.803 141.775 471.984 130.804 513.36 110.128C528.538 102.544 539.679 95.2292 553.702 85.7235Z"/><defs><linearGradient id="gradient_2" gradientUnits="userSpaceOnUse" x1="441.03806" y1="296.80652" x2="601.66956" y2="100.88212"><stop offset="0" stop-color="#F06932"/><stop offset="1" stop-color="#FF8E4E"/></linearGradient></defs><path fill="url(#gradient_2)" d="M553.702 85.7235C560.312 89.065 568.853 95.4786 575.778 99.5459C595.131 111.13 615.651 120.638 637 127.914L636.939 331.445L636.95 396.825C636.956 406.712 637.448 420.667 636.912 430.022C636.511 431.693 636.368 434.584 636.22 436.388L635.667 436.744C632.069 436.791 628.691 435.576 625.846 433.363C606.815 418.56 587.805 403.759 568.419 389.413C560.201 383.331 552.392 375.127 544.354 369.367C534.711 362.457 524.587 356.126 515.252 348.649C510.967 345.3 507.063 341.04 502.881 337.927C487.223 326.27 472.295 313.8 457.107 301.554C450.81 296.472 443.529 292.374 437.199 287.377C401.821 259.449 364.556 233.662 331.088 203.438C328.667 201.252 325.123 199.272 322.503 197.185C312.327 189.083 301.637 181.669 291.309 173.77C284.78 168.855 278.192 162.468 271.361 158.045C267.125 155.303 265.321 154.145 262.369 149.919C260.434 147.149 258.918 146.101 257.72 142.698C281.225 147.414 305.095 150.087 329.062 150.688C347.04 150.967 364.258 149.37 382.065 147.242C427.803 141.775 471.984 130.804 513.36 110.128C528.538 102.544 539.679 95.2292 553.702 85.7235Z"/><path fill="#D8461C" d="M160.408 107.683C189.404 122.568 225.664 136.183 257.72 142.698C258.918 146.101 260.434 147.149 262.369 149.919C265.321 154.145 267.125 155.303 271.361 158.045C278.192 162.468 284.78 168.855 291.309 173.77C301.637 181.669 312.327 189.083 322.503 197.185C325.123 199.272 328.667 201.252 331.088 203.438C364.556 233.662 401.821 259.449 437.199 287.377C443.529 292.374 450.81 296.472 457.107 301.554C472.295 313.8 487.223 326.27 502.881 337.927C507.063 341.04 510.967 345.3 515.252 348.649C524.587 356.126 534.711 362.457 544.354 369.367C552.392 375.127 560.201 383.331 568.419 389.413C587.805 403.759 606.815 418.56 625.846 433.363C628.691 435.576 632.069 436.791 635.667 436.744L636.22 436.388C636.368 434.584 636.511 431.693 636.912 430.022L637.004 475.939C637.002 481.083 637.012 498.234 636.183 502.974C635.579 502.717 634.852 502.881 634.215 502.928C631.56 500.794 631.425 497.157 629.135 494.8C625.927 491.498 622.522 488.953 619.02 486.021C610.903 479.225 602.617 472.688 594.451 465.972C592.81 464.622 591.829 462.664 590.195 461.382C588.101 459.74 585.784 458.428 583.69 456.749C581.021 454.607 562.408 438.523 561.372 438.292C560.27 438.045 559.986 437.971 559.122 437.274C558.533 435.998 558.452 435.659 557.585 434.579L556.76 435.239L556.025 434.833C554.808 431.955 534.27 416.566 530.059 412.008L529.325 412.587C528.235 411.808 528.414 411.348 527.893 409.751C527.495 409.898 527.096 410.045 526.697 410.191C522.573 405.506 517.231 402.983 512.721 398.931C511.457 397.794 510.543 395.911 509.106 395.044C507.976 394.363 505.33 393.599 504.454 392.714C503.427 391.676 504.507 390.381 502.726 389.443C496.541 386.186 470.921 362.787 469.232 362.42C466.144 361.748 467.202 360.709 465.494 358.739C463.976 356.988 460.181 355.466 458.192 353.815C453.415 349.849 448.916 345.536 444.188 341.561C441.863 339.606 438.965 338.229 436.75 336.189C435.573 335.106 434.9 333.545 433.691 332.504C433.162 332.047 432.599 332.266 431.934 332.291C423.677 324.234 413.782 317.89 405.585 309.774C404.095 308.299 400.977 306.963 399.423 305.448C390.145 296.401 378.989 289.353 369.683 280.323C367.395 278.104 364.508 276.644 361.997 274.572L286.707 211.823C277.943 204.465 265.073 196.008 257.221 187.341C256.815 187.492 256.41 187.644 256.004 187.795C248.893 179.734 238.045 173.881 230.721 165.852C230.001 165.062 227.118 163.752 225.645 162.355C215.833 153.041 204.405 145.416 194.649 136.041C192.609 134.09 189.094 134.072 186.925 131.053L185.882 131.133C184.739 127.409 158.667 115.05 157.488 110.295C158.66 108.222 158.095 108.92 160.408 107.683Z"/><path fill="#FEFEFE" d="M710.199 164.724C712.216 162.869 715.178 160.587 717.386 158.94C742.26 140.286 773.573 132.38 804.32 136.99C809.399 137.759 812.345 138.728 815.322 142.735C817.054 142.295 817.902 142.359 819.683 142.266C837.385 146.622 860.624 157.526 872.043 173.048C873.454 174.965 873.169 176.942 872.873 179.171C877.683 179.864 880.396 181.197 883.116 185.549C889.323 195.479 902.086 216.681 898.766 228.274L899.418 229.858C901.816 234.304 903.096 236.114 903.478 241.215C905.355 256.834 903.857 281.239 893.842 293.969C892.468 295.715 890.676 297.617 889.431 299.348C889.555 300.755 889.907 304.577 889.702 305.802C888.378 313.693 880.055 324.519 875.217 330.468C858.098 351.521 828.777 367.226 801.575 369.417C799.436 369.581 797.294 369.711 795.15 369.807C787.018 370.005 778.885 369.45 770.855 368.151C766.863 367.771 764.399 366.67 761.176 364.449C758.806 361.823 747.659 363.226 743.554 361.732C732.381 357.667 701.958 340.574 702.469 326.891C692.863 326.834 682.103 304.396 679.085 297.02C675.921 289.29 672.773 283.449 676.038 275.323C674.659 274.425 672.832 272.682 671.557 271.546C669.714 258.496 670.191 237.98 673.919 225.319C675.984 218.598 679.225 209.173 682.57 203.151C686.094 189.048 699.808 174.309 710.199 164.724Z"/><defs><linearGradient id="gradient_3" gradientUnits="userSpaceOnUse" x1="812.27582" y1="278.10446" x2="879.65259" y2="316.90704"><stop offset="0" stop-color="#085966"/><stop offset="1" stop-color="#0A798A"/></linearGradient></defs><path fill="url(#gradient_3)" d="M759.302 317.819C810.447 301.732 868.8 274.765 898.766 228.274L899.418 229.858C901.816 234.304 903.096 236.114 903.478 241.215C905.355 256.834 903.857 281.239 893.842 293.969C892.468 295.715 890.676 297.617 889.431 299.348C889.555 300.755 889.907 304.577 889.702 305.802C888.378 313.693 880.055 324.519 875.217 330.468C858.098 351.521 828.777 367.226 801.575 369.417C799.436 369.581 797.294 369.711 795.15 369.807C787.018 370.005 778.885 369.45 770.855 368.151C766.863 367.771 764.399 366.67 761.176 364.449C758.806 361.823 747.659 363.226 743.554 361.732C732.381 357.667 701.958 340.574 702.469 326.891L703.802 327.623C728.412 326.663 735.347 325.908 759.302 317.819Z"/><path fill="#FEFEFE" d="M759.302 317.819C810.447 301.732 868.8 274.765 898.766 228.274L899.418 229.858C901.816 234.304 903.096 236.114 903.478 241.215C884.843 278.451 827.407 308.362 789.354 321.246C788.639 321.488 787.985 321.671 787.252 321.844C780.73 327.215 792.818 348.315 795.535 355.116L763.09 362.954L762.852 363.541L761.176 364.449C758.806 361.823 747.659 363.226 743.554 361.732C732.381 357.667 701.958 340.574 702.469 326.891L703.802 327.623C728.412 326.663 735.347 325.908 759.302 317.819Z"/><path fill="#082731" d="M703.802 327.623C715.029 348.745 770.683 325.797 787.296 320.291L787.252 321.844C780.73 327.215 792.818 348.315 795.535 355.116L763.09 362.954L762.852 363.541L761.176 364.449C758.806 361.823 747.659 363.226 743.554 361.732C732.381 357.667 701.958 340.574 702.469 326.891L703.802 327.623Z"/><path fill="#000303" d="M899.418 229.858C901.816 234.304 903.096 236.114 903.478 241.215C884.843 278.451 827.407 308.362 789.354 321.246C788.639 321.488 787.985 321.671 787.252 321.844L787.296 320.291C827.728 303.906 869.738 285.148 896.904 249.064C902.403 241.76 900.781 238.266 899.418 229.858Z"/><defs><linearGradient id="gradient_4" gradientUnits="userSpaceOnUse" x1="836.40546" y1="328.48022" x2="853.45667" y2="348.92801"><stop offset="0" stop-color="#184A58"/><stop offset="1" stop-color="#097889"/></linearGradient></defs><path fill="url(#gradient_4)" d="M888.327 301.687C888.963 301.215 889.102 300.266 889.431 299.348C889.555 300.755 889.907 304.577 889.702 305.802C888.378 313.693 880.055 324.519 875.217 330.468C858.098 351.521 828.777 367.226 801.575 369.417C799.436 369.581 797.294 369.711 795.15 369.807C787.018 370.005 778.885 369.45 770.855 368.151C766.863 367.771 764.399 366.67 761.176 364.449L762.852 363.541L763.09 362.954L795.535 355.116C819.011 347.717 841.207 336.744 861.341 322.584C866.483 319.043 885.276 302.421 888.327 301.687Z"/><path fill="#FEFEFE" d="M795.535 355.116C819.011 347.717 841.207 336.744 861.341 322.584C866.483 319.043 885.276 302.421 888.327 301.687C884.253 316.636 855.844 334.299 842.482 342.444C826.191 352.373 809.007 357.877 790.987 363.452C795.211 364.38 794.277 365.623 795.15 369.807C787.018 370.005 778.885 369.45 770.855 368.151C766.863 367.771 764.399 366.67 761.176 364.449L762.852 363.541L763.09 362.954L795.535 355.116Z"/><path fill="#082731" d="M790.987 363.452C795.211 364.38 794.277 365.623 795.15 369.807C787.018 370.005 778.885 369.45 770.855 368.151C772.895 367.984 773.751 368.529 774.969 367.516L774.089 365.851C779.23 366.016 785.861 364.522 790.987 363.452Z"/><path fill="#000303" d="M762.852 363.541C766.565 364.436 770.3 365.442 774.089 365.851L774.969 367.516C773.751 368.529 772.895 367.984 770.855 368.151C766.863 367.771 764.399 366.67 761.176 364.449L762.852 363.541Z"/><path fill="#FEFEFE" d="M710.199 164.724C712.216 162.869 715.178 160.587 717.386 158.94C742.26 140.286 773.573 132.38 804.32 136.99C809.399 137.759 812.345 138.728 815.322 142.735C817.054 142.295 817.902 142.359 819.683 142.266C826.716 146.805 828.635 147.814 831.893 155.734C830.063 160.321 827.968 164.882 824.453 168.415C805.592 187.369 780.016 203.847 755.728 214.258C749.67 216.801 743.532 219.151 737.325 221.305C712.901 228.951 698.782 233.984 673.919 225.319C675.984 218.598 679.225 209.173 682.57 203.151C686.094 189.048 699.808 174.309 710.199 164.724Z"/><defs><linearGradient id="gradient_5" gradientUnits="userSpaceOnUse" x1="718.35931" y1="180.76929" x2="813.47101" y2="142.36433"><stop offset="0" stop-color="#085765"/><stop offset="1" stop-color="#0A7F91"/></linearGradient></defs><path fill="url(#gradient_5)" d="M710.199 164.724C712.216 162.869 715.178 160.587 717.386 158.94C742.26 140.286 773.573 132.38 804.32 136.99C809.399 137.759 812.345 138.728 815.322 142.735C808.784 161.5 773.137 183.956 755.452 192.523C746.64 196.846 737.496 200.458 728.108 203.323C721.568 189.193 719.179 177.638 710.199 164.724Z"/><path fill="#082731" d="M682.57 203.151C686.094 189.048 699.808 174.309 710.199 164.724C719.179 177.638 721.568 189.193 728.108 203.323C720.51 205.77 711.915 208.101 704.07 209.553C696.435 210.967 684.42 213.274 682.57 203.151Z"/><defs><linearGradient id="gradient_6" gradientUnits="userSpaceOnUse" x1="740.94745" y1="198.35593" x2="868.78784" y2="209.91469"><stop offset="0" stop-color="#075B6B"/><stop offset="1" stop-color="#0A7B8B"/></linearGradient></defs><path fill="url(#gradient_6)" d="M819.683 142.266C837.385 146.622 860.624 157.526 872.043 173.048C873.454 174.965 873.169 176.942 872.873 179.171L871.788 182.204C863.824 195.908 853.98 207.057 841.179 216.389C814.514 235.828 785.366 251.9 754.425 263.182C748.176 253.111 741.554 232.974 737.325 221.305C743.532 219.151 749.67 216.801 755.728 214.258C780.016 203.847 805.592 187.369 824.453 168.415C827.968 164.882 830.063 160.321 831.893 155.734C828.635 147.814 826.716 146.805 819.683 142.266Z"/><defs><linearGradient id="gradient_7" gradientUnits="userSpaceOnUse" x1="773.4342" y1="227.45415" x2="874.98236" y2="275.22986"><stop offset="0" stop-color="#EE6838"/><stop offset="1" stop-color="#FF8E4A"/></linearGradient></defs><path fill="url(#gradient_7)" d="M872.873 179.171C877.683 179.864 880.396 181.197 883.116 185.549C889.323 195.479 902.086 216.681 898.766 228.274C868.8 274.765 810.447 301.732 759.302 317.819C754.979 313.382 746.242 290.245 745.481 283.611C754.48 279.945 764.059 277.127 772.919 273.329C786.122 267.669 799.476 260.806 812.424 254.589C836.85 242.583 859.082 225.222 873.947 202.164C879.651 193.317 881.695 188.5 871.788 182.204L872.873 179.171Z"/><defs><linearGradient id="gradient_8" gradientUnits="userSpaceOnUse" x1="669.05811" y1="262.17609" x2="741.15131" y2="233.64352"><stop offset="0" stop-color="#0D0E13"/><stop offset="1" stop-color="#062933"/></linearGradient></defs><path fill="url(#gradient_8)" d="M673.919 225.319C698.782 233.984 712.901 228.951 737.325 221.305C741.554 232.974 748.176 253.111 754.425 263.182C733.299 270.952 701.161 282.203 678.792 277.283L676.038 275.323C674.659 274.425 672.832 272.682 671.557 271.546C669.714 258.496 670.191 237.98 673.919 225.319Z"/><path fill="#D8461C" d="M676.038 275.323L678.792 277.283C678.072 288.228 684.974 292.619 695.501 292.703C711.785 292.832 729.923 288.311 745.481 283.611C746.242 290.245 754.979 313.382 759.302 317.819C735.347 325.908 728.412 326.663 703.802 327.623L702.469 326.891C692.863 326.834 682.103 304.396 679.085 297.02C675.921 289.29 672.773 283.449 676.038 275.323Z"/></svg>