<svg width="40" height="32" viewBox="0 0 40 32" fill="none" xmlns="http://www.w3.org/2000/svg">
<path d="M36.3397 8.87207H2.42188V24.4021H36.3397V8.87207ZM16.2041 17.8178H13.6085V20.4134H11.2471V17.8178H8.65148V15.4564H11.2471V12.8608H13.6085V15.4564H16.2041V17.8178ZM30.1101 17.8178H22.559V15.4564H30.1101V17.8178Z" fill="hsl(var(--icon-light))"/>
<path d="M37.7112 25.9434H1.06107C0.566746 25.9434 0.166016 26.3441 0.166016 26.8384V29.8279C0.166016 30.3222 0.566746 30.723 1.06107 30.723H37.7112C38.2056 30.723 38.6063 30.3222 38.6063 29.8279V26.8384C38.6063 26.3441 38.2056 25.9434 37.7112 25.9434Z" fill="hsl(var(--icon-light))"/>
<path d="M37.7112 2.55762H1.06107C0.566746 2.55762 0.166016 2.95835 0.166016 3.45267V6.44217C0.166016 6.93649 0.566746 7.33722 1.06107 7.33722H37.7112C38.2056 7.33722 38.6063 6.93649 38.6063 6.44217V3.45267C38.6063 2.95835 38.2056 2.55762 37.7112 2.55762Z" fill="hsl(var(--icon-dark))"/>
<path d="M7.1353 -0.000976562H13.4658C13.9914 -0.000976562 14.4194 0.427021 14.4194 0.952664V3.85753H6.18164V0.952664C6.18164 0.427021 6.60966 -0.000976562 7.1353 -0.000976562Z" fill="hsl(var(--icon-dark))"/>
<path d="M25.3013 -0.000976562H31.6318C32.1574 -0.000976562 32.5854 0.427021 32.5854 0.952664V3.85753H24.3477V0.952664C24.3477 0.427021 24.7756 -0.000976562 25.3013 -0.000976562Z" fill="hsl(var(--icon-dark))"/>
</svg>
