<svg width="31" height="24" viewBox="0 0 31 24" fill="none" xmlns="http://www.w3.org/2000/svg">
<path d="M28.5139 6.92969H2.01562V19.0625H28.5139V6.92969ZM12.783 13.9185H10.7551V15.9464H8.91036V13.9185H6.8825V12.0737H8.91036V10.0459H10.7551V12.0737H12.783V13.9185ZM23.647 13.9185H17.7478V12.0737H23.647V13.9185Z" fill="#8E93A1"/>
<path d="M29.5832 20.2656H0.95024C0.564048 20.2656 0.250977 20.5787 0.250977 20.9649V23.3004C0.250977 23.6866 0.564048 23.9997 0.95024 23.9997H29.5832C29.9694 23.9997 30.2824 23.6866 30.2824 23.3004V20.9649C30.2824 20.5787 29.9694 20.2656 29.5832 20.2656Z" fill="#8E93A1"/>
<path d="M29.5832 2H0.95024C0.564048 2 0.250977 2.31307 0.250977 2.69926V5.0348C0.250977 5.421 0.564048 5.73407 0.95024 5.73407H29.5832C29.9694 5.73407 30.2824 5.421 30.2824 5.0348V2.69926C30.2824 2.31307 29.9694 2 29.5832 2Z" fill="#BCBFC7"/>
<path d="M5.69622 0H10.6419C11.0526 0 11.387 0.334373 11.387 0.745032V3.01446H4.95117V0.745032C4.95117 0.334373 5.28556 0 5.69622 0Z" fill="#BCBFC7"/>
<path d="M19.8895 0H24.8353C25.2459 0 25.5803 0.334373 25.5803 0.745032V3.01446H19.1445V0.745032C19.1445 0.334373 19.4789 0 19.8895 0Z" fill="#BCBFC7"/>
</svg>
