<svg width="31" height="24" viewBox="0 0 31 24" fill="none" xmlns="http://www.w3.org/2000/svg">
<path d="M28.2639 6.92969H1.76562V19.0625H28.2639V6.92969ZM12.533 13.9185H10.5051V15.9464H8.66036V13.9185H6.6325V12.0737H8.66036V10.0459H10.5051V12.0737H12.533V13.9185ZM23.397 13.9185H17.4978V12.0737H23.397V13.9185Z" fill="#1D2742"/>
<path d="M29.3332 20.2656H0.70024C0.314048 20.2656 0.000976562 20.5787 0.000976562 20.9649V23.3004C0.000976562 23.6866 0.314048 23.9997 0.70024 23.9997H29.3332C29.7194 23.9997 30.0324 23.6866 30.0324 23.3004V20.9649C30.0324 20.5787 29.7194 20.2656 29.3332 20.2656Z" fill="#1D2742"/>
<path d="M29.3332 2H0.70024C0.314048 2 0.000976562 2.31307 0.000976562 2.69926V5.0348C0.000976562 5.421 0.314048 5.73407 0.70024 5.73407H29.3332C29.7194 5.73407 30.0324 5.421 30.0324 5.0348V2.69926C30.0324 2.31307 29.7194 2 29.3332 2Z" fill="#74C044"/>
<path d="M5.44622 0H10.3919C10.8026 0 11.137 0.334373 11.137 0.745032V3.01446H4.70117V0.745032C4.70117 0.334373 5.03556 0 5.44622 0Z" fill="#74C044"/>
<path d="M19.6395 0H24.5853C24.9959 0 25.3303 0.334373 25.3303 0.745032V3.01446H18.8945V0.745032C18.8945 0.334373 19.2289 0 19.6395 0Z" fill="#74C044"/>
</svg>
