<svg width="44" height="23" viewBox="0 0 44 23" fill="none" xmlns="http://www.w3.org/2000/svg">
<path d="M7.20818 22.6507C9.37544 22.6507 11.1209 20.9106 11.1261 18.7539C11.1314 16.5972 9.38599 14.8412 7.224 14.8359C5.06201 14.8359 3.30605 16.5813 3.30078 18.7328C3.30078 20.8895 5.04619 22.6455 7.20818 22.6507ZM7.21873 17.3829C7.98861 17.3829 8.61084 18.0104 8.61084 18.7802C8.61084 19.5501 7.98333 20.1671 7.21345 20.1671C6.44357 20.1671 5.82134 19.5396 5.82134 18.7697C5.82134 18.0051 6.44885 17.3829 7.21873 17.3829ZM35.602 14.8412C33.4347 14.8412 31.6893 16.5813 31.684 18.7381C31.6787 20.8948 33.4242 22.6507 35.5862 22.656C37.7534 22.656 39.4988 20.9159 39.5041 18.7592C39.5094 16.6024 37.764 14.8465 35.602 14.8412ZM35.5914 20.1407C34.8215 20.1407 34.1993 19.5132 34.1993 18.7433C34.1993 17.9735 34.8268 17.3565 35.5967 17.3565C36.3666 17.3565 36.9941 17.984 36.9888 18.7539C36.9888 19.5238 36.3613 20.146 35.5914 20.146V20.1407Z" fill="hsl(var(--icon-light))"/>
<path fill-rule="evenodd" clip-rule="evenodd" d="M16.2082 22.6507C18.3754 22.6507 20.1209 20.9106 20.1261 18.7539C20.1314 16.5972 18.386 14.8412 16.224 14.8359C14.062 14.8359 12.3061 16.5813 12.3008 18.7328C12.3008 20.8895 14.0462 22.6455 16.2082 22.6507ZM17.6108 18.7802C17.6108 18.0104 16.9886 17.3829 16.2187 17.3829C15.4488 17.3829 14.8213 18.0051 14.8213 18.7697C14.8213 19.5396 15.4436 20.1671 16.2135 20.1671C16.9833 20.1671 17.6108 19.5501 17.6108 18.7802Z" fill="hsl(var(--icon-light))"/>
<path fill-rule="evenodd" clip-rule="evenodd" d="M40.1787 4.57588C40.0258 4.28063 39.9063 4.05007 39.8365 3.91046C39.3672 2.96129 38.2651 2.29688 37.279 2.29688H33.6142C32.8654 2.29688 32.2537 2.84528 32.2537 3.59406V10.2593C32.2537 11.0028 31.9584 11.3034 31.2096 11.3034H7.72516C6.77072 11.3034 5.82682 11.5934 5.27314 11.8624C4.53447 12.2203 3.76978 12.6043 2.89907 13.0415C2.15369 13.4158 1.33062 13.8292 0.379666 14.2985C0.10019 14.4357 0 14.7573 0 15.079V16.5924C0.0843703 17.2568 0.659143 17.7841 1.34992 17.7841H2.43619C2.88441 15.5588 4.86184 13.8767 7.21893 13.8767C8.53722 13.8767 9.76059 14.3882 10.6781 15.311C11.1297 15.766 11.4805 16.2919 11.7202 16.8632C12.4597 15.1108 14.2 13.8767 16.219 13.8767C17.5372 13.8767 18.7606 14.3882 19.6781 15.311C20.3637 16.0018 20.8171 16.856 21.0017 17.7841H30.8194C31.2676 15.5588 33.2398 13.8767 35.5916 13.8767C36.9099 13.8767 38.1333 14.3882 39.0561 15.3057C39.7416 15.9965 40.1951 16.8508 40.3796 17.7788H41.777C42.4731 17.7788 43.0795 17.4677 43.0795 16.7084V11.1241C43.0795 10.1751 41.0656 6.28786 40.1787 4.57588ZM39.2248 9.72673H34.6319C34.3313 9.72673 34.0835 9.41561 34.0835 9.03067V4.89653C34.0782 4.52214 34.3261 4.23739 34.6266 4.23739H36.9257C37.5532 4.23739 37.954 4.44304 38.302 5.10218C38.9559 6.3361 39.8523 8.30299 39.9051 8.43481C40.1687 9.09923 40.2056 9.72673 39.2248 9.72673Z" fill="hsl(var(--icon-light))"/>
<path fill-rule="evenodd" clip-rule="evenodd" d="M2.64948 5.49369L2.05268 11.7229L2.05412 11.7175C2.09847 11.9956 2.29529 12.5262 2.63273 12.3493L5.2951 11.0262C5.48723 10.9045 5.57844 10.6509 5.48723 10.3839L4.55031 6.26662L4.31246 5.5863L4.23992 5.37106C4.14799 5.1068 3.84369 4.90411 3.56375 4.92164L3.07471 4.95472C2.79477 4.97225 2.60239 5.21481 2.64948 5.49369Z" fill="hsl(var(--icon-dark))"/>
<path d="M10.5983 4.39506L12.0528 4.29952L13.4158 1.94837C13.7544 1.3624 14.3839 1 15.0614 1H19.2056C19.843 1 20.4528 1.27092 20.8831 1.74132L23.2064 4.29952L27.3823 4.84949C27.8684 4.91282 28.2107 5.34749 28.1672 5.83331L27.9601 8.02478C27.916 8.49138 27.5257 8.84594 27.0594 8.84594H26.5129C26.3887 9.89174 25.5067 10.7083 24.4278 10.7083C23.349 10.7083 22.4675 9.89174 22.343 8.84594H15.6557C15.5315 9.89174 14.6494 10.7083 13.5706 10.7083C12.4918 10.7083 11.6103 9.89174 11.4858 8.84594H10.8692C10.3951 8.84594 10.0004 8.48353 9.96471 8.01314L9.75334 5.37131C9.71383 4.86897 10.0922 4.43079 10.598 4.39479L10.5983 4.39506ZM24.4278 9.7123C25.0422 9.7123 25.5418 9.21267 25.5418 8.59856C25.5418 7.98445 25.0422 7.48483 24.4278 7.48483C23.8135 7.48483 23.3144 7.98445 23.3144 8.59856C23.3144 9.21267 23.814 9.7123 24.4278 9.7123ZM21.5605 4.2638L19.9986 2.54624C19.7953 2.32322 19.5044 2.19574 19.2056 2.19574H17.6872L17.6713 4.26407H21.5605V4.2638ZM16.4761 4.2638L16.492 2.19547H15.0614C14.8105 2.19547 14.5753 2.33107 14.4481 2.5503L13.4518 4.2638H16.4761ZM13.5709 9.7123C14.1853 9.7123 14.6846 9.21267 14.6846 8.59856C14.6846 7.98445 14.1853 7.48483 13.5709 7.48483C12.9565 7.48483 12.4574 7.98445 12.4574 8.59856C12.4574 9.21267 12.9568 9.7123 13.5709 9.7123Z" fill="hsl(var(--icon-dark))"/>
</svg>
