<svg width="35" height="24" viewBox="0 0 35 24" fill="none" xmlns="http://www.w3.org/2000/svg">
<path d="M23.0632 0C22.7304 0 22.4116 0.184342 22.2386 0.474287C21.5991 1.51642 19.5244 5.04764 19.5244 6.60297C19.5244 8.5418 21.1204 10.1221 23.0632 10.1221C25.0061 10.1221 26.6152 8.54088 26.6152 6.60297C26.6152 5.04764 24.5405 1.5155 23.9019 0.474287C23.728 0.183415 23.4092 0 23.0632 0ZM22.6874 5.22365C22.6556 5.27645 21.8955 6.52331 22.4443 7.332C22.5434 7.47281 22.5789 7.64603 22.5462 7.82111C22.5135 7.99063 22.4134 8.13885 22.2667 8.23796C22.1563 8.31114 22.0301 8.3482 21.8992 8.3482C21.6776 8.3482 21.4719 8.23982 21.3523 8.05918C20.3116 6.52886 21.5121 4.62338 21.5729 4.52889C21.6673 4.38068 21.8132 4.27693 21.9862 4.23987C22.1582 4.20189 22.334 4.23246 22.4817 4.32417C22.6304 4.4168 22.7332 4.56039 22.7715 4.73176C22.8099 4.90128 22.7799 5.07636 22.6865 5.22365H22.6874Z" fill="hsl(var(--icon-dark))"/>
<path d="M29.4796 5.57843C29.4231 5.50023 29.3325 5.45312 29.2356 5.45312C29.1387 5.45312 29.0481 5.50023 28.9916 5.57843C28.8212 5.81749 27.3232 7.9477 27.3232 9.00881C27.3232 10.0699 28.1816 10.9035 29.2356 10.9035C30.2895 10.9035 31.1479 10.0539 31.1479 9.00881C31.1479 7.9637 29.65 5.81749 29.4805 5.57843H29.4796Z" fill="hsl(var(--icon-dark))"/>
<path d="M27.9259 1.25693C27.8911 1.20872 27.8352 1.17969 27.7755 1.17969C27.7158 1.17969 27.6599 1.20872 27.6251 1.25693C27.52 1.40429 26.5967 2.71741 26.5967 3.3715C26.5967 4.02559 27.1258 4.53944 27.7755 4.53944C28.4252 4.53944 28.9543 4.01573 28.9543 3.3715C28.9543 2.72727 28.0309 1.40429 27.9264 1.25693H27.9259Z" fill="hsl(var(--icon-dark))"/>
<path fill-rule="evenodd" clip-rule="evenodd" d="M5.17809 11.753L2.53853 11.9247C1.62053 11.9895 0.933384 12.7769 1.0051 13.6801L1.38869 18.4302C1.45353 19.2759 2.16966 19.9276 3.0302 19.9276H4.14909C4.37502 21.8079 5.97476 23.2761 7.93257 23.2761C9.89038 23.2761 11.4911 21.8079 11.7166 19.9276H23.8524C24.0784 21.8079 25.6781 23.2761 27.6359 23.2761C29.5937 23.2761 31.1945 21.8079 31.4199 19.9276H32.4116C33.2579 19.9276 33.9661 19.2901 34.0462 18.4511L34.4219 14.5108C34.501 13.6372 33.8797 12.8557 32.9975 12.7418L25.4193 11.753L24.9524 11.2437C23.3946 11.4905 22.8494 11.4341 22.024 11.2437L22.4324 11.6887L15.3743 11.6892L15.4033 7.9703H18.1588C18.2794 7.9703 18.3993 7.98163 18.5169 8.00368C18.3687 7.13748 18.3401 6.6588 18.5169 5.8359C18.3982 5.82556 18.2788 5.82031 18.1588 5.82031H10.6379C9.40854 5.82031 8.26607 6.47193 7.65162 7.5255L5.17809 11.753ZM29.6576 19.4828C29.6576 20.587 28.7509 21.4853 27.6359 21.4853C26.5219 21.4853 25.6152 20.587 25.6152 19.4828C25.6152 18.3786 26.521 17.4802 27.6359 17.4802C28.7509 17.4802 29.6576 18.3786 29.6576 19.4828ZM13.2343 7.96981L13.2053 11.6887H7.71695L9.52495 8.60779C9.75581 8.21361 10.1826 7.96981 10.6379 7.96981H13.2343ZM9.95424 19.4828C9.95424 20.587 9.04802 21.4853 7.93306 21.4853C6.81859 21.4853 5.91239 20.587 5.91239 19.4828C5.91239 18.3786 6.8181 17.4802 7.93306 17.4802C9.04802 17.4802 9.95424 18.3786 9.95424 19.4828Z" fill="hsl(var(--icon-light))"/>
</svg>
