<svg width="35" height="24" viewBox="0 0 35 24" fill="none" xmlns="http://www.w3.org/2000/svg">
<path d="M23.0637 0C22.7309 0 22.4121 0.184342 22.2391 0.474287C21.5996 1.51642 19.5249 5.04764 19.5249 6.60297C19.5249 8.5418 21.1209 10.1221 23.0637 10.1221C25.0066 10.1221 26.6157 8.54088 26.6157 6.60297C26.6157 5.04764 24.541 1.5155 23.9024 0.474287C23.7285 0.183415 23.4097 0 23.0637 0ZM22.6879 5.22365C22.6561 5.27645 21.896 6.52331 22.4448 7.332C22.5439 7.47281 22.5794 7.64603 22.5467 7.82111C22.514 7.99063 22.4139 8.13885 22.2671 8.23796C22.1568 8.31114 22.0306 8.3482 21.8997 8.3482C21.6781 8.3482 21.4724 8.23982 21.3527 8.05918C20.3121 6.52886 21.5126 4.62338 21.5734 4.52889C21.6678 4.38068 21.8137 4.27693 21.9867 4.23987C22.1587 4.20189 22.3345 4.23246 22.4822 4.32417C22.6308 4.4168 22.7337 4.56039 22.772 4.73176C22.8104 4.90128 22.7804 5.07636 22.6869 5.22365H22.6879Z" fill="#BCBFC7"/>
<path d="M29.4801 5.57843C29.4235 5.50023 29.3329 5.45312 29.2361 5.45312C29.1392 5.45312 29.0486 5.50023 28.9921 5.57843C28.8217 5.81749 27.3237 7.9477 27.3237 9.00881C27.3237 10.0699 28.1821 10.9035 29.2361 10.9035C30.29 10.9035 31.1484 10.0539 31.1484 9.00881C31.1484 7.9637 29.6505 5.81749 29.4809 5.57843H29.4801Z" fill="#BCBFC7"/>
<path d="M27.9264 1.25693C27.8915 1.20872 27.8357 1.17969 27.776 1.17969C27.7163 1.17969 27.6604 1.20872 27.6256 1.25693C27.5205 1.40429 26.5972 2.71741 26.5972 3.3715C26.5972 4.02559 27.1263 4.53944 27.776 4.53944C28.4257 4.53944 28.9548 4.01573 28.9548 3.3715C28.9548 2.72727 28.0314 1.40429 27.9269 1.25693H27.9264Z" fill="#BCBFC7"/>
<path fill-rule="evenodd" clip-rule="evenodd" d="M5.17857 11.753L2.53902 11.9247C1.62102 11.9895 0.933872 12.7769 1.00558 13.6801L1.38918 18.4302C1.45401 19.2759 2.17015 19.9276 3.03068 19.9276H4.14957C4.37551 21.8079 5.97525 23.2761 7.93306 23.2761C9.89087 23.2761 11.4916 21.8079 11.717 19.9276H23.8529C24.0788 21.8079 25.6786 23.2761 27.6364 23.2761C29.5942 23.2761 31.1949 21.8079 31.4204 19.9276H32.4121C33.2583 19.9276 33.9666 19.2901 34.0467 18.4511L34.4224 14.5108C34.5015 13.6372 33.8802 12.8557 32.998 12.7418L25.4197 11.753L24.9529 11.2437C23.3951 11.4905 22.8499 11.4341 22.0244 11.2437L22.4329 11.6887L15.3748 11.6892L15.4038 7.9703H18.1593C18.2799 7.9703 18.3998 7.98163 18.5174 8.00368C18.3692 7.13748 18.3406 6.6588 18.5174 5.8359C18.3987 5.82556 18.2793 5.82031 18.1593 5.82031H10.6384C9.40903 5.82031 8.26656 6.47193 7.65211 7.5255L5.17857 11.753ZM29.6581 19.4828C29.6581 20.587 28.7514 21.4853 27.6364 21.4853C26.5224 21.4853 25.6157 20.587 25.6157 19.4828C25.6157 18.3786 26.5214 17.4802 27.6364 17.4802C28.7514 17.4802 29.6581 18.3786 29.6581 19.4828ZM13.2348 7.96981L13.2058 11.6887H7.71744L9.52544 8.60779C9.75629 8.21361 10.1831 7.96981 10.6384 7.96981H13.2348ZM9.95473 19.4828C9.95473 20.587 9.04851 21.4853 7.93355 21.4853C6.81908 21.4853 5.91287 20.587 5.91287 19.4828C5.91287 18.3786 6.81859 17.4802 7.93355 17.4802C9.04851 17.4802 9.95473 18.3786 9.95473 19.4828Z" fill="#8E93A1"/>
</svg>
