<svg width="35" height="25" viewBox="0 0 35 25" fill="none" xmlns="http://www.w3.org/2000/svg">
<path d="M14.1293 12.9667L16.968 5.68617C17.1528 5.2169 16.9208 4.68359 16.4452 4.49882C15.9707 4.3193 15.4374 4.54606 15.2579 5.02058L12.1924 12.8922H12.2764C12.8989 12.8922 13.5215 12.9131 14.1283 12.9656L14.1293 12.9667Z" fill="hsl(var(--icon-dark))"/>
<path d="M12.278 0.00105085C5.66204 0.00105085 0.275391 5.38244 0.275391 11.9984C0.275391 13.3327 0.496909 14.6198 0.897941 15.8177C1.43125 15.5122 1.98976 15.2266 2.56506 14.9684C2.35929 14.3091 2.22177 13.6235 2.15878 12.916H3.59913C4.10515 12.916 4.51668 12.5044 4.51668 11.9984C4.51668 11.4924 4.10515 11.0798 3.59913 11.0798H2.15878C2.26376 9.89773 2.5808 8.77442 3.06057 7.74034L4.30566 8.45842C4.44844 8.54241 4.60592 8.5802 4.75919 8.5802C5.08149 8.5802 5.38698 8.41643 5.556 8.12143C5.80901 7.68365 5.66098 7.11884 5.22321 6.86584L3.97812 6.14881C4.6479 5.20397 5.47622 4.37566 6.42631 3.70587L7.14333 4.94571C7.31236 5.24071 7.6231 5.40449 7.94015 5.40449C8.09342 5.40449 8.25194 5.36774 8.39892 5.28271C8.83669 5.0297 8.98472 4.46489 8.73172 4.02712L8.01469 2.78728C9.04877 2.30751 10.1721 1.99047 11.3594 1.88548V3.32584C11.3594 3.83185 11.771 4.24338 12.277 4.24338C12.783 4.24338 13.1945 3.83185 13.1945 3.32584V1.88548C16.239 2.15949 18.8972 3.78461 20.5695 6.14776L19.3297 6.86479C18.8919 7.1178 18.7386 7.6826 18.9916 8.12038C19.1607 8.41538 19.4714 8.57915 19.7884 8.57915C19.947 8.57915 20.1045 8.54241 20.2472 8.45737L21.4871 7.73929C21.9668 8.77337 22.2839 9.89773 22.3889 11.0788H20.9485C20.4425 11.0788 20.031 11.4903 20.031 11.9974C20.031 12.5044 20.4425 12.9149 20.9485 12.9149H22.3889C22.3259 13.6225 22.1883 14.308 21.9826 14.9673C22.5579 15.2256 23.1111 15.5111 23.6497 15.8166C24.0507 14.6188 24.2722 13.3317 24.2722 11.9974C24.2722 5.38139 18.8909 0 12.2759 0L12.278 0.00105085Z" fill="hsl(var(--icon-light))"/>
<path d="M1.39453 17.0512C3.30416 21.156 7.46671 24.0042 12.278 24.0042C17.0894 24.0042 21.2519 21.1497 23.1563 17.0459C20.0803 15.2623 16.3293 14.2188 12.278 14.2188C8.22678 14.2188 4.47051 15.2633 1.39453 17.0512ZM15.1693 18.9555C15.1693 19.4679 14.7577 19.8741 14.2517 19.8741H10.3002C9.79417 19.8741 9.38263 19.4679 9.38263 18.9555C9.38263 18.4432 9.79417 18.038 10.3002 18.038H14.2517C14.7577 18.038 15.1693 18.4495 15.1693 18.9555Z" fill="hsl(var(--icon-light))"/>
<path d="M27.2196 6.39093C25.4016 6.23559 26.0033 6.1313 24.1848 6.1313C23.7957 5.24844 23.0457 4.12344 22.2957 3.74844C22.7554 3.7278 22.7742 3.76489 23.2441 3.76489C25.2364 3.76489 25.7282 3.85831 27.7205 4.04515C28.4764 4.11738 29.1098 4.63662 29.3445 5.36278L31.1529 10.4698H32.8587C33.1757 10.4698 33.4307 10.7295 33.4307 11.0407V12.4007C33.4307 12.7119 33.1751 12.9715 32.8587 12.9715H32.0413C32.2151 13.4804 32.3065 14.0094 32.3065 14.539V19.4489C32.3065 19.885 32.0205 20.2483 31.6324 20.3727V23.04C31.6324 23.569 31.2138 24.0057 30.6825 24.0057H28.8639C28.6902 24.0057 28.5368 23.9536 28.4042 23.8808C28.3224 23.839 28.2508 23.7868 28.1898 23.7255C28.1487 23.6733 28.1081 23.6315 28.0669 23.5799C27.9648 23.4246 27.914 23.2372 27.914 23.04V20.4135H22.2957C24.9074 17.4764 25.6707 13.5057 25.2957 11.3524H28.9767L27.2191 6.39038L27.2196 6.39093ZM28.7014 14.9751H26.5151C26.0249 14.9751 25.6261 15.3803 25.6261 15.8783V16.5116C25.6261 17.0097 26.0249 17.4148 26.5151 17.4148H28.7014C29.1916 17.4148 29.5899 17.0097 29.5899 16.5116V15.8783C29.5899 15.3803 29.1916 14.9751 28.7014 14.9751Z" fill="hsl(var(--icon-dark))"/>
</svg>
