<svg width="36" height="25" viewBox="0 0 36 25" fill="none" xmlns="http://www.w3.org/2000/svg">
<path d="M14.6293 12.9667L17.468 5.68617C17.6528 5.2169 17.4208 4.68359 16.9452 4.49882C16.4707 4.3193 15.9374 4.54606 15.7579 5.02058L12.6924 12.8922H12.7764C13.3989 12.8922 14.0215 12.9131 14.6283 12.9656L14.6293 12.9667Z" fill="#BCBFC7"/>
<path d="M12.778 0.00105085C6.16204 0.00105085 0.775391 5.38244 0.775391 11.9984C0.775391 13.3327 0.996909 14.6198 1.39794 15.8177C1.93125 15.5122 2.48976 15.2266 3.06506 14.9684C2.85929 14.3091 2.72177 13.6235 2.65878 12.916H4.09913C4.60515 12.916 5.01668 12.5044 5.01668 11.9984C5.01668 11.4924 4.60515 11.0798 4.09913 11.0798H2.65878C2.76376 9.89773 3.0808 8.77442 3.56057 7.74034L4.80566 8.45842C4.94844 8.54241 5.10592 8.5802 5.25919 8.5802C5.58149 8.5802 5.88698 8.41643 6.056 8.12143C6.30901 7.68365 6.16098 7.11884 5.72321 6.86584L4.47812 6.14881C5.1479 5.20397 5.97622 4.37566 6.92631 3.70587L7.64333 4.94571C7.81236 5.24071 8.1231 5.40449 8.44015 5.40449C8.59342 5.40449 8.75194 5.36774 8.89892 5.28271C9.33669 5.0297 9.48472 4.46489 9.23172 4.02712L8.51469 2.78728C9.54877 2.30751 10.6721 1.99047 11.8594 1.88548V3.32584C11.8594 3.83185 12.271 4.24338 12.777 4.24338C13.283 4.24338 13.6945 3.83185 13.6945 3.32584V1.88548C16.739 2.15949 19.3972 3.78461 21.0695 6.14776L19.8297 6.86479C19.3919 7.1178 19.2386 7.6826 19.4916 8.12038C19.6607 8.41538 19.9714 8.57915 20.2884 8.57915C20.447 8.57915 20.6045 8.54241 20.7472 8.45737L21.9871 7.73929C22.4668 8.77337 22.7839 9.89773 22.8889 11.0788H21.4485C20.9425 11.0788 20.531 11.4903 20.531 11.9974C20.531 12.5044 20.9425 12.9149 21.4485 12.9149H22.8889C22.8259 13.6225 22.6883 14.308 22.4826 14.9673C23.0579 15.2256 23.6111 15.5111 24.1497 15.8166C24.5507 14.6188 24.7722 13.3317 24.7722 11.9974C24.7722 5.38139 19.3909 0 12.7759 0L12.778 0.00105085Z" fill="#8E93A1"/>
<path d="M1.89453 17.0512C3.80416 21.156 7.96671 24.0042 12.778 24.0042C17.5894 24.0042 21.7519 21.1497 23.6563 17.0459C20.5803 15.2623 16.8293 14.2188 12.778 14.2188C8.72678 14.2188 4.97051 15.2633 1.89453 17.0512ZM15.6693 18.9555C15.6693 19.4679 15.2577 19.8741 14.7517 19.8741H10.8002C10.2942 19.8741 9.88263 19.4679 9.88263 18.9555C9.88263 18.4432 10.2942 18.038 10.8002 18.038H14.7517C15.2577 18.038 15.6693 18.4495 15.6693 18.9555Z" fill="#8E93A1"/>
<path d="M27.7196 6.39093C25.9016 6.23559 26.5033 6.1313 24.6848 6.1313C24.2957 5.24844 23.5457 4.12344 22.7957 3.74844C23.2554 3.7278 23.2742 3.76489 23.7441 3.76489C25.7364 3.76489 26.2282 3.85831 28.2205 4.04515C28.9764 4.11738 29.6098 4.63662 29.8445 5.36278L31.6529 10.4698H33.3587C33.6757 10.4698 33.9307 10.7295 33.9307 11.0407V12.4007C33.9307 12.7119 33.6751 12.9715 33.3587 12.9715H32.5413C32.7151 13.4804 32.8065 14.0094 32.8065 14.539V19.4489C32.8065 19.885 32.5205 20.2483 32.1324 20.3727V23.04C32.1324 23.569 31.7138 24.0057 31.1825 24.0057H29.3639C29.1902 24.0057 29.0368 23.9536 28.9042 23.8808C28.8224 23.839 28.7508 23.7868 28.6898 23.7255C28.6487 23.6733 28.6081 23.6315 28.5669 23.5799C28.4648 23.4246 28.414 23.2372 28.414 23.04V20.4135H22.7957C25.4074 17.4764 26.1707 13.5057 25.7957 11.3524H29.4767L27.7191 6.39038L27.7196 6.39093ZM29.2014 14.9751H27.0151C26.5249 14.9751 26.1261 15.3803 26.1261 15.8783V16.5116C26.1261 17.0097 26.5249 17.4148 27.0151 17.4148H29.2014C29.6916 17.4148 30.0899 17.0097 30.0899 16.5116V15.8783C30.0899 15.3803 29.6916 14.9751 29.2014 14.9751Z" fill="#BCBFC7"/>
</svg>
