<svg width="25" height="24" viewBox="0 0 25 24" fill="none" xmlns="http://www.w3.org/2000/svg">
<path d="M24.5871 5.87347L21.3356 2.56141C21.1729 2.40936 20.9699 2.32749 20.7466 2.32749C20.5233 2.32749 20.3096 2.40936 20.1575 2.56141C19.8322 2.88676 19.8322 3.4152 20.1575 3.74056L21.2856 4.87826V7.19511C21.2856 7.27591 21.3165 7.34715 21.3664 7.38862L23.1751 9.09516V14.1148C23.1751 14.572 22.7997 14.9474 22.3415 14.9474C21.8832 14.9474 21.5079 14.571 21.5079 14.1148C21.5079 12.5189 20.2075 11.2185 18.5605 11.2185H18.3574V0.822965C18.3574 0.365762 17.981 0 17.5238 0H6.37655C5.91935 0 5.54297 0.365762 5.54297 0.822965V10.9644C6.09161 11.1781 6.55944 11.5736 6.86353 12.0819C8.1033 14.1244 10.1756 17.8639 10.1756 19.967C10.1756 20.8304 9.98208 21.6544 9.61631 22.3955H18.8019C19.4622 22.3955 20.0108 21.8565 20.0108 21.1866C20.0108 20.5167 19.4622 19.9766 18.8019 19.9766H18.3542V12.874H18.6083C19.2888 12.874 19.8481 13.4322 19.8481 14.1138C19.8481 15.4854 20.9656 16.5933 22.3372 16.5933C23.7088 16.5933 24.8263 15.4854 24.8263 14.1138V6.46146C24.8263 6.23817 24.7444 6.02445 24.5828 5.87241L24.5871 5.87347ZM16.7019 8.17969H7.20058V1.65657H16.7019V8.17969ZM23.174 8.17969L21.9853 7.05157V5.59809L23.174 6.81765V8.17863V8.17969Z" fill="#1D2742"/>
<path d="M4.51663 12.3828C4.1381 12.3828 3.77552 12.5944 3.57882 12.9272C2.85155 14.1234 0.492188 18.1765 0.492188 19.9618C0.492188 22.1872 2.30716 24.0011 4.51663 24.0011C6.72609 24.0011 8.55597 22.1861 8.55597 19.9618C8.55597 18.1765 6.19658 14.1223 5.47037 12.9272C5.2726 12.5933 4.91003 12.3828 4.51663 12.3828ZM4.08919 18.3786C4.05304 18.4392 3.18862 19.8703 3.81276 20.7986C3.92546 20.9602 3.96585 21.159 3.92864 21.36C3.89142 21.5545 3.77766 21.7247 3.61072 21.8384C3.48526 21.9224 3.34172 21.9649 3.19287 21.9649C2.94087 21.9649 2.70695 21.8405 2.57085 21.6332C1.38744 19.8767 2.75268 17.6896 2.82179 17.5811C2.92918 17.411 3.09504 17.2919 3.29174 17.2494C3.48738 17.2058 3.68728 17.2409 3.85528 17.3461C4.02434 17.4525 4.14131 17.6173 4.1849 17.814C4.2285 18.0085 4.19445 18.2095 4.08813 18.3786H4.08919Z" fill="#74C044"/>
</svg>
