<svg width="26" height="24" viewBox="0 0 26 24" fill="none" xmlns="http://www.w3.org/2000/svg">
<path d="M24.8151 5.87347L21.5636 2.56141C21.401 2.40936 21.1979 2.32749 20.9746 2.32749C20.7513 2.32749 20.5376 2.40936 20.3856 2.56141C20.0602 2.88676 20.0602 3.4152 20.3856 3.74056L21.5137 4.87826V7.19511C21.5137 7.27591 21.5445 7.34715 21.5945 7.38862L23.4031 9.09516V14.1148C23.4031 14.572 23.0278 14.9474 22.5695 14.9474C22.1112 14.9474 21.7359 14.571 21.7359 14.1148C21.7359 12.5189 20.4355 11.2185 18.7885 11.2185H18.5854V0.822965C18.5854 0.365762 18.2091 0 17.7518 0H6.60458C6.14737 0 5.771 0.365762 5.771 0.822965V10.9644C6.31964 11.1781 6.78747 11.5736 7.09156 12.0819C8.33133 14.1244 10.4036 17.8639 10.4036 19.967C10.4036 20.8304 10.2101 21.6544 9.84434 22.3955H19.0299C19.6902 22.3955 20.2388 21.8565 20.2388 21.1866C20.2388 20.5167 19.6902 19.9766 19.0299 19.9766H18.5823V12.874H18.8364C19.5169 12.874 20.0761 13.4322 20.0761 14.1138C20.0761 15.4854 21.1936 16.5933 22.5652 16.5933C23.9369 16.5933 25.0543 15.4854 25.0543 14.1138V6.46146C25.0543 6.23817 24.9725 6.02445 24.8108 5.87241L24.8151 5.87347ZM16.9299 8.17969H7.42861V1.65657H16.9299V8.17969ZM23.402 8.17969L22.2133 7.05157V5.59809L23.402 6.81765V8.17863V8.17969Z" fill="#8E93A1"/>
<path d="M4.74465 12.3828C4.36613 12.3828 4.00355 12.5944 3.80685 12.9272C3.07957 14.1234 0.720215 18.1765 0.720215 19.9618C0.720215 22.1872 2.53519 24.0011 4.74465 24.0011C6.95412 24.0011 8.78399 22.1861 8.78399 19.9618C8.78399 18.1765 6.42461 14.1223 5.6984 12.9272C5.50063 12.5933 5.13806 12.3828 4.74465 12.3828ZM4.31722 18.3786C4.28107 18.4392 3.41665 19.8703 4.04079 20.7986C4.15349 20.9602 4.19388 21.159 4.15667 21.36C4.11945 21.5545 4.00568 21.7247 3.83875 21.8384C3.71329 21.9224 3.56975 21.9649 3.4209 21.9649C3.1689 21.9649 2.93497 21.8405 2.79888 21.6332C1.61546 19.8767 2.9807 17.6896 3.04982 17.5811C3.15721 17.411 3.32307 17.2919 3.51977 17.2494C3.71541 17.2058 3.91531 17.2409 4.08331 17.3461C4.25237 17.4525 4.36933 17.6173 4.41293 17.814C4.45652 18.0085 4.42248 18.2095 4.31615 18.3786H4.31722Z" fill="#BCBFC7"/>
</svg>
