<svg width="24" height="24" viewBox="0 0 24 24" fill="none" xmlns="http://www.w3.org/2000/svg">
<path d="M11.6256 13.6521C11.6226 13.6521 11.6191 13.6521 11.6161 13.6521C11.1739 13.6468 10.8189 13.2841 10.8243 12.8413L10.8445 11.12C10.8498 10.6807 11.2071 10.3281 11.6458 10.3281C11.6488 10.3281 11.6523 10.3281 11.6553 10.3281C12.0981 10.3335 12.4525 10.6961 12.4471 11.1389L12.4269 12.8603C12.4216 13.2996 12.0643 13.6521 11.6256 13.6521Z" fill="#8E93A1"/>
<path d="M0.545898 11.6559C1.12819 11.3876 2.32839 10.9353 3.85922 11.0759C4.77273 11.1602 5.50046 11.4273 5.98838 11.6559C6.57127 11.406 7.63198 11.0421 8.99483 11.0759C10.1695 11.105 11.0907 11.4178 11.6451 11.6559C12.1716 11.4018 13.1961 10.994 14.5442 10.9934C15.8951 10.9934 16.9208 11.4024 17.4479 11.6559C18.0273 11.403 19.1123 11.0213 20.5078 11.0759C21.6154 11.1193 22.4856 11.4208 23.0216 11.6559C22.8874 10.648 22.3532 7.59523 19.7623 5.0298C16.5178 1.81737 12.4631 1.74792 11.6451 1.75089C10.9613 1.7408 6.15399 1.75089 2.94809 5.60972C0.974457 7.9858 0.627218 10.594 0.545898 11.6559Z" fill="#8E93A1"/>
<path d="M5.92903 12.3732C5.49869 12.3732 5.14254 12.0313 5.12889 11.598C5.06538 9.64159 5.39007 7.72435 6.09345 5.8997C6.77369 4.1356 7.77623 2.54304 9.07379 1.16594C9.3771 0.843632 9.88461 0.828796 10.2063 1.13211C10.5286 1.43543 10.5435 1.94293 10.2402 2.26465C9.08565 3.49038 8.19351 4.90725 7.58866 6.47606C6.96303 8.0989 6.67397 9.80482 6.73095 11.5458C6.7452 11.988 6.39854 12.3584 5.95633 12.3726C5.94743 12.3726 5.93853 12.3726 5.92962 12.3726L5.92903 12.3732Z" fill="#F7F9FC"/>
<path d="M17.4419 12.4495C17.0044 12.4495 16.6465 12.0975 16.6406 11.6589L16.6394 11.5651C16.6245 10.4065 16.6026 8.65482 15.8648 6.71501C15.1097 4.7301 13.9066 3.31977 13.1878 2.47749C12.9005 2.14093 12.9408 1.6352 13.2774 1.34791C13.6139 1.06062 14.1197 1.10099 14.407 1.43754C15.1418 2.29823 16.5088 3.90087 17.3624 6.14518C18.2011 8.3509 18.2254 10.2729 18.2414 11.5449L18.2426 11.6375C18.2486 12.0797 17.8942 12.4436 17.452 12.4495C17.4484 12.4495 17.4449 12.4495 17.4413 12.4495H17.4419Z" fill="#F7F9FC"/>
<path d="M11.7281 4.00484C11.2853 4.00484 10.9268 3.64633 10.9268 3.20352V0.801325C10.9268 0.358519 11.2853 0 11.7281 0C12.1709 0 12.5294 0.358519 12.5294 0.801325V3.20352C12.5294 3.64633 12.1709 4.00484 11.7281 4.00484Z" fill="#8E93A1"/>
<path d="M11.6669 13.8594C12.2278 14.4102 13.0921 15.1296 14.2905 15.7113C15.1298 16.1185 15.9056 16.3482 16.5283 16.483C16.6132 16.9454 16.9556 19.0834 15.6023 21.1894C14.2353 23.318 12.1174 23.8884 11.6669 23.9988C11.0994 23.838 9.25759 23.2384 7.92442 21.3823C6.38825 19.2437 6.6233 16.962 6.68978 16.4444C7.427 16.2942 8.44438 16.0034 9.54486 15.4027C10.4708 14.8975 11.1719 14.3277 11.6669 13.8594Z" fill="#BCBFC7"/>
<path d="M11.6497 21.7782L9.10625 19.6419C8.76732 19.357 8.72338 18.8518 9.0083 18.5129C9.29322 18.174 9.79835 18.1301 10.1373 18.415L11.4521 19.519L13.3289 17.2789C13.6133 16.9393 14.1184 16.8954 14.4579 17.1791C14.7968 17.4635 14.842 17.9686 14.5576 18.3081L11.6503 21.7782H11.6497Z" fill="#F7F9FC"/>
</svg>
