<svg width="23" height="24" viewBox="0 0 23 24" fill="none" xmlns="http://www.w3.org/2000/svg">
<path d="M11.3756 13.6521C11.3726 13.6521 11.3691 13.6521 11.3661 13.6521C10.9239 13.6468 10.5689 13.2841 10.5743 12.8413L10.5945 11.12C10.5998 10.6807 10.9571 10.3281 11.3958 10.3281C11.3988 10.3281 11.4023 10.3281 11.4053 10.3281C11.8481 10.3335 12.2025 10.6961 12.1971 11.1389L12.1769 12.8603C12.1716 13.2996 11.8143 13.6521 11.3756 13.6521Z" fill="#1D2742"/>
<path d="M0.295898 11.6559C0.878195 11.3876 2.07839 10.9353 3.60922 11.0759C4.52273 11.1602 5.25046 11.4273 5.73838 11.6559C6.32127 11.406 7.38198 11.0421 8.74483 11.0759C9.91951 11.105 10.8407 11.4178 11.3951 11.6559C11.9216 11.4018 12.9461 10.994 14.2942 10.9934C15.6451 10.9934 16.6708 11.4024 17.1979 11.6559C17.7773 11.403 18.8623 11.0213 20.2578 11.0759C21.3654 11.1193 22.2356 11.4208 22.7716 11.6559C22.6374 10.648 22.1032 7.59523 19.5123 5.0298C16.2678 1.81737 12.2131 1.74792 11.3951 1.75089C10.7113 1.7408 5.90399 1.75089 2.69809 5.60972C0.724457 7.9858 0.377218 10.594 0.295898 11.6559Z" fill="#1D2742"/>
<path d="M5.67903 12.3732C5.24869 12.3732 4.89254 12.0313 4.87889 11.598C4.81538 9.64159 5.14007 7.72435 5.84345 5.8997C6.52369 4.1356 7.52623 2.54304 8.82379 1.16594C9.1271 0.843632 9.63461 0.828796 9.95633 1.13211C10.2786 1.43543 10.2935 1.94293 9.99015 2.26465C8.83565 3.49038 7.94351 4.90725 7.33866 6.47606C6.71303 8.0989 6.42397 9.80482 6.48095 11.5458C6.4952 11.988 6.14854 12.3584 5.70633 12.3726C5.69743 12.3726 5.68853 12.3726 5.67962 12.3726L5.67903 12.3732Z" fill="#F7F9FC"/>
<path d="M17.1919 12.4495C16.7544 12.4495 16.3965 12.0975 16.3906 11.6589L16.3894 11.5651C16.3745 10.4065 16.3526 8.65482 15.6148 6.71501C14.8597 4.7301 13.6566 3.31977 12.9378 2.47749C12.6505 2.14093 12.6908 1.6352 13.0274 1.34791C13.3639 1.06062 13.8697 1.10099 14.157 1.43754C14.8918 2.29823 16.2588 3.90087 17.1124 6.14518C17.9511 8.3509 17.9754 10.2729 17.9914 11.5449L17.9926 11.6375C17.9986 12.0797 17.6442 12.4436 17.202 12.4495C17.1984 12.4495 17.1949 12.4495 17.1913 12.4495H17.1919Z" fill="#F7F9FC"/>
<path d="M11.4781 4.00484C11.0353 4.00484 10.6768 3.64633 10.6768 3.20352V0.801325C10.6768 0.358519 11.0353 0 11.4781 0C11.9209 0 12.2794 0.358519 12.2794 0.801325V3.20352C12.2794 3.64633 11.9209 4.00484 11.4781 4.00484Z" fill="#1D2742"/>
<path d="M11.4169 13.8594C11.9778 14.4102 12.8421 15.1296 14.0405 15.7113C14.8798 16.1185 15.6556 16.3482 16.2783 16.483C16.3632 16.9454 16.7056 19.0834 15.3523 21.1894C13.9853 23.318 11.8674 23.8884 11.4169 23.9988C10.8494 23.838 9.00759 23.2384 7.67442 21.3823C6.13825 19.2437 6.3733 16.962 6.43978 16.4444C7.177 16.2942 8.19438 16.0034 9.29486 15.4027C10.2208 14.8975 10.9219 14.3277 11.4169 13.8594Z" fill="#74C044"/>
<path d="M11.3997 21.7782L8.85625 19.6419C8.51732 19.357 8.47338 18.8518 8.7583 18.5129C9.04322 18.174 9.54835 18.1301 9.88728 18.415L11.2021 19.519L13.0789 17.2789C13.3633 16.9393 13.8684 16.8954 14.2079 17.1791C14.5468 17.4635 14.592 17.9686 14.3076 18.3081L11.4003 21.7782H11.3997Z" fill="#F7F9FC"/>
</svg>
