<svg width="33" height="25" viewBox="0 0 33 25" fill="none" xmlns="http://www.w3.org/2000/svg">
<path d="M26.9155 5.00578C25.3672 4.87349 25.5039 4.78467 23.9551 4.78467C23.6237 4.03279 22.985 3.07469 22.3462 2.75532C22.7378 2.73775 23.1296 2.76933 23.5298 2.76933C25.2265 2.76933 25.6453 2.84889 27.3421 3.00801C27.9858 3.06953 28.5253 3.51173 28.7251 4.13017L30.2652 8.47955H31.718C31.9879 8.47955 32.2051 8.70065 32.2051 8.96569V10.1239C32.2051 10.389 31.9875 10.6101 31.718 10.6101H31.0219C31.1698 11.0435 31.2477 11.494 31.2477 11.945V16.1265C31.2477 16.4979 31.0041 16.8073 30.6736 16.9133V19.1849C30.6736 19.6354 30.3171 20.0073 29.8646 20.0073H28.3158C28.1679 20.0073 28.0372 19.9629 27.9243 19.9009C27.8547 19.8653 27.7937 19.8209 27.7418 19.7686C27.7067 19.7242 27.6721 19.6886 27.6371 19.6446C27.5501 19.5124 27.5069 19.3528 27.5069 19.1849V16.948H22.722C24.9463 14.4467 25.5963 11.065 25.277 9.2312H28.4119L26.9155 5.00578ZM28.1774 12.3164H26.3155C25.898 12.3164 25.5584 12.6615 25.5584 13.0856V13.625C25.5584 14.0491 25.898 14.3942 26.3155 14.3942H28.1774C28.5949 14.3942 28.9341 14.0491 28.9341 13.625V13.0856C28.9341 12.6615 28.5949 12.3164 28.1774 12.3164Z" fill="#74C044"/>
<path fill-rule="evenodd" clip-rule="evenodd" d="M7.47789 15.7803C6.24841 14.179 5.51758 12.1749 5.51758 10C5.51758 4.75329 9.77087 0.5 15.0176 0.5C20.2643 0.5 24.5176 4.75329 24.5176 10C24.5176 15.2467 20.2643 19.5 15.0176 19.5C12.7983 19.5 10.7568 18.739 9.13966 17.4637L8.01398 18.5982C8.26307 19.1057 8.17966 19.7156 7.7649 20.1315L3.83935 24.057C3.55266 24.3425 3.16493 24.5 2.75839 24.5C2.35186 24.5 1.97353 24.3425 1.68684 24.057L0.873753 23.244C0.282749 22.6529 0.282749 21.6918 0.873753 21.1008L4.79931 17.1753L4.80049 17.1729C5.04958 16.9144 5.39146 16.7758 5.74277 16.7758C5.95544 16.7758 6.15872 16.831 6.34319 16.9238L7.47789 15.7803ZM15.0176 17.2314C19.0114 17.2314 22.249 13.9938 22.249 10C22.249 6.00622 19.0114 2.76862 15.0176 2.76862C11.0238 2.76862 7.7862 6.00622 7.7862 10C7.7862 13.9938 11.0238 17.2314 15.0176 17.2314Z" fill="#1D2742"/>
<path d="M15.1218 15.499C15.7587 15.499 16.2807 14.977 16.2807 14.3401V9.52607C16.2807 8.88795 15.7587 8.36719 15.1218 8.36719C14.4849 8.36719 13.9629 8.88795 13.9629 9.52607V14.3401C13.9629 14.977 14.4849 15.499 15.1218 15.499Z" fill="#1D2742"/>
<path d="M15.1221 7.14784C15.9021 7.14784 16.5353 6.51461 16.5353 5.73469C16.5353 4.95477 15.9021 4.32031 15.1221 4.32031C14.3422 4.32031 13.709 4.95354 13.709 5.73469C13.709 6.51584 14.341 7.14784 15.1221 7.14784Z" fill="#1D2742"/>
</svg>
