<svg width="33" height="25" viewBox="0 0 33 25" fill="none" xmlns="http://www.w3.org/2000/svg">
<path d="M27.4155 5.00578C25.8672 4.87349 26.0039 4.78467 24.4551 4.78467C24.1237 4.03279 23.485 3.07469 22.8462 2.75532C23.2378 2.73775 23.6296 2.76933 24.0298 2.76933C25.7265 2.76933 26.1453 2.84889 27.8421 3.00801C28.4858 3.06953 29.0253 3.51173 29.2251 4.13017L30.7652 8.47955H32.218C32.4879 8.47955 32.7051 8.70065 32.7051 8.96569V10.1239C32.7051 10.389 32.4875 10.6101 32.218 10.6101H31.5219C31.6698 11.0435 31.7477 11.494 31.7477 11.945V16.1265C31.7477 16.4979 31.5041 16.8073 31.1736 16.9133V19.1849C31.1736 19.6354 30.8171 20.0073 30.3646 20.0073H28.8158C28.6679 20.0073 28.5372 19.9629 28.4243 19.9009C28.3547 19.8653 28.2937 19.8209 28.2418 19.7686C28.2067 19.7242 28.1721 19.6886 28.1371 19.6446C28.0501 19.5124 28.0069 19.3528 28.0069 19.1849V16.948H23.222C25.4463 14.4467 26.0963 11.065 25.777 9.2312H28.9119L27.4155 5.00578ZM28.6774 12.3164H26.8155C26.398 12.3164 26.0584 12.6615 26.0584 13.0856V13.625C26.0584 14.0491 26.398 14.3942 26.8155 14.3942H28.6774C29.0949 14.3942 29.4341 14.0491 29.4341 13.625V13.0856C29.4341 12.6615 29.0949 12.3164 28.6774 12.3164Z" fill="#BCBFC7"/>
<path fill-rule="evenodd" clip-rule="evenodd" d="M7.97789 15.7803C6.74841 14.179 6.01758 12.1749 6.01758 10C6.01758 4.75329 10.2709 0.5 15.5176 0.5C20.7643 0.5 25.0176 4.75329 25.0176 10C25.0176 15.2467 20.7643 19.5 15.5176 19.5C13.2983 19.5 11.2568 18.739 9.63966 17.4637L8.51398 18.5982C8.76307 19.1057 8.67966 19.7156 8.2649 20.1315L4.33935 24.057C4.05266 24.3425 3.66493 24.5 3.25839 24.5C2.85186 24.5 2.47353 24.3425 2.18684 24.057L1.37375 23.244C0.782749 22.6529 0.782749 21.6918 1.37375 21.1008L5.29931 17.1753L5.30049 17.1729C5.54958 16.9144 5.89146 16.7758 6.24277 16.7758C6.45544 16.7758 6.65872 16.831 6.84319 16.9238L7.97789 15.7803ZM15.5176 17.2314C19.5114 17.2314 22.749 13.9938 22.749 10C22.749 6.00622 19.5114 2.76862 15.5176 2.76862C11.5238 2.76862 8.2862 6.00622 8.2862 10C8.2862 13.9938 11.5238 17.2314 15.5176 17.2314Z" fill="#8E93A1"/>
<path d="M15.6218 15.499C16.2587 15.499 16.7807 14.977 16.7807 14.3401V9.52607C16.7807 8.88795 16.2587 8.36719 15.6218 8.36719C14.9849 8.36719 14.4629 8.88795 14.4629 9.52607V14.3401C14.4629 14.977 14.9849 15.499 15.6218 15.499Z" fill="#8E93A1"/>
<path d="M15.6221 7.14784C16.4021 7.14784 17.0353 6.51461 17.0353 5.73469C17.0353 4.95477 16.4021 4.32031 15.6221 4.32031C14.8422 4.32031 14.209 4.95354 14.209 5.73469C14.209 6.51584 14.841 7.14784 15.6221 7.14784Z" fill="#8E93A1"/>
</svg>
