<svg width="24" height="24" viewBox="0 0 24 24" fill="none" xmlns="http://www.w3.org/2000/svg">
<path d="M6.80896 5.37175C8.57619 5.22313 10.3637 5.14311 12.1314 5.14311C12.6479 5.14311 13.1743 5.1535 13.7007 5.16286C13.5417 4.63648 13.4622 4.08049 13.4622 3.50475C13.4622 3.29638 13.4721 3.08749 13.4918 2.87912C13.0449 2.85938 12.5882 2.85938 12.1314 2.85938C10.1948 2.85938 8.2587 2.94875 6.32207 3.1275C5.58733 3.19661 4.97158 3.69337 4.74347 4.3881L2.98558 9.27411H1.32748C1.01934 9.27411 0.771484 9.52249 0.771484 9.82023V11.1214C0.771484 11.4191 1.01986 11.6675 1.32748 11.6675H2.12198C1.9531 12.1544 1.86425 12.6605 1.86425 13.1671V17.8645C1.86425 18.2817 2.14224 18.6294 2.51949 18.7484V21.3002C2.51949 21.8063 2.92635 22.2241 3.44285 22.2241H5.21061C5.37948 22.2241 5.52862 22.1742 5.65749 22.1046C5.73699 22.0646 5.80662 22.0147 5.86585 21.956C5.90587 21.9061 5.94535 21.8661 5.98536 21.8167C6.08461 21.6681 6.13397 21.4888 6.13397 21.3002V18.7873H13.7111C14.0088 17.7647 14.5747 16.8315 15.3692 16.0962V10.1185H5.10096L6.80948 5.37123L6.80896 5.37175ZM5.36857 13.5844H7.49382C7.97031 13.5844 8.35796 13.972 8.35796 14.4485V15.0544C8.35796 15.5309 7.97031 15.9185 7.49382 15.9185H5.36857C4.89208 15.9185 4.50496 15.5309 4.50496 15.0544V14.4485C4.50496 13.972 4.89208 13.5844 5.36857 13.5844Z" fill="hsl(var(--icon-light))"/>
<path d="M21.5876 17.0704V6.92943C22.7313 6.21962 23.4915 4.95382 23.4915 3.51084C23.4915 2.06785 22.6939 0.739176 21.5035 0.0397652C21.3065 -0.0755908 21.0581 0.0745802 21.0581 0.303214V2.59838C21.0581 3.40535 20.4829 4.12659 19.6832 4.23311C18.7152 4.36094 17.8807 3.60281 17.8807 2.65866V0.303734C17.8807 0.0751003 17.6323 -0.0750707 17.4353 0.0402853C16.2449 0.739696 15.4473 2.03147 15.4473 3.51136C15.4473 4.99124 16.2075 6.22014 17.3512 6.92995V17.0709C16.2075 17.7802 15.4473 19.046 15.4473 20.4889C15.4473 21.9319 16.2449 23.2611 17.4353 23.96C17.6323 24.0759 17.8807 23.9252 17.8807 23.6966V21.4009C17.8807 20.5944 18.4564 19.8732 19.2556 19.7667C20.2236 19.6388 21.0576 20.3975 21.0576 21.3416V23.6961C21.0576 23.9247 21.306 24.0754 21.5029 23.9595C22.6934 23.2606 23.491 21.9683 23.491 20.4884C23.491 19.0085 22.7313 17.7796 21.5871 17.0704H21.5876Z" fill="hsl(var(--icon-dark))"/>
</svg>
