<svg width="23" height="24" viewBox="0 0 23 24" fill="none" xmlns="http://www.w3.org/2000/svg">
<path d="M6.03748 5.37175C7.80471 5.22313 9.59221 5.14311 11.36 5.14311C11.8765 5.14311 12.4028 5.1535 12.9292 5.16286C12.7702 4.63648 12.6907 4.08049 12.6907 3.50475C12.6907 3.29638 12.7006 3.08749 12.7203 2.87912C12.2735 2.85938 11.8167 2.85938 11.36 2.85938C9.42333 2.85938 7.48722 2.94875 5.55059 3.1275C4.81584 3.19661 4.2001 3.69337 3.97198 4.3881L2.2141 9.27411H0.555992C0.247857 9.27411 0 9.52249 0 9.82023V11.1214C0 11.4191 0.248376 11.6675 0.555992 11.6675H1.3505C1.18162 12.1544 1.09277 12.6605 1.09277 13.1671V17.8645C1.09277 18.2817 1.37076 18.6294 1.748 18.7484V21.3002C1.748 21.8063 2.15487 22.2241 2.67137 22.2241H4.43912C4.608 22.2241 4.75714 22.1742 4.886 22.1046C4.9655 22.0646 5.03513 22.0147 5.09437 21.956C5.13438 21.9061 5.17386 21.8661 5.21387 21.8167C5.31312 21.6681 5.36249 21.4888 5.36249 21.3002V18.7873H12.9396C13.2374 17.7647 13.8032 16.8315 14.5977 16.0962V10.1185H4.32948L6.038 5.37123L6.03748 5.37175ZM4.59709 13.5844H6.72234C7.19883 13.5844 7.58647 13.972 7.58647 14.4485V15.0544C7.58647 15.5309 7.19883 15.9185 6.72234 15.9185H4.59709C4.1206 15.9185 3.73347 15.5309 3.73347 15.0544V14.4485C3.73347 13.972 4.1206 13.5844 4.59709 13.5844Z" fill="#8E93A1"/>
<path d="M20.8161 17.0704V6.92943C21.9598 6.21962 22.72 4.95382 22.72 3.51084C22.72 2.06785 21.9224 0.739176 20.732 0.0397652C20.535 -0.0755908 20.2867 0.0745802 20.2867 0.303214V2.59838C20.2867 3.40535 19.7114 4.12659 18.9117 4.23311C17.9437 4.36094 17.1092 3.60281 17.1092 2.65866V0.303734C17.1092 0.0751003 16.8608 -0.0750707 16.6639 0.0402853C15.4734 0.739696 14.6758 2.03147 14.6758 3.51136C14.6758 4.99124 15.436 6.22014 16.5797 6.92995V17.0709C15.436 17.7802 14.6758 19.046 14.6758 20.4889C14.6758 21.9319 15.4734 23.2611 16.6639 23.96C16.8608 24.0759 17.1092 23.9252 17.1092 23.6966V21.4009C17.1092 20.5944 17.6849 19.8732 18.4841 19.7667C19.4521 19.6388 20.2861 20.3975 20.2861 21.3416V23.6961C20.2861 23.9247 20.5345 24.0754 20.7315 23.9595C21.9219 23.2606 22.7195 21.9683 22.7195 20.4884C22.7195 19.0085 21.9598 17.7796 20.8156 17.0704H20.8161Z" fill="#BCBFC7"/>
</svg>
