<svg width="36" height="24" viewBox="0 0 36 24" fill="none" xmlns="http://www.w3.org/2000/svg">
<path d="M32.047 15.5493C32.3481 15.9832 32.9515 16.0923 33.3876 15.7879C33.8237 15.4835 33.9305 14.8833 33.6261 14.4472L32.0005 12.1179C31.8181 11.8567 31.5191 11.7034 31.2018 11.7066L18.5263 12.2204L18.4076 9.97634C18.3417 8.72531 17.5624 7.62431 16.4063 7.14398L13.3289 5.86812L14.2562 3.63159L16.7669 4.67322C17.258 4.87722 17.8214 4.64407 18.0254 4.15294C18.2294 3.66181 17.9963 3.09836 17.5052 2.89435L10.7038 0.0738599C10.2127 -0.130148 9.64924 0.103004 9.44523 0.594134C9.24123 1.08526 9.47439 1.64872 9.96552 1.85272L12.4762 2.89435L11.549 5.13088L4.29431 2.12258C2.96771 1.57208 1.44683 2.20245 0.896334 3.52904L0.230348 5.1352C-0.32015 6.46179 0.310227 7.98376 1.63682 8.53318L3.70711 9.3913L2.94613 11.2274C2.42046 12.4957 3.02168 13.9507 4.29106 14.4764L13.8989 18.4605C14.9092 18.8793 16.0491 18.8555 17.041 18.3946L27.2058 13.6744L30.7128 13.6377L32.047 15.5493ZM4.44652 7.61136L2.3762 6.75323C2.03295 6.61075 1.86889 6.21569 2.01137 5.87136L2.67736 4.2652C2.81984 3.92195 3.21489 3.75788 3.55814 3.90036L5.62846 4.75849L4.44652 7.61028V7.61136Z" fill="#1D2742"/>
<path d="M33.2883 17.5272C33.2203 17.4322 33.1112 17.375 32.9947 17.375C32.8781 17.375 32.769 17.4322 32.701 17.5272C32.496 17.8176 30.6934 20.4049 30.6934 21.6937C30.6934 22.9825 31.7264 23.995 32.9947 23.995C34.263 23.995 35.2959 22.9631 35.2959 21.6937C35.2959 20.4243 33.4933 17.8176 33.2893 17.5272H33.2883Z" fill="#74C044"/>
</svg>
