<svg width="36" height="24" viewBox="0 0 36 24" fill="none" xmlns="http://www.w3.org/2000/svg">
<path d="M32.297 15.5493C32.5981 15.9832 33.2015 16.0923 33.6376 15.7879C34.0737 15.4835 34.1805 14.8833 33.8761 14.4472L32.2505 12.1179C32.0681 11.8567 31.7691 11.7034 31.4518 11.7066L18.7763 12.2204L18.6576 9.97634C18.5917 8.72531 17.8124 7.62431 16.6563 7.14398L13.5789 5.86812L14.5062 3.63159L17.0169 4.67322C17.508 4.87722 18.0714 4.64407 18.2754 4.15294C18.4794 3.66181 18.2463 3.09836 17.7552 2.89435L10.9538 0.0738599C10.4627 -0.130148 9.89924 0.103004 9.69523 0.594134C9.49123 1.08526 9.72439 1.64872 10.2155 1.85272L12.7262 2.89435L11.799 5.13088L4.54431 2.12258C3.21771 1.57208 1.69683 2.20245 1.14633 3.52904L0.480348 5.1352C-0.0701497 6.46179 0.560227 7.98376 1.88682 8.53318L3.95711 9.3913L3.19613 11.2274C2.67046 12.4957 3.27168 13.9507 4.54106 14.4764L14.1489 18.4605C15.1592 18.8793 16.2991 18.8555 17.291 18.3946L27.4558 13.6744L30.9628 13.6377L32.297 15.5493ZM4.69652 7.61136L2.6262 6.75323C2.28295 6.61075 2.11889 6.21569 2.26137 5.87136L2.92736 4.2652C3.06984 3.92195 3.46489 3.75788 3.80814 3.90036L5.87846 4.75849L4.69652 7.61028V7.61136Z" fill="#8E93A1"/>
<path d="M33.5383 17.5272C33.4703 17.4322 33.3612 17.375 33.2447 17.375C33.1281 17.375 33.019 17.4322 32.951 17.5272C32.746 17.8176 30.9434 20.4049 30.9434 21.6937C30.9434 22.9825 31.9764 23.995 33.2447 23.995C34.513 23.995 35.5459 22.9631 35.5459 21.6937C35.5459 20.4243 33.7433 17.8176 33.5393 17.5272H33.5383Z" fill="#BCBFC7"/>
</svg>
