<svg width="28" height="25" viewBox="0 0 28 25" fill="none" xmlns="http://www.w3.org/2000/svg">
<path d="M6.46848 8.04701C8.22294 7.90189 7.4469 7.82375 9.20188 7.82375C9.20188 6.24579 9.20188 7.22384 9.20188 5.59375C7.27924 5.59375 7.90774 5.68102 5.9851 5.85557C5.25566 5.92305 4.64437 6.40812 4.4179 7.08651L2.67272 11.8575H1.02659C0.720676 11.8575 0.474609 12.1001 0.474609 12.3908V13.6613C0.474609 13.9521 0.721192 14.1946 1.02659 14.1946H1.81535C1.64769 14.67 1.55948 15.1642 1.55948 15.6589V20.2458C1.55948 20.6532 1.83546 20.9927 2.20998 21.1089V23.6007C2.20998 24.0949 2.61391 24.5028 3.12668 24.5028H4.88167C5.04932 24.5028 5.19738 24.4541 5.32532 24.3861C5.40424 24.3471 5.47337 24.2984 5.53218 24.241C5.5719 24.1923 5.6111 24.1532 5.65082 24.105C5.74935 23.9599 5.79836 23.7849 5.79836 23.6007V21.1469H9.20188C9.20188 16.9145 9.20188 15.0483 9.20188 12.6821H4.77281L6.46848 8.04701ZM5.03849 16.0664H7.14839C7.62144 16.0664 8.00628 16.4449 8.00628 16.9102V17.5018C8.00628 17.9671 7.62144 18.3456 7.14839 18.3456H5.03849C4.56544 18.3456 4.18111 17.9671 4.18111 17.5018V16.9102C4.18111 16.4449 4.56544 16.0664 5.03849 16.0664Z" fill="#8E93A1"/>
<path d="M14.238 9.10156H21.8251C22.0309 9.10156 22.1977 9.26839 22.1977 9.47421V10.0962C22.1977 10.302 22.0309 10.4679 21.826 10.4679H14.238C14.0321 10.4679 13.8662 10.3011 13.8662 10.0962V9.47421C13.8662 9.26839 14.0331 9.10156 14.2389 9.10156H14.238Z" fill="#BCBFC7"/>
<path d="M14.2389 12.5781H21.8269C22.0327 12.5781 22.1986 12.745 22.1986 12.9499C21.1159 12.9499 21.215 13.9445 20.6229 13.9445C18.7479 13.9445 14.2389 13.9445 14.2389 13.9445C14.0331 13.9445 13.8662 13.7777 13.8662 13.5718V12.9499C13.8662 12.744 14.033 12.5781 14.238 12.5781H14.2389Z" fill="#BCBFC7"/>
<path d="M13.8662 16.4213V17.0424C13.8662 17.2491 14.0331 17.416 14.2398 17.416H17.3035V16.3461C17.3035 16.2427 17.3153 16.1448 17.3261 16.0469H14.2398C14.0331 16.0469 13.8662 16.2137 13.8662 16.4204V16.4213Z" fill="#BCBFC7"/>
<path d="M11.3876 20.0371V6.13311H12.8319V4.78125H11.325C10.606 4.78125 10.0303 5.36243 10.0303 6.06964V20.1006C10.0303 20.8078 10.6051 21.389 11.325 21.389H17.8541C17.6473 20.9692 17.4914 20.5204 17.3935 20.0371H11.3876Z" fill="#BCBFC7"/>
<path d="M24.635 14.572C25.1787 15.0645 25.9287 15.0163 25.9868 15.0163V6.06964C25.9868 5.36243 25.412 4.78125 24.6921 4.78125H23.1045V6.13311H24.635V14.572Z" fill="#BCBFC7"/>
<path d="M14.3565 6.59719H21.5818C21.8638 6.59719 22.0877 6.37324 22.0877 6.09126V4.03762C22.0877 3.76109 21.8629 3.5317 21.5818 3.5317H20.385C20.3215 2.2433 19.2688 1.21875 17.9687 1.21875C16.6685 1.21875 15.6158 2.2424 15.5524 3.5317H14.3555C14.079 3.5317 13.8496 3.76199 13.8496 4.03762V6.09126C13.8496 6.37324 14.0799 6.59719 14.3555 6.59719H14.3565ZM17.9687 2.72021C18.4809 2.72021 18.8953 3.13457 18.8953 3.64685C18.8953 4.15913 18.4809 4.56712 17.9687 4.56712C17.4564 4.56712 17.0429 4.15278 17.0429 3.64685C17.0429 3.14092 17.4573 2.72021 17.9687 2.72021Z" fill="#BCBFC7"/>
<path d="M26.0628 15.6819C23.6329 15.4335 22.9139 14.0735 22.8776 14.0027C22.7688 13.777 22.5395 13.6355 22.2883 13.6328C22.0372 13.6328 21.8005 13.7752 21.6863 14.0018C21.6573 14.0599 20.9428 15.4317 18.5011 15.6819C18.1638 15.7164 17.9072 16.0011 17.9072 16.3402V18.9895C17.9072 22.2844 21.8141 24.328 21.98 24.4133C22.0752 24.4622 22.1786 24.4867 22.282 24.4867C22.3853 24.4867 22.4896 24.4622 22.5839 24.4133C22.7498 24.328 26.6567 22.2835 26.6567 18.9895V16.3402C26.6567 16.0011 26.4001 15.7164 26.0628 15.6819ZM24.5006 18.508L22.2013 20.8074C22.0725 20.937 21.903 21.0014 21.7334 21.0014C21.5639 21.0014 21.3952 20.937 21.2656 20.8074L20.0633 19.6051C19.8049 19.3467 19.8049 18.9278 20.0633 18.6694C20.3217 18.411 20.7406 18.411 20.999 18.6694L21.7334 19.4039L23.5649 17.5724C23.8233 17.314 24.2422 17.314 24.5006 17.5724C24.759 17.8308 24.759 18.2496 24.5006 18.508Z" fill="#8E93A1"/>
</svg>
