<svg width="28" height="25" viewBox="0 0 28 25" fill="none" xmlns="http://www.w3.org/2000/svg">
<path d="M6.91477 8.04701C8.66923 7.90189 7.89319 7.82375 9.64817 7.82375C9.64817 6.24579 9.64817 7.22384 9.64817 5.59375C7.72553 5.59375 8.35403 5.68102 6.43139 5.85557C5.70195 5.92305 5.09066 6.40812 4.86419 7.08651L3.119 11.8575H1.47287C1.16696 11.8575 0.920898 12.1001 0.920898 12.3908V13.6613C0.920898 13.9521 1.16748 14.1946 1.47287 14.1946H2.26164C2.09398 14.67 2.00577 15.1642 2.00577 15.6589V20.2458C2.00577 20.6532 2.28175 20.9927 2.65627 21.1089V23.6007C2.65627 24.0949 3.0602 24.5028 3.57297 24.5028H5.32795C5.49561 24.5028 5.64367 24.4541 5.77161 24.3861C5.85053 24.3471 5.91966 24.2984 5.97847 24.241C6.01819 24.1923 6.05739 24.1532 6.09711 24.105C6.19564 23.9599 6.24465 23.7849 6.24465 23.6007V21.1469H9.64817C9.64817 16.9145 9.64817 15.0483 9.64817 12.6821H5.2191L6.91477 8.04701ZM5.48478 16.0664H7.59468C8.06773 16.0664 8.45257 16.4449 8.45257 16.9102V17.5018C8.45257 17.9671 8.06773 18.3456 7.59468 18.3456H5.48478C5.01173 18.3456 4.6274 17.9671 4.6274 17.5018V16.9102C4.6274 16.4449 5.01173 16.0664 5.48478 16.0664Z" fill="hsl(var(--icon-light))"/>
<path d="M14.6842 9.10156H22.2714C22.4772 9.10156 22.644 9.26839 22.644 9.47421V10.0962C22.644 10.302 22.4772 10.4679 22.2723 10.4679H14.6842C14.4784 10.4679 14.3125 10.3011 14.3125 10.0962V9.47421C14.3125 9.26839 14.4793 9.10156 14.6852 9.10156H14.6842Z" fill="hsl(var(--icon-dark))"/>
<path d="M14.6852 12.5781H22.2732C22.479 12.5781 22.6449 12.745 22.6449 12.9499C21.5621 12.9499 21.6613 13.9445 21.0692 13.9445C19.1942 13.9445 14.6852 13.9445 14.6852 13.9445C14.4793 13.9445 14.3125 13.7777 14.3125 13.5718V12.9499C14.3125 12.744 14.4793 12.5781 14.6842 12.5781H14.6852Z" fill="hsl(var(--icon-dark))"/>
<path d="M14.3125 16.4213V17.0424C14.3125 17.2491 14.4793 17.416 14.6861 17.416H17.7498V16.3461C17.7498 16.2427 17.7615 16.1448 17.7724 16.0469H14.6861C14.4793 16.0469 14.3125 16.2137 14.3125 16.4204V16.4213Z" fill="hsl(var(--icon-dark))"/>
<path d="M11.8339 20.0371V6.13311H13.2782V4.78125H11.7713C11.0523 4.78125 10.4766 5.36243 10.4766 6.06964V20.1006C10.4766 20.8078 11.0514 21.389 11.7713 21.389H18.3003C18.0936 20.9692 17.9377 20.5204 17.8397 20.0371H11.8339Z" fill="hsl(var(--icon-dark))"/>
<path d="M25.0813 14.572C25.625 15.0645 26.375 15.0163 26.4331 15.0163V6.06964C26.4331 5.36243 25.8583 4.78125 25.1384 4.78125H23.5508V6.13311H25.0813V14.572Z" fill="hsl(var(--icon-dark))"/>
<path d="M14.8027 6.59719H22.0281C22.3101 6.59719 22.534 6.37324 22.534 6.09126V4.03762C22.534 3.76109 22.3092 3.5317 22.0281 3.5317H20.8313C20.7678 2.2433 19.7151 1.21875 18.415 1.21875C17.1148 1.21875 16.0621 2.2424 15.9987 3.5317H14.8018C14.5253 3.5317 14.2959 3.76199 14.2959 4.03762V6.09126C14.2959 6.37324 14.5262 6.59719 14.8018 6.59719H14.8027ZM18.415 2.72021C18.9272 2.72021 19.3416 3.13457 19.3416 3.64685C19.3416 4.15913 18.9272 4.56712 18.415 4.56712C17.9027 4.56712 17.4892 4.15278 17.4892 3.64685C17.4892 3.14092 17.9036 2.72021 18.415 2.72021Z" fill="hsl(var(--icon-dark))"/>
<path d="M26.5091 15.6819C24.0792 15.4335 23.3602 14.0735 23.3239 14.0027C23.2151 13.777 22.9857 13.6355 22.7346 13.6328C22.4834 13.6328 22.2468 13.7752 22.1326 14.0018C22.1035 14.0599 21.3891 15.4317 18.9474 15.6819C18.6101 15.7164 18.3535 16.0011 18.3535 16.3402V18.9895C18.3535 22.2844 22.2604 24.328 22.4263 24.4133C22.5215 24.4622 22.6249 24.4867 22.7283 24.4867C22.8316 24.4867 22.9359 24.4622 23.0302 24.4133C23.1961 24.328 27.103 22.2835 27.103 18.9895V16.3402C27.103 16.0011 26.8464 15.7164 26.5091 15.6819ZM24.9469 18.508L22.6476 20.8074C22.5188 20.937 22.3493 21.0014 22.1797 21.0014C22.0102 21.0014 21.8415 20.937 21.7118 20.8074L20.5096 19.6051C20.2512 19.3467 20.2512 18.9278 20.5096 18.6694C20.768 18.411 21.1869 18.411 21.4453 18.6694L22.1797 19.4039L24.0112 17.5724C24.2696 17.314 24.6885 17.314 24.9469 17.5724C25.2053 17.8308 25.2053 18.2496 24.9469 18.508Z" fill="hsl(var(--icon-light))"/>
</svg>
