<svg width="25" height="24" viewBox="0 0 25 24" fill="none" xmlns="http://www.w3.org/2000/svg">
<path d="M12.7715 0C6.14393 0 0.771484 5.37244 0.771484 12C0.771484 18.6276 6.14393 24 12.7715 24C19.399 24 24.7715 18.6276 24.7715 12C24.7715 5.37244 19.399 0 12.7715 0ZM12.7715 20.3907C8.13747 20.3907 4.38074 16.634 4.38074 12C4.38074 7.36598 8.13747 3.60926 12.7715 3.60926C17.4055 3.60926 21.1622 7.36598 21.1622 12C21.1622 16.634 17.4055 20.3907 12.7715 20.3907Z" fill="#1D2742"/>
<path d="M12.7719 4.71094C8.7525 4.71094 5.4834 7.98112 5.4834 11.9994C5.4834 16.0177 8.75358 19.2879 12.7719 19.2879C16.7902 19.2879 20.0603 16.0177 20.0603 11.9994C20.0603 7.98112 16.7902 4.71094 12.7719 4.71094ZM18.1422 9.29544L16.1314 9.84119C14.9872 10.1523 13.8483 9.3245 13.7902 8.14043L13.6879 6.05755C15.6395 6.35787 17.2821 7.59361 18.1422 9.29544ZM14.2746 12.0005C14.2746 12.8304 13.6018 13.5043 12.7708 13.5043C11.9398 13.5043 11.267 12.8315 11.267 12.0005C11.267 11.1695 11.9398 10.4967 12.7708 10.4967C13.6018 10.4967 14.2746 11.1695 14.2746 12.0005ZM11.8558 6.05755L11.7536 8.13936C11.6955 9.32342 10.5566 10.1512 9.41235 9.84011L7.40157 9.29436C8.26164 7.59253 9.90428 6.35679 11.8558 6.05755ZM6.75248 12.0005C6.75248 11.6722 6.78586 11.3525 6.83645 11.0382L8.78156 11.7777C9.89028 12.1996 10.3252 13.5376 9.67607 14.5301L8.53613 16.2728C7.43494 15.1813 6.75141 13.67 6.75141 12.0005H6.75248ZM10.0205 17.3482L11.3241 15.7282C12.0679 14.8046 13.4748 14.8046 14.2175 15.7282L15.5222 17.3493C14.6965 17.7755 13.7633 18.0199 12.7719 18.0199C11.7805 18.0199 10.8461 17.7744 10.0205 17.3482ZM17.0054 16.2739L15.8655 14.5312C15.2164 13.5387 15.6513 12.2007 16.76 11.7788L18.7073 11.0382C18.7579 11.3525 18.7912 11.6722 18.7912 11.9994C18.7912 13.669 18.1066 15.1813 17.0054 16.2728V16.2739Z" fill="#74C044"/>
</svg>
