<svg width="24" height="24" viewBox="0 0 24 24" fill="none" xmlns="http://www.w3.org/2000/svg">
<path d="M12 0C5.37244 0 0 5.37244 0 12C0 18.6276 5.37244 24 12 24C18.6276 24 24 18.6276 24 12C24 5.37244 18.6276 0 12 0ZM12 20.3907C7.36598 20.3907 3.60926 16.634 3.60926 12C3.60926 7.36598 7.36598 3.60926 12 3.60926C16.634 3.60926 20.3907 7.36598 20.3907 12C20.3907 16.634 16.634 20.3907 12 20.3907Z" fill="#8E93A1"/>
<path d="M12.0004 4.71094C7.98102 4.71094 4.71191 7.98112 4.71191 11.9994C4.71191 16.0177 7.98209 19.2879 12.0004 19.2879C16.0187 19.2879 19.2888 16.0177 19.2888 11.9994C19.2888 7.98112 16.0187 4.71094 12.0004 4.71094ZM17.3707 9.29544L15.3599 9.84119C14.2157 10.1523 13.0768 9.3245 13.0187 8.14043L12.9164 6.05755C14.868 6.35787 16.5106 7.59361 17.3707 9.29544ZM13.5031 12.0005C13.5031 12.8304 12.8303 13.5043 11.9993 13.5043C11.1683 13.5043 10.4956 12.8315 10.4956 12.0005C10.4956 11.1695 11.1683 10.4967 11.9993 10.4967C12.8303 10.4967 13.5031 11.1695 13.5031 12.0005ZM11.0844 6.05755L10.9821 8.13936C10.924 9.32342 9.78511 10.1512 8.64087 9.84011L6.63009 9.29436C7.49015 7.59253 9.13279 6.35679 11.0844 6.05755ZM5.981 12.0005C5.981 11.6722 6.01437 11.3525 6.06496 11.0382L8.01007 11.7777C9.11879 12.1996 9.55367 13.5376 8.90459 14.5301L7.76464 16.2728C6.66346 15.1813 5.97992 13.67 5.97992 12.0005H5.981ZM9.24904 17.3482L10.5526 15.7282C11.2964 14.8046 12.7033 14.8046 13.446 15.7282L14.7507 17.3493C13.925 17.7755 12.9918 18.0199 12.0004 18.0199C11.009 18.0199 10.0747 17.7744 9.24904 17.3482ZM16.234 16.2739L15.094 14.5312C14.445 13.5387 14.8798 12.2007 15.9886 11.7788L17.9358 11.0382C17.9864 11.3525 18.0198 11.6722 18.0198 11.9994C18.0198 13.669 17.3351 15.1813 16.234 16.2728V16.2739Z" fill="#BCBFC7"/>
</svg>
