<svg width="30" height="25" viewBox="0 0 30 25" fill="none" xmlns="http://www.w3.org/2000/svg">
<path d="M29.0795 12.9679C29.0795 11.8552 26.3111 6.70337 25.8365 5.75421C25.3672 4.80504 24.2651 4.14062 23.279 4.14062H19.6142C18.8654 4.14062 18.2537 4.68903 18.2537 5.43781V12.1031C18.2537 12.8466 17.9584 13.1472 17.2096 13.1472H8.72516C7.77072 13.1472 6.82682 13.4372 6.27314 13.7061C4.90213 14.3705 3.44147 15.1246 1.37967 16.1423C1.10019 16.2794 1 16.6011 1 16.9227V18.4361C1.08437 19.1005 1.65914 19.6278 2.34993 19.6278H3.43619C3.88441 17.4026 5.86184 15.7204 8.21893 15.7204C9.53722 15.7204 10.7606 16.2319 11.6781 17.1547C12.3636 17.8455 12.8171 18.6998 13.0017 19.6278H16.8194C17.2677 17.4026 19.2398 15.7204 21.5916 15.7204C22.9099 15.7204 24.1333 16.2319 25.0561 17.1495C25.7416 17.8403 26.1951 18.6945 26.3796 19.6226H27.777C28.4731 19.6226 29.0795 19.3115 29.0795 18.5521V12.9679ZM25.2248 11.5705H20.6319C20.3313 11.5705 20.0835 11.2594 20.0835 10.8744V6.74028C20.0782 6.36589 20.3261 6.08114 20.6266 6.08114H22.9257C23.5532 6.08114 23.954 6.28679 24.302 6.94593C24.9559 8.17985 25.8523 10.1467 25.9051 10.2786C26.1687 10.943 26.2056 11.5705 25.2248 11.5705Z" fill="#1D2742"/>
<path d="M8.20818 24.4945C10.3754 24.4945 12.1209 22.7543 12.1261 20.5976C12.1314 18.4409 10.386 16.685 8.224 16.6797C6.06201 16.6797 4.30605 18.4251 4.30078 20.5765C4.30078 22.7333 6.04619 24.4892 8.20818 24.4945ZM8.21873 19.2266C8.98861 19.2266 9.61084 19.8541 9.61084 20.624C9.61084 21.3939 8.98333 22.0108 8.21345 22.0108C7.44357 22.0108 6.82134 21.3833 6.82134 20.6134C6.82134 19.8488 7.44885 19.2266 8.21873 19.2266ZM21.602 16.685C19.4347 16.685 17.6893 18.4251 17.684 20.5818C17.6787 22.7385 19.4242 24.4945 21.5861 24.4998C23.7534 24.4998 25.4988 22.7596 25.5041 20.6029C25.5094 18.4462 23.764 16.6902 21.602 16.685ZM21.5914 21.9845C20.8215 21.9845 20.1993 21.357 20.1993 20.5871C20.1993 19.8172 20.8268 19.2002 21.5967 19.2002C22.3666 19.2002 22.9941 19.8278 22.9888 20.5976C22.9888 21.3675 22.3613 21.9897 21.5914 21.9897V21.9845Z" fill="#1D2742"/>
<path d="M16.2818 6.00708L4.17996 0.581017C3.7001 0.364818 3.17279 0.596837 3.00932 1.09251L2.7193 1.95731C2.55583 2.45298 2.7773 3.0963 3.2097 3.38633L3.563 3.61835V6.96679C3.563 6.99843 3.57355 7.0248 3.57882 7.05644C3.22025 7.241 2.97768 7.61011 2.97768 8.04251C2.97768 8.44327 3.18861 8.7913 3.505 8.98641V9.41353C3.505 9.85648 3.83193 10.157 4.11668 10.4207C4.29069 10.5842 4.53326 10.8056 4.53326 10.9375C4.53326 11.3171 4.22214 11.623 3.84248 11.623C3.46281 11.623 3.15697 11.3171 3.15697 10.9375C3.15697 10.6264 2.90913 10.3785 2.59802 10.3785C2.2869 10.3785 2.03906 10.6316 2.03906 10.9375C2.03906 11.9288 2.84585 12.7409 3.84248 12.7409C4.8391 12.7409 5.64589 11.9341 5.64589 10.9375C5.64589 10.3152 5.19768 9.90393 4.87074 9.59809C4.78637 9.52426 4.67036 9.41353 4.61763 9.35025V9.02332C4.96566 8.83348 5.20822 8.46963 5.20822 8.04778C5.20822 7.62593 4.98148 7.28318 4.65454 7.08807C4.65982 7.05116 4.67563 7.01425 4.67563 6.97733V4.36713L16.3398 12.1081C16.7775 12.3981 17.1361 12.2083 17.1361 11.681V7.34646C17.1361 6.82442 16.7511 6.218 16.2713 6.00708H16.2818ZM4.17996 2.77464C3.86884 2.77464 3.62101 2.5268 3.62101 2.21569C3.62101 1.90457 3.86884 1.65673 4.17996 1.65673C4.49107 1.65673 4.73891 1.90457 4.73891 2.21569C4.73891 2.5268 4.49107 2.77464 4.17996 2.77464ZM15.4909 8.67529C15.3907 8.83876 15.2167 8.93367 15.0374 8.93367C14.9477 8.93367 14.8528 8.90731 14.7684 8.85985L8.5303 5.12646C8.28246 4.97882 8.19809 4.65188 8.35102 4.40405C8.49866 4.15621 8.8256 4.07183 9.07344 4.22475L15.3116 7.95814C15.5594 8.10579 15.6438 8.43273 15.4909 8.68057V8.67529Z" fill="#74C044"/>
</svg>
