<svg width="24" height="24" viewBox="0 0 24 24" fill="none" xmlns="http://www.w3.org/2000/svg">
<rect width="24" height="24" rx="12" fill="#4285F4"/>
<path d="M17.3164 14.3656V9.31689C19.5982 9.31689 20.5948 9.41547 20.5948 11.8413C20.5948 14.2671 19.5982 14.3656 17.3164 14.3656Z" fill="white"/>
<path d="M6.68264 14.3658V9.31702C4.40083 9.31702 3.4043 9.41559 3.4043 11.8414C3.4043 14.2672 4.40083 14.3658 6.68264 14.3658Z" fill="#EAEEF4"/>
<path d="M19.5405 11.8415C19.5405 6.87311 16.9692 5.80969 12.0007 5.80969C7.03231 5.80969 4.46094 6.87311 4.46094 11.8415C4.46094 16.1763 6.41854 17.5384 10.2175 17.8153V19.6945C10.2175 19.6945 13.9428 18.3544 16.6595 17.2397H16.6586C18.566 16.4774 19.5405 14.8991 19.5405 11.8413V11.8415Z" fill="white"/>
<path d="M5.32021 11.8415C5.32021 8.02564 7.0221 6.38311 9.97651 5.88672C10.7565 5.75564 11.4517 5.82575 12.4305 5.81258C12.2892 5.8107 12.146 5.80963 12.0007 5.80963C7.03231 5.80963 4.46094 6.87304 4.46094 11.8415C4.46094 16.8099 7.03231 17.8733 12.0007 17.8733C12.146 17.8733 12.2892 17.8722 12.4305 17.8703C11.6086 17.8593 10.8992 17.9069 10.2175 17.8156C7.01136 17.3855 5.32021 15.8187 5.32021 11.8415Z" fill="#EAEEF4"/>
<path d="M12 16.0637C9.66768 16.0637 8.20807 15.8018 7.40628 15.2394C7.05091 14.9901 6.80111 14.6627 6.62006 14.2093C6.38745 13.6267 6.26953 12.83 6.26953 11.8415C6.26953 10.853 6.38745 10.0563 6.62006 9.47372C6.80111 9.02031 7.05091 8.69288 7.40628 8.44362C8.2078 7.88115 9.66741 7.61926 12 7.61926C14.3326 7.61926 15.7919 7.88115 16.5937 8.44362C16.9491 8.69288 17.1989 9.02031 17.3799 9.47372C17.6125 10.0563 17.7305 10.8528 17.7305 11.8415C17.7305 12.8302 17.6125 13.6267 17.3799 14.2093C17.1989 14.6627 16.9491 14.9901 16.5937 15.2394C15.7922 15.8018 14.3326 16.0637 12 16.0637Z" fill="#1D2742"/>
<path d="M9.88501 10.4907C8.94876 10.4907 8.74805 11.2224 8.74805 11.8551C8.74805 12.4878 8.94834 13.2194 9.88501 13.2194C10.8213 13.2194 11.022 12.4878 11.022 11.8551C11.022 11.2224 10.8217 10.4907 9.88501 10.4907Z" fill="white"/>
<path d="M14.092 10.4907C13.1558 10.4907 12.9551 11.2224 12.9551 11.8551C12.9551 12.4878 13.1554 13.2194 14.092 13.2194C15.0283 13.2194 15.229 12.4878 15.229 11.8551C15.229 11.2224 15.0287 10.4907 14.092 10.4907Z" fill="white"/>
</svg>
