<svg width="168" height="113" viewBox="0 0 168 113" fill="none" xmlns="http://www.w3.org/2000/svg">
<path d="M132.046 35.2828C133.928 25.4036 136.515 22.8162 146.394 20.9344C147.57 20.6992 148.276 19.7583 148.276 18.5823C148.276 17.4062 147.57 16.4653 146.394 16.2301C136.515 14.3483 133.928 11.7609 132.046 1.88175C131.811 0.705655 130.87 0 129.694 0C128.517 0 127.577 0.705655 127.341 1.88175C125.46 11.7609 122.872 14.3483 112.993 16.2301C112.052 16.4653 111.111 17.4062 111.111 18.5823C111.111 19.7583 111.817 20.6992 112.993 20.9344C122.872 22.8162 125.46 25.4036 127.341 35.2828C127.577 36.4589 128.517 37.1645 129.694 37.1645C130.87 37.1645 131.811 36.2236 132.046 35.2828Z" fill="#4285F4" fill-opacity="0.5"/>
<path d="M26.2418 40.9997C27.6937 33.3775 29.69 31.3812 37.3122 29.9293C38.2196 29.7478 38.7641 29.0219 38.7641 28.1145C38.7641 27.2071 38.2196 26.4811 37.3122 26.2996C29.69 24.8478 27.6937 22.8515 26.2418 15.2292C26.0603 14.3218 25.3344 13.7773 24.427 13.7773C23.5196 13.7773 22.7936 14.3218 22.6121 15.2292C21.1603 22.8515 19.164 24.8478 11.5417 26.2996C10.8158 26.4811 10.0898 27.2071 10.0898 28.1145C10.0898 29.0219 10.6343 29.7478 11.5417 29.9293C19.164 31.3812 21.1603 33.3775 22.6121 40.9997C22.7936 41.9071 23.5196 42.4516 24.427 42.4516C25.3344 42.4516 26.0603 41.7257 26.2418 40.9997Z" fill="#4285F4" fill-opacity="0.1"/>
<path d="M10.0113 66.4344C7.41575 65.971 6.85957 65.5075 6.30339 63.3445C6.21069 62.9583 5.83991 62.7266 5.37642 62.7266C4.91294 62.7266 4.54215 62.9583 4.44945 63.3445C3.89327 65.5075 3.33709 65.971 0.741575 66.4344C0.278091 66.5117 0 66.8207 0 67.2069C0 67.5932 0.278091 67.9021 0.741575 67.9794C3.33709 68.4429 3.89327 68.9064 4.44945 71.0693C4.54215 71.4555 4.91294 71.6873 5.37642 71.6873C5.83991 71.6873 6.21069 71.4555 6.30339 71.0693C6.85957 68.9064 7.41575 68.4429 10.0113 67.9794C10.4748 67.9021 10.7528 67.5932 10.7528 67.2069C10.7528 66.8207 10.3821 66.5117 10.0113 66.4344Z" fill="#9EC0FA"/>
<path d="M165.601 66.661C163.006 66.1975 162.449 65.734 161.893 63.5711C161.801 63.1849 161.43 62.9531 160.966 62.9531C160.503 62.9531 160.132 63.1849 160.039 63.5711C159.483 65.734 158.927 66.1975 156.331 66.661C155.868 66.7382 155.59 67.0472 155.59 67.4335C155.59 67.8197 155.868 68.1287 156.331 68.2059C158.927 68.6694 159.483 69.1329 160.039 71.2958C160.132 71.6821 160.503 71.9138 160.966 71.9138C161.43 71.9138 161.801 71.6821 161.893 71.2958C162.449 69.1329 163.006 68.6694 165.601 68.2059C166.065 68.1287 166.343 67.8197 166.343 67.4335C166.343 67.0472 165.972 66.7382 165.601 66.661Z" fill="#9EC0FA"/>
<path d="M142.628 86.1454C140.033 85.6819 139.477 85.2184 138.921 83.0555C138.828 82.6692 138.457 82.4375 137.994 82.4375C137.53 82.4375 137.159 82.6692 137.067 83.0555C136.51 85.2184 135.954 85.6819 133.359 86.1454C132.895 86.2226 132.617 86.5316 132.617 86.9179C132.617 87.3041 132.895 87.6131 133.359 87.6903C135.954 88.1538 136.51 88.6173 137.067 90.7802C137.159 91.1665 137.53 91.3982 137.994 91.3982C138.457 91.3982 138.828 91.1665 138.921 90.7802C139.477 88.6173 140.033 88.1538 142.628 87.6903C143.092 87.6131 143.37 87.3041 143.37 86.9179C143.37 86.5316 142.999 86.2226 142.628 86.1454Z" fill="#4285F4" fill-opacity="0.5"/>
<path d="M136.986 103.108C132.66 102.273 131.733 101.439 130.806 97.546C130.652 96.8507 130.034 96.4336 129.261 96.4336C128.489 96.4336 127.871 96.8507 127.717 97.546C126.79 101.439 125.863 102.273 121.537 103.108C120.764 103.247 120.301 103.803 120.301 104.498C120.301 105.193 120.764 105.75 121.537 105.889C125.863 106.723 126.79 107.557 127.717 111.45C127.871 112.146 128.489 112.563 129.261 112.563C130.034 112.563 130.652 112.146 130.806 111.45C131.733 107.557 132.66 106.723 136.986 105.889C137.759 105.75 138.222 105.193 138.222 104.498C138.222 103.803 137.604 103.247 136.986 103.108Z" fill="#EDF3FE"/>
<path d="M43.6888 96.2796C39.7955 95.4454 38.9612 94.6111 38.127 90.7178C37.9879 90.0226 37.4317 89.6055 36.7365 89.6055C36.0413 89.6055 35.4851 90.0226 35.3461 90.7178C34.5118 94.6111 33.6775 95.4454 29.7842 96.2796C29.089 96.4187 28.6719 96.9749 28.6719 97.6701C28.6719 98.3653 29.089 98.9215 29.7842 99.0606C33.6775 99.8948 34.5118 100.729 35.3461 104.622C35.4851 105.318 36.0413 105.735 36.7365 105.735C37.4317 105.735 37.9879 105.318 38.127 104.622C38.9612 100.729 39.7955 99.8948 43.6888 99.0606C44.384 98.9215 44.8011 98.3653 44.8011 97.6701C44.8011 96.9749 44.245 96.4187 43.6888 96.2796Z" fill="#9EC0FA"/>
<path d="M154.029 37.9227C150.409 37.2644 149.586 36.4414 148.927 32.8206C148.763 31.9977 148.104 31.5039 147.281 31.5039C146.459 31.5039 145.8 31.9977 145.636 32.8206C144.977 36.4414 144.154 37.2644 140.533 37.9227C139.711 38.0873 139.217 38.7456 139.217 39.5685C139.217 40.3915 139.711 41.0498 140.533 41.2144C144.154 41.8727 144.977 42.6956 145.636 46.3165C145.8 47.1394 146.459 47.6332 147.281 47.6332C148.104 47.6332 148.763 47.1394 148.927 46.3165C149.586 42.6956 150.409 41.8727 154.029 41.2144C154.852 41.0498 155.346 40.3915 155.346 39.5685C155.346 38.7456 154.852 38.0873 154.029 37.9227Z" fill="#4285F4" fill-opacity="0.1"/>
<path d="M18.3347 75.9847C17.629 75.2791 16.6881 75.0438 15.7472 75.5143C15.512 75.5143 15.2768 75.7495 15.0416 75.9847C14.8064 76.2199 14.5712 76.4552 14.5712 76.6904C14.3359 76.9256 14.3359 77.396 14.3359 77.6312C14.3359 77.8665 14.3359 78.3369 14.5712 78.5721C14.8064 78.8073 14.8064 79.0426 15.0416 79.2778C15.2768 79.513 15.512 79.7482 15.7472 79.7482C15.9825 79.9834 16.4529 79.9834 16.6881 79.9834C16.9233 79.9834 17.3938 79.9834 17.629 79.7482C17.8642 79.513 18.0994 79.513 18.3347 79.2778C18.5699 79.0426 18.8051 78.8073 18.8051 78.5721C19.0403 78.3369 19.0403 77.8665 19.0403 77.6312C19.0403 77.396 19.0403 76.9256 18.8051 76.6904C18.8051 76.4552 18.5699 76.2199 18.3347 75.9847Z" fill="#EDF3FE"/>
<path d="M147.37 97.4925C146.664 96.7869 145.723 96.5517 144.782 97.0221C144.547 97.0221 144.312 97.2573 144.077 97.4925C143.842 97.7277 143.606 97.963 143.606 98.1982C143.371 98.4334 143.371 98.9038 143.371 99.1391C143.371 99.3743 143.371 99.8447 143.606 100.08C143.842 100.315 143.842 100.55 144.077 100.786C144.312 101.021 144.547 101.256 144.782 101.256C145.018 101.491 145.488 101.491 145.723 101.491C145.958 101.491 146.429 101.491 146.664 101.256C146.899 101.021 147.135 101.021 147.37 100.786C147.605 100.55 147.84 100.315 147.84 100.08C148.075 99.8447 148.075 99.3743 148.075 99.1391C148.075 98.9038 148.075 98.4334 147.84 98.1982C147.84 97.963 147.605 97.7277 147.37 97.4925Z" fill="#9EC0FA"/>
<path d="M165.438 26.1495C166.144 26.1495 166.614 25.9143 167.085 25.4438C167.555 24.9734 167.79 24.5029 167.79 23.7973C167.79 23.0916 167.555 22.6212 167.085 22.1508C166.849 21.9155 166.614 21.6803 166.379 21.6803C165.909 21.4451 165.203 21.4451 164.497 21.6803C164.262 21.6803 164.027 21.9155 163.792 22.1508C163.321 22.6212 163.086 23.0916 163.086 23.7973C163.086 24.5029 163.321 24.9734 163.792 25.4438C164.262 25.9143 164.732 26.1495 165.438 26.1495Z" fill="#4285F4" fill-opacity="0.5"/>
<path d="M43.0553 13.8292C43.761 13.8292 44.2314 13.5939 44.7018 13.1235C45.1723 12.6531 45.4075 12.1826 45.4075 11.477C45.4075 10.7713 45.1723 10.3009 44.7018 9.83044C44.4666 9.59523 44.2314 9.36001 43.9962 9.36001C43.5257 9.12479 42.8201 9.12479 42.1144 9.36001C41.8792 9.36001 41.644 9.59523 41.4088 9.83044C40.9383 10.3009 40.7031 10.7713 40.7031 11.477C40.7031 12.1826 40.9383 12.6531 41.4088 13.1235C41.8792 13.5939 42.3497 13.8292 43.0553 13.8292Z" fill="#4285F4" fill-opacity="0.5"/>
<path d="M50.7389 108.591C51.4446 108.591 51.915 108.356 52.3854 107.885C52.8559 107.415 53.0911 106.944 53.0911 106.239C53.0911 105.533 52.8559 105.063 52.3854 104.592C52.1502 104.357 51.915 104.122 51.6798 104.122C51.2093 103.887 50.5037 103.887 49.798 104.122C49.5628 104.122 49.3276 104.357 49.0924 104.592C48.6219 105.063 48.3867 105.533 48.3867 106.239C48.3867 106.944 48.6219 107.415 49.0924 107.885C49.5628 108.356 50.0332 108.591 50.7389 108.591Z" fill="#4285F4" fill-opacity="0.5"/>
</svg>
