<svg width="25" height="24" viewBox="0 0 25 24" fill="none" xmlns="http://www.w3.org/2000/svg">
<path d="M11.0399 1.9516L9.07577 1.43949C8.65627 1.32772 8.21885 1.29973 7.78852 1.35711C7.3582 1.4145 6.9434 1.55614 6.56785 1.77393C6.1923 1.99172 5.86335 2.2814 5.59982 2.62639C5.33629 2.97139 5.14334 3.36495 5.032 3.78457L4.54175 5.63627C6.15845 3.62408 8.48311 2.30592 11.0399 1.9516Z" fill="white"/>
<path d="M2.42449 13.6094L1.94361 15.4236C1.71882 16.2704 1.8396 17.1718 2.27937 17.9296C2.71915 18.6873 3.44191 19.2394 4.28868 19.4643L6.16224 19.9639C4.1617 18.391 2.82715 16.1221 2.42449 13.6094Z" fill="white"/>
<path d="M20.7104 4.5277L18.6089 3.96875C19.6708 4.78559 20.5599 5.80519 21.2246 6.96839C21.8893 8.1316 22.3163 9.41523 22.4809 10.7448L23.0586 8.55898C23.2805 7.71306 23.1579 6.81369 22.7177 6.05801C22.2775 5.30234 21.5557 4.75202 20.7104 4.5277Z" fill="white"/>
<path d="M13.9126 22.0157L15.9267 22.5591C16.7735 22.7838 17.6749 22.6631 18.4326 22.2233C19.1904 21.7835 19.7424 21.0608 19.9673 20.214L20.5356 18.0781C18.9333 20.2123 16.553 21.6275 13.9126 22.0157Z" fill="white"/>
<path opacity="0.3" d="M12.5008 2.74219C10.6707 2.74157 8.88156 3.28368 7.35962 4.29996C5.83768 5.31624 4.65131 6.76103 3.95055 8.45161C3.24979 10.1422 3.06612 12.0026 3.42276 13.7976C3.77941 15.5925 4.66036 17.2414 5.95419 18.5357C7.24802 19.83 8.89661 20.7115 10.6915 21.0687C12.4863 21.426 14.3468 21.2429 16.0376 20.5427C17.7284 19.8426 19.1736 18.6567 20.1904 17.1351C21.2072 15.6135 21.7499 13.8245 21.7499 11.9945C21.7499 9.54115 20.7756 7.18827 19.0411 5.45322C17.3066 3.71817 14.9541 2.74302 12.5008 2.74219ZM7.26103 7.3574C7.35996 6.84444 7.60876 6.37232 7.97598 6.00075C8.34319 5.62917 8.81233 5.37481 9.32409 5.26983C9.83585 5.16485 10.3672 5.21396 10.8511 5.41095C11.3349 5.60794 11.7495 5.94397 12.0424 6.37655C12.3353 6.80913 12.4934 7.31884 12.4966 7.84124C12.4999 8.36365 12.3482 8.87528 12.0607 9.31147C11.7732 9.74766 11.3628 10.0888 10.8814 10.2918C10.4001 10.4948 9.86932 10.5505 9.3563 10.4519C9.01549 10.3864 8.69092 10.2544 8.40115 10.0634C8.11137 9.87238 7.86207 9.62616 7.66749 9.33878C7.47291 9.0514 7.33686 8.7285 7.26712 8.38853C7.19738 8.04855 7.19531 7.69817 7.26103 7.3574ZM11.105 15.3513C11.0053 15.864 10.7559 16.3358 10.3882 16.7068C10.0206 17.0779 9.55115 17.3316 9.0393 17.4359C8.52746 17.5402 7.99619 17.4905 7.51262 17.2929C7.02906 17.0953 6.61492 16.7589 6.32255 16.326C6.03019 15.8931 5.87271 15.3833 5.87004 14.8609C5.86737 14.3386 6.01962 13.8271 6.30755 13.3913C6.59548 12.9554 7.00616 12.6147 7.48767 12.4122C7.96919 12.2098 8.49993 12.1546 9.01281 12.2536C9.35367 12.3195 9.6782 12.4519 9.96785 12.6432C10.2575 12.8346 10.5066 13.0811 10.7009 13.3688C10.8952 13.6565 11.0309 13.9797 11.1002 14.3198C11.1696 14.66 11.1712 15.0105 11.105 15.3513ZM12.226 13.2123C11.9983 13.1682 11.7887 13.0577 11.6238 12.8947C11.4588 12.7318 11.3458 12.5236 11.299 12.2964C11.2522 12.0693 11.2738 11.8334 11.3609 11.6184C11.448 11.4035 11.5968 11.2192 11.7886 11.0888C11.9803 10.9583 12.2064 10.8876 12.4383 10.8855C12.6702 10.8834 12.8975 10.95 13.0916 11.077C13.2857 11.2039 13.4379 11.3855 13.5289 11.5988C13.6199 11.8121 13.6457 12.0475 13.603 12.2755C13.5746 12.4276 13.5163 12.5727 13.4316 12.7022C13.3468 12.8317 13.2373 12.9433 13.1094 13.0303C12.9814 13.1174 12.8374 13.1783 12.6858 13.2095C12.5342 13.2407 12.3779 13.2417 12.226 13.2123ZM17.7374 16.6253C17.6384 17.1382 17.3896 17.6104 17.0224 17.9819C16.6552 18.3535 16.1861 18.6079 15.6743 18.7128C15.1626 18.8178 14.6312 18.7687 14.1473 18.5717C13.6635 18.3747 13.2489 18.0387 12.956 17.6061C12.6631 17.1736 12.505 16.6638 12.5018 16.1414C12.4985 15.619 12.6502 15.1074 12.9377 14.6712C13.2252 14.235 13.6356 13.8939 14.117 13.6909C14.5983 13.4879 15.1291 13.4322 15.6421 13.5308C15.9829 13.5963 16.3075 13.7283 16.5973 13.9193C16.887 14.1103 17.1363 14.3565 17.3309 14.6439C17.5255 14.9313 17.6615 15.2542 17.7313 15.5941C17.801 15.9341 17.8031 16.2845 17.7374 16.6253ZM15.9887 11.729C15.4757 11.6301 15.0036 11.3813 14.6321 11.0141C14.2605 10.6469 14.0061 10.1777 13.9011 9.66599C13.7962 9.15423 13.8453 8.62284 14.0423 8.13899C14.2393 7.65514 14.5753 7.24056 15.0079 6.94766C15.4404 6.65476 15.9502 6.4967 16.4726 6.49345C16.995 6.4902 17.5066 6.64192 17.9428 6.92941C18.379 7.21691 18.7201 7.62728 18.9231 8.10865C19.1261 8.59001 19.1818 9.12075 19.0832 9.63377C19.0181 9.97487 18.8863 10.2998 18.6955 10.5899C18.5046 10.88 18.2584 11.1297 17.971 11.3246C17.6836 11.5195 17.3606 11.6558 17.0204 11.7257C16.6803 11.7957 16.3297 11.7978 15.9887 11.7322V11.729Z" fill="white"/>
</svg>
