<svg width="24" height="25" viewBox="0 0 24 25" fill="none" xmlns="http://www.w3.org/2000/svg">
<path opacity="0.4" d="M12.5 7.91035V22.5003H4.07997C2.91997 22.5003 1.96997 21.5703 1.96997 20.4303V5.59035C1.96997 2.97035 3.92997 1.78035 6.31997 2.95035L10.75 5.14035C11.71 5.61035 12.5 6.86035 12.5 7.91035Z" fill="currentColor"/>
<path d="M8.97 10.25H5.5C5.09 10.25 4.75 9.91 4.75 9.5C4.75 9.09 5.09 8.75 5.5 8.75H8.97C9.38 8.75 9.72 9.09 9.72 9.5C9.72 9.91 9.39 10.25 8.97 10.25Z" fill="currentColor"/>
<path d="M8.97 14.25H5.5C5.09 14.25 4.75 13.91 4.75 13.5C4.75 13.09 5.09 12.75 5.5 12.75H8.97C9.38 12.75 9.72 13.09 9.72 13.5C9.72 13.91 9.39 14.25 8.97 14.25Z" fill="currentColor"/>
<path opacity="0.6" d="M22 15.5519V20.0019C22 21.3819 20.88 22.5019 19.5 22.5019H12.5V10.9219L12.97 11.0219L17.01 11.9219L17.49 12.0319L19.53 12.4919C20.02 12.5919 20.47 12.7619 20.86 13.0119C20.86 13.0219 20.87 13.0219 20.87 13.0219C20.97 13.0919 21.07 13.1719 21.16 13.2619C21.62 13.7219 21.92 14.3919 21.99 15.3719C21.99 15.4319 22 15.4919 22 15.5519Z" fill="currentColor"/>
<path d="M12.5 10.9219V16.9219C12.96 17.5319 13.68 17.9219 14.5 17.9219C15.89 17.9219 17.01 16.8019 17.01 15.4219V11.9319L12.97 11.0319L12.5 10.9219Z" fill="currentColor"/>
<path d="M21.99 15.3719C21.92 14.3919 21.62 13.7219 21.16 13.2619C21.07 13.1719 20.97 13.0919 20.87 13.0219C20.87 13.0219 20.86 13.0219 20.86 13.0119C20.47 12.7619 20.02 12.5919 19.53 12.4919L17.49 12.0319L17.01 11.9219V15.4219C17.01 16.7919 18.12 17.9219 19.51 17.9219C20.85 17.9219 21.92 16.8719 22 15.5619V15.5519C22 15.4919 21.99 15.4319 21.99 15.3719Z" fill="currentColor"/>
</svg>
