<svg width="315" height="279" viewBox="0 0 315 279" fill="none" xmlns="http://www.w3.org/2000/svg">
<path d="M103.227 2.18603C116.233 1.32592 130.915 0.935493 144.056 1.04301C226.506 1.71073 254.329 -15.65 276.569 69.0597C286.41 70.4404 287.888 70.531 296.913 74.011C301.876 79.698 300.539 76.4556 300.312 84.3155C294.533 91.7905 287.974 88.8594 279.919 94.6538C279.747 115.919 291.035 115.891 299.048 130.682C309.011 149.695 305.649 173.133 309.797 192.803C323.613 258.318 312.705 288.83 232.114 274.74C219.905 272.607 212.285 254.459 207.346 244.302C206.696 241.229 205.953 241.297 203.493 238.4C185.008 233.273 127.007 236.369 104.816 236.98C99.8708 248.58 94.748 263.456 85.0361 271.311C70.9805 283.199 13.2366 278.061 5.65967 261.855C-7.2057 234.337 5.1259 160.848 10.6291 132.504L28.0898 114.929C29.8996 107.052 30.1757 105.909 30.3904 97.9414C26.6971 90.1891 21.1754 89.7591 14.3225 84.0212C12.4267 64.3292 34.3292 79.2962 39.3846 64.7648C54.023 22.6872 41.3171 7.91822 103.227 2.18603ZM73.6554 257.04C77.8273 242.355 79.2077 232.442 91.5025 222.052C112.405 215.319 194.223 214.922 218.261 220.983C225.163 222.726 232.285 243.159 235.157 250.583C243.629 262.376 276.011 257.82 288.146 253.039C297.882 242.344 286.741 150.272 275.508 135.815C253.507 128.192 75.8088 130.552 45.3663 132.04C38.225 134.955 33.3782 135.951 30.7585 144.467C24.6418 164.317 15.9974 235.893 23.0038 251.347C35.1697 260.18 58.0722 257.883 73.6554 257.04ZM158.271 24.0624C145.252 22.3082 135.258 20.5314 122.025 20.9275C80.5391 21.5556 67.9006 24.1641 60.5201 66.2814C58.0537 80.3544 54.9125 96.5552 51.9493 110.713C120.804 110.804 191.708 111.698 260.397 110.696L258.538 97.8114C242.415 20.6559 245.415 14.867 154.596 21.8215C164.946 24.4754 178.536 26.8974 186.701 32.6126C189.622 41.0383 189.751 37.0658 187.241 44.9427C173.701 57.0465 135.614 55.1055 121.865 43.6185C119.853 36.6188 119.546 40.0649 123.945 33.0595C133.467 26.6935 145.7 26.9596 158.271 24.0624Z" fill="#274A62"/>
<path d="M62.244 162.389C78.134 161.766 121.497 156.515 126.24 173.598C122.423 182.822 125.687 180.027 117.62 183.659C101.239 185.453 65.9189 188.209 55.6978 174.855C56.888 165.959 55.2806 170.164 62.244 162.389Z" fill="#5CB7C6"/>
<path d="M193.947 162.309C211.42 162.405 244.568 157.148 257.084 168.398C258.164 176.19 257.587 174.136 253.783 182.454C236.617 183.404 200.512 188.961 190.045 176.003C189.585 168.698 190.297 168.618 193.947 162.309Z" fill="#5CB7C6"/>
</svg>
