<svg width="16" height="16" viewBox="0 0 16 16" fill="none" xmlns="http://www.w3.org/2000/svg">
<path d="M10.3398 1.88672H5.65984C3.99984 1.88672 3.63317 2.71339 3.41984 3.72672L2.6665 7.33339H13.3332L12.5798 3.72672C12.3665 2.71339 11.9998 1.88672 10.3398 1.88672Z" stroke="currentColor" stroke-linecap="round" stroke-linejoin="round"/>
<path d="M9.70671 12.6666H6.29338M9.70671 12.6666L14.2867 12.667M9.70671 12.6666C10.6523 12.6666 10.9999 12.6666 11.3332 12.667C11.3333 13.1588 11.3333 13.4693 11.3333 13.9997C11.3333 14.3679 11.6317 14.6667 11.9999 14.6667L13.62 14.6669C13.9882 14.6669 14.2867 14.3685 14.2867 14.0002C14.2867 13.9169 14.2867 13.8335 14.2867 13.3336V12.667M6.29338 12.6666C5.33338 12.6666 5.66656 12.667 4.99989 12.667C4.99993 13.5684 4.99999 13.8604 5.00004 14.0008C5.00018 14.369 4.70165 14.6669 4.33343 14.6669L2.38011 14.6667C2.01194 14.6667 1.7135 14.3675 1.7135 13.9993C1.7135 13.6476 1.71348 13.8368 1.7134 13.0409L1.71338 12.667M6.29338 12.6666L1.71338 12.667M1.71338 12.667V9.15331C1.80671 8.15331 2.00005 7.33331 3.74671 7.33331H12.2534C14 7.33331 14.1934 8.15331 14.2867 9.15331V12.667" stroke="currentColor" stroke-linecap="round" stroke-linejoin="round"/>
<path d="M2.66667 5.33331H2" stroke="currentColor" stroke-linecap="round" stroke-linejoin="round"/>
<path d="M14.0002 5.33331H13.3335" stroke="currentColor" stroke-linecap="round" stroke-linejoin="round"/>
<path d="M3.828 9.83368H3.83699" stroke="currentColor" stroke-width="2" stroke-linecap="round" stroke-linejoin="round"/>
<path d="M12.0946 9.83331H12.1036" stroke="currentColor" stroke-width="2" stroke-linecap="round" stroke-linejoin="round"/>
<path d="M6.6665 10.6667L9.33317 10.6667" stroke="currentColor" stroke-linecap="round" stroke-linejoin="round"/>
</svg>
