<svg width="25" height="25" viewBox="0 0 25 25" fill="none" xmlns="http://www.w3.org/2000/svg">
<path d="M5.51904 10.5H7.51904C9.51904 10.5 10.519 9.5 10.519 7.5V5.5C10.519 3.5 9.51904 2.5 7.51904 2.5H5.51904C3.51904 2.5 2.51904 3.5 2.51904 5.5V7.5C2.51904 9.5 3.51904 10.5 5.51904 10.5Z" stroke="white" stroke-width="1.5" stroke-miterlimit="10" stroke-linecap="round" stroke-linejoin="round"/>
<path d="M17.519 10.5H19.519C21.519 10.5 22.519 9.5 22.519 7.5V5.5C22.519 3.5 21.519 2.5 19.519 2.5H17.519C15.519 2.5 14.519 3.5 14.519 5.5V7.5C14.519 9.5 15.519 10.5 17.519 10.5Z" stroke="white" stroke-width="1.5" stroke-miterlimit="10" stroke-linecap="round" stroke-linejoin="round"/>
<path d="M17.519 22.5H19.519C21.519 22.5 22.519 21.5 22.519 19.5V17.5C22.519 15.5 21.519 14.5 19.519 14.5H17.519C15.519 14.5 14.519 15.5 14.519 17.5V19.5C14.519 21.5 15.519 22.5 17.519 22.5Z" stroke="white" stroke-width="1.5" stroke-miterlimit="10" stroke-linecap="round" stroke-linejoin="round"/>
<path d="M5.51904 22.5H7.51904C9.51904 22.5 10.519 21.5 10.519 19.5V17.5C10.519 15.5 9.51904 14.5 7.51904 14.5H5.51904C3.51904 14.5 2.51904 15.5 2.51904 17.5V19.5C2.51904 21.5 3.51904 22.5 5.51904 22.5Z" stroke="white" stroke-width="1.5" stroke-miterlimit="10" stroke-linecap="round" stroke-linejoin="round"/>
</svg>
