<svg width="25" height="25" viewBox="0 0 25 25" fill="none" xmlns="http://www.w3.org/2000/svg">
<path d="M7.75904 2.5H5.85904C3.66904 2.5 2.51904 3.65 2.51904 5.83V7.73C2.51904 9.91 3.66904 11.06 5.84904 11.06H7.74904C9.92904 11.06 11.079 9.91 11.079 7.73V5.83C11.089 3.65 9.93904 2.5 7.75904 2.5Z" fill="currentColor"/>
<path d="M19.189 2.5H17.289C15.109 2.5 13.959 3.65 13.959 5.83V7.73C13.959 9.91 15.109 11.06 17.289 11.06H19.189C21.369 11.06 22.519 9.91 22.519 7.73V5.83C22.519 3.65 21.369 2.5 19.189 2.5Z" fill="currentColor"/>
<path d="M19.189 13.9297H17.289C15.109 13.9297 13.959 15.0797 13.959 17.2597V19.1597C13.959 21.3397 15.109 22.4897 17.289 22.4897H19.189C21.369 22.4897 22.519 21.3397 22.519 19.1597V17.2597C22.519 15.0797 21.369 13.9297 19.189 13.9297Z" fill="currentColor"/>
<path d="M7.75904 13.9297H5.85904C3.66904 13.9297 2.51904 15.0797 2.51904 17.2597V19.1597C2.51904 21.3497 3.66904 22.4997 5.84904 22.4997H7.74904C9.92904 22.4997 11.079 21.3497 11.079 19.1697V17.2697C11.089 15.0797 9.93904 13.9297 7.75904 13.9297Z" fill="currentColor"/>
</svg>
