<svg width="34" height="25" viewBox="0 0 34 25" fill="none" xmlns="http://www.w3.org/2000/svg">
<path d="M3.7779 8.67149C3.9482 8.50362 4.22312 8.50605 4.39221 8.67635C4.56008 8.84665 4.55764 9.12157 4.38734 9.28944L2.55294 11.0995C2.40818 11.2418 2.22206 11.3197 2.03837 11.3306C1.83523 11.3416 1.63451 11.2723 1.48367 11.1202L0.612698 10.2383C-0.314238 9.29917 0.373057 7.48058 1.75373 5.66077C2.25612 4.99902 2.8461 4.33362 3.47379 3.71323C4.10391 3.09163 4.77661 2.51016 5.44201 2.01993C7.28128 0.663585 9.10839 -0.000590563 10.0365 0.939726L10.9075 1.82165C11.0571 1.97371 11.124 2.17442 11.1094 2.37635C11.0973 2.56004 11.0158 2.74615 10.871 2.88969L5.42011 8.27127C5.2498 8.43914 4.97489 8.43671 4.80702 8.26641C4.63915 8.09489 4.64158 7.82119 4.81188 7.6521L10.1971 2.33621L9.41858 1.54795C8.86266 0.984735 7.45766 1.6112 5.96021 2.71696C5.32766 3.18408 4.68659 3.73756 4.08445 4.3324C3.47987 4.92846 2.91787 5.56224 2.44589 6.18506C1.32067 7.66913 0.67595 9.06683 1.23308 9.63126L2.0104 10.4183L3.77912 8.6727L3.7779 8.67149Z" fill="currentColor"/>
<path d="M8.92948 9.47911C8.81878 9.69199 8.55603 9.77471 8.34315 9.66402C8.13027 9.55332 8.04755 9.29057 8.15824 9.07769C8.18987 9.01686 8.23002 8.9536 8.27746 8.88913C8.32004 8.83074 8.36748 8.776 8.421 8.7237C8.43073 8.71275 8.44046 8.70423 8.45141 8.69572C8.72633 8.43783 9.0791 8.3101 9.43187 8.31253C9.79559 8.31497 10.1581 8.45486 10.4342 8.73343C10.444 8.74194 10.4537 8.75289 10.4622 8.76262C10.7201 9.03754 10.8478 9.39031 10.8454 9.74308C10.843 10.108 10.7018 10.4717 10.4221 10.7479C10.1435 11.0228 9.77856 11.159 9.41484 11.1566C9.0499 11.1542 8.68618 11.0131 8.41005 10.7333C8.24218 10.563 8.24461 10.2881 8.41491 10.1202C8.58522 9.95232 8.86014 9.95475 9.02923 10.125C9.13627 10.2345 9.27738 10.2893 9.41849 10.2905C9.56081 10.2905 9.70435 10.2382 9.81383 10.1299C9.92331 10.0229 9.97806 9.88175 9.97927 9.74065C9.97927 9.60562 9.93183 9.4706 9.83452 9.36355C9.82965 9.35868 9.82479 9.35382 9.81992 9.34895L9.81748 9.3453C9.71044 9.23582 9.56933 9.18108 9.42822 9.17986C9.29319 9.17986 9.15817 9.2273 9.05112 9.3234C9.04626 9.32827 9.04139 9.33314 9.03653 9.338L9.03409 9.33922C9.01341 9.3599 8.99395 9.3818 8.97692 9.40491C8.96232 9.42438 8.94772 9.4487 8.93312 9.4779" fill="currentColor"/>
<path d="M11.0655 5.2903C10.8952 5.45817 10.6203 5.45574 10.4524 5.28544C10.2845 5.11392 10.287 4.84021 10.4573 4.67112L10.9974 4.13832C11.4232 3.71864 11.7565 3.56537 12.1348 3.63228C12.4742 3.69188 12.7503 3.92788 13.1213 4.30376L16.4069 7.63319C16.6186 7.84728 16.7232 8.12828 16.7208 8.40806C16.7184 8.69028 16.6101 8.97006 16.396 9.18294L14.8596 10.6986C14.7453 10.8118 14.5835 10.847 14.4375 10.8069C13.9412 10.6658 13.3914 10.6755 12.8549 10.8324C12.3282 10.9857 11.8148 11.2813 11.3757 11.7144C10.9378 12.1462 10.6361 12.6559 10.4755 13.1802C10.3125 13.7142 10.2955 14.2641 10.4305 14.7628C10.4743 14.9282 10.4171 15.0961 10.2979 15.2019L8.7798 16.7006C8.5657 16.9123 8.28471 17.0169 8.00371 17.0145C7.72271 17.012 7.4417 16.9038 7.22882 16.6897L3.92738 13.3456C3.55028 12.9637 3.32889 12.6717 3.28996 12.3226C3.2486 11.9455 3.41891 11.6183 3.83737 11.2059L9.3929 5.72214C9.5632 5.55427 9.83811 5.5567 10.006 5.727C10.1739 5.8973 10.1714 6.17223 10.0011 6.3401L4.44559 11.8239C4.23636 12.0307 4.14513 12.1523 4.15364 12.2265C4.16459 12.3299 4.30448 12.4905 4.54655 12.7362L7.848 16.0802C7.89179 16.124 7.94897 16.1471 8.00736 16.1471C8.06696 16.1471 8.12535 16.1252 8.17036 16.0814L9.53278 14.736C9.42209 14.1534 9.46102 13.5318 9.64592 12.9284C9.84785 12.2691 10.2237 11.6317 10.7663 11.0952C11.3088 10.5587 11.9511 10.1926 12.6128 9.99918C13.2174 9.8228 13.8402 9.79238 14.4217 9.91038L15.7853 8.56377C15.8291 8.51997 15.8522 8.4628 15.8522 8.40441C15.8522 8.34481 15.8304 8.28642 15.7866 8.24141L12.5009 4.91199C12.2528 4.6614 12.0873 4.5069 11.9839 4.48866C11.9195 4.47771 11.8063 4.55799 11.6056 4.75628L11.0655 5.28908V5.2903Z" fill="currentColor"/>
<path d="M2.53079 10.0312L4.11339 11.6357L3.49544 12.244L1.91162 10.6407L2.53079 10.0312Z" fill="currentColor"/>
<path d="M10.4234 2.24219L12.006 3.84669L11.3868 4.45491L9.8042 2.85163L10.4234 2.24219Z" fill="currentColor"/>
<path d="M17.1565 18.5651L18.7026 20.1318L18.0834 20.7401L16.5373 19.1733L17.1565 18.5651ZM10.6387 11.9609L15.4911 16.8766L14.872 17.4848L10.0195 12.5692L10.6387 11.9609Z" fill="currentColor"/>
<path d="M18.7449 16.9548L20.3141 18.5447L19.695 19.1529L18.1257 17.563L18.7449 16.9548ZM12.2491 10.375L17.1027 15.2919L16.4835 15.9001L11.6299 10.9832L12.2491 10.375Z" fill="currentColor"/>
<path d="M23.1511 21.12C23.1268 20.8816 23.3007 20.6687 23.5391 20.6444C23.7776 20.6201 23.9905 20.794 24.0148 21.0325C24.0634 21.4971 24.0063 21.9716 23.8469 22.4192C23.6924 22.8498 23.443 23.2525 23.0964 23.5943C22.4796 24.2025 21.6743 24.5042 20.8715 24.4993C20.0662 24.4945 19.2645 24.1819 18.6551 23.5651C18.0469 22.9484 17.7452 22.1431 17.7501 21.3402C17.7549 20.5361 18.0663 19.7345 18.6819 19.1263C18.6904 19.1165 18.7001 19.108 18.7098 19.0995C19.3229 18.5071 20.1185 18.2139 20.9104 18.2188C21.7145 18.2237 22.5149 18.5351 23.1243 19.1506C23.1341 19.1603 23.1426 19.1701 23.1511 19.1798C23.1706 19.2005 23.1925 19.2248 23.2192 19.2528C23.2508 19.2869 23.28 19.3209 23.308 19.355C23.4613 19.5387 23.4357 19.8124 23.2521 19.9656C23.0684 20.1189 22.7947 20.0934 22.6414 19.9097C22.6195 19.8841 22.5976 19.8586 22.5769 19.8343C22.566 19.8221 22.5502 19.8063 22.5307 19.7856C22.5234 19.7795 22.5173 19.7734 22.51 19.7661L22.5076 19.7637C22.0672 19.3173 21.487 19.091 20.9067 19.0873C20.3338 19.0837 19.7596 19.2954 19.3144 19.7223C19.3083 19.7284 19.3022 19.7357 19.2962 19.7418L19.2937 19.743C18.8473 20.1834 18.621 20.7636 18.6174 21.3451C18.6137 21.9278 18.8327 22.5104 19.2743 22.9581C19.7146 23.4045 20.2949 23.6308 20.8751 23.6344C21.4578 23.6381 22.0405 23.4191 22.4881 22.9776C22.7387 22.7294 22.92 22.4387 23.0307 22.1297C23.1462 21.8073 23.1864 21.4631 23.1511 21.1249" fill="currentColor"/>
<path d="M20.15 21.2579C20.1196 21.4951 19.9018 21.663 19.6634 21.6314C19.4262 21.601 19.2583 21.3832 19.29 21.1448C19.3131 20.9672 19.3642 20.7957 19.4445 20.6363C19.5211 20.4818 19.6257 20.3371 19.7571 20.2069C20.0734 19.8943 20.4869 19.7398 20.8993 19.7422C21.3129 19.7446 21.7265 19.9052 22.0391 20.2227C22.3518 20.539 22.5063 20.9526 22.5038 21.365C22.5014 21.7786 22.3408 22.1922 22.0233 22.5048C21.7813 22.7432 21.4832 22.8904 21.173 22.9451C20.8555 23.0023 20.5222 22.9622 20.223 22.8259C20.004 22.7274 19.9067 22.4707 20.0052 22.2518C20.1038 22.0328 20.3617 21.9355 20.5794 22.034C20.7181 22.0973 20.8738 22.1155 21.0222 22.0888C21.1657 22.0632 21.302 21.9963 21.4139 21.8856C21.5599 21.7408 21.6341 21.5511 21.6353 21.3613C21.6365 21.1703 21.5647 20.9781 21.4187 20.8309C21.274 20.685 21.0842 20.6108 20.8945 20.6095C20.7035 20.6095 20.5113 20.6801 20.3641 20.8261C20.3057 20.8845 20.2583 20.9514 20.2218 21.0244C20.1841 21.101 20.1597 21.1801 20.15 21.2579Z" fill="currentColor"/>
<path d="M29.6369 9.29066C29.4666 9.12279 29.4642 8.84787 29.632 8.67757C29.7999 8.50605 30.0748 8.50483 30.2463 8.6727L32.015 10.4183L32.7924 9.63126C33.3495 9.06683 32.7048 7.66913 31.5796 6.18506C31.1076 5.56224 30.5456 4.92846 29.941 4.3324C29.3376 3.73756 28.6966 3.18286 28.0652 2.71696C26.5666 1.6112 25.1628 0.984735 24.6069 1.54795L23.8283 2.33621L29.2136 7.6521C29.3839 7.81997 29.3863 8.09489 29.2184 8.26641C29.0506 8.43671 28.7756 8.43914 28.6041 8.27127L23.1532 2.88969C23.0072 2.74615 22.9269 2.56004 22.9148 2.37635C22.9014 2.17442 22.9671 1.97249 23.1167 1.82165L23.9877 0.939726C24.9158 -0.000590563 26.743 0.663585 28.5822 2.01993C29.2476 2.51137 29.9203 3.09163 30.5504 3.71323C31.1793 4.33362 31.7693 4.99902 32.2705 5.66077C33.6512 7.4818 34.3385 9.29917 33.4115 10.2383L32.5406 11.1202C32.3897 11.2723 32.189 11.3416 31.9859 11.3306C31.8022 11.3209 31.6161 11.2431 31.4713 11.0995L29.6369 9.28944V9.29066Z" fill="currentColor"/>
<path d="M25.8649 9.07768C25.9756 9.29056 25.8929 9.55332 25.68 9.66401C25.4671 9.77471 25.2044 9.69199 25.0937 9.47911C25.0791 9.44992 25.0633 9.42558 25.0499 9.40612C25.0329 9.38301 25.0134 9.36111 24.9927 9.34043C24.8832 9.23217 24.7397 9.17865 24.5974 9.17986C24.4563 9.17986 24.3152 9.23582 24.2081 9.3453C24.0998 9.45478 24.0463 9.59832 24.0475 9.74064C24.0475 9.88175 24.1035 10.0229 24.213 10.1299C24.3225 10.2382 24.466 10.2917 24.6083 10.2905C24.7494 10.2905 24.8905 10.2345 24.9976 10.125C25.1655 9.95353 25.4404 9.95231 25.6119 10.1202C25.7822 10.2881 25.7846 10.563 25.6168 10.7333C25.3406 11.0131 24.9769 11.1542 24.612 11.1566C24.2483 11.159 23.8833 11.0228 23.6048 10.7479C23.325 10.4717 23.1839 10.108 23.1814 9.74308C23.179 9.37936 23.3152 9.01443 23.5902 8.73586C23.8663 8.45608 24.23 8.31496 24.5949 8.31253C24.9587 8.3101 25.3236 8.44635 25.6022 8.72127C25.6557 8.77357 25.7044 8.83074 25.7481 8.88913C25.7956 8.9536 25.8357 9.01686 25.8674 9.07768" fill="currentColor"/>
<path d="M23.567 4.67529C23.7373 4.84316 23.7397 5.11808 23.5719 5.2896C23.404 5.4599 23.1291 5.46234 22.9575 5.29447L22.4174 4.76166C22.2155 4.56216 22.1036 4.48188 22.0391 4.49404C21.9357 4.51229 21.7703 4.66677 21.5221 4.91736L18.2365 8.24679C18.1915 8.2918 18.1696 8.35141 18.1708 8.4098C18.1708 8.46819 18.1939 8.52536 18.2377 8.56915L19.6014 9.91576C20.1828 9.79777 20.8056 9.82818 21.4102 10.0046C22.072 10.198 22.7143 10.5641 23.2568 11.1006C23.8005 11.637 24.1764 12.2745 24.3771 12.9338C24.562 13.5371 24.601 14.1587 24.4903 14.7414L25.8527 16.0868L25.8551 16.0892C25.8551 16.0892 25.8624 16.0953 25.8661 16.099C25.9087 16.1343 25.9622 16.1525 26.0157 16.1525C26.0741 16.1525 26.1313 16.1294 26.1751 16.0856L26.1775 16.0832C26.1848 16.0759 26.1921 16.0686 26.1982 16.0625L29.4765 12.7416C29.7186 12.4971 29.8585 12.3353 29.8694 12.2319C29.8779 12.1565 29.7867 12.036 29.5775 11.8292L24.0219 6.34547C23.8516 6.1776 23.8492 5.90269 24.0171 5.73239C24.1849 5.56087 24.4599 5.55965 24.6302 5.72752L30.1857 11.2113C30.6029 11.6237 30.7745 11.9521 30.7331 12.328C30.6942 12.6771 30.4728 12.9691 30.0957 13.351L26.8173 16.6731C26.81 16.6817 26.8015 16.6902 26.793 16.6987C26.5814 16.9116 26.3016 17.0186 26.0206 17.021C25.753 17.0223 25.4841 16.9274 25.2749 16.7352C25.2639 16.7255 25.253 16.7157 25.242 16.706L23.7263 15.2085C23.6059 15.1027 23.5487 14.9348 23.5938 14.7694C23.7288 14.2707 23.7117 13.7208 23.5487 13.1868C23.3882 12.6625 23.0865 12.1528 22.6486 11.721C22.2106 11.2879 21.6961 10.9935 21.1694 10.839C20.6329 10.6821 20.0831 10.6736 19.5868 10.8147C19.442 10.8549 19.2802 10.8184 19.1659 10.7065L17.6295 9.19075C17.4142 8.97909 17.3059 8.69809 17.3047 8.41588C17.3035 8.13609 17.4081 7.85509 17.6185 7.641L20.9042 4.31157C21.2752 3.93569 21.5513 3.6997 21.8907 3.64009C22.269 3.57318 22.6023 3.72646 23.0281 4.14614L23.5682 4.67894L23.567 4.67529Z" fill="currentColor"/>
<path d="M32.1114 10.6407L30.5276 12.244L29.9097 11.6357L31.4923 10.0312L32.1114 10.6407Z" fill="currentColor"/>
<path d="M24.2191 2.85163L22.6365 4.45491L22.0173 3.84669L23.5999 2.24219L24.2191 2.85163Z" fill="currentColor"/>
<path d="M24.0038 12.5692L15.94 20.7401L15.3208 20.1306L23.3859 11.9609L24.0038 12.5692Z" fill="currentColor"/>
<path d="M22.3932 10.9832L14.3282 19.1529L13.709 18.5447L21.7741 10.375L22.3932 10.9832Z" fill="currentColor"/>
<path d="M10.0096 21.0337C10.034 20.7953 10.2468 20.6213 10.4853 20.6456C10.7237 20.67 10.8976 20.8828 10.8733 21.1213C10.838 21.4606 10.8782 21.8049 10.9937 22.126C11.1044 22.4362 11.2857 22.727 11.5363 22.9739C11.9839 23.4155 12.5678 23.6344 13.1493 23.6308C13.7295 23.6271 14.3098 23.4009 14.7501 22.9545C15.1917 22.5068 15.4107 21.9229 15.407 21.3414C15.4034 20.7612 15.1771 20.1809 14.7307 19.7406L14.7283 19.7382C14.7222 19.7333 14.7161 19.726 14.71 19.7199C14.266 19.2917 13.6906 19.0813 13.1177 19.0849C12.5374 19.0886 11.9572 19.3148 11.5168 19.7613L11.5144 19.7637C11.5083 19.771 11.501 19.7771 11.4949 19.7832C11.4718 19.8063 11.4536 19.827 11.4378 19.844C11.4159 19.8683 11.3915 19.8975 11.3636 19.9316C11.2127 20.1177 10.939 20.1457 10.7529 19.9948C10.5668 19.844 10.5388 19.5703 10.6896 19.3842C10.7188 19.3489 10.7517 19.31 10.7906 19.2662C10.8198 19.2333 10.8478 19.2041 10.8721 19.1774C10.8806 19.1676 10.8891 19.1579 10.8977 19.1494C11.5071 18.5351 12.3087 18.2237 13.1116 18.2188C13.9047 18.2139 14.6991 18.5071 15.3121 19.0995C15.3219 19.108 15.3304 19.1153 15.3401 19.1251C15.9557 19.7345 16.2671 20.5349 16.2719 21.339C16.2768 22.1431 15.9763 22.9484 15.3669 23.5639C14.7574 24.1819 13.9546 24.4933 13.1505 24.4981C12.3477 24.503 11.5412 24.2025 10.9256 23.5931C10.5802 23.2513 10.3296 22.8486 10.1751 22.418C10.0145 21.9716 9.95855 21.4971 10.0072 21.0312" fill="currentColor"/>
<path d="M14.7332 21.1448C14.7636 21.382 14.5969 21.5997 14.3597 21.6314C14.1225 21.6618 13.9048 21.4951 13.8732 21.2579C13.8634 21.1801 13.8391 21.101 13.8014 21.0244C13.7649 20.9514 13.7174 20.8833 13.6591 20.8261C13.5119 20.6801 13.3197 20.6083 13.1287 20.6095C12.9389 20.6108 12.7491 20.685 12.6044 20.8309C12.4584 20.9781 12.3866 21.1703 12.3879 21.3613C12.3879 21.5511 12.4633 21.7408 12.6093 21.8856C12.72 21.9951 12.8574 22.0632 13.001 22.0888C13.1506 22.1155 13.3051 22.0973 13.4437 22.034C13.6627 21.9355 13.9194 22.034 14.0179 22.2518C14.1164 22.4707 14.0179 22.7274 13.8002 22.8259C13.5009 22.9622 13.1688 23.0023 12.8501 22.9451C12.5387 22.8892 12.2419 22.7432 11.9998 22.5048C11.6823 22.1922 11.5217 21.7786 11.5193 21.365C11.5169 20.9526 11.6714 20.539 11.984 20.2227C12.2966 19.9052 12.7102 19.7446 13.1238 19.7422C13.5362 19.7398 13.9498 19.8943 14.2661 20.2069C14.3987 20.3371 14.5021 20.483 14.5787 20.6363C14.6578 20.7957 14.7088 20.9684 14.7332 21.1448Z" fill="currentColor"/>
</svg>
