<svg width="16" height="16" viewBox="0 0 16 16" fill="none" xmlns="http://www.w3.org/2000/svg">
<path d="M7.99992 1.33594C4.32659 1.33594 1.33325 4.32927 1.33325 8.0026C1.33325 11.6759 4.32659 14.6693 7.99992 14.6693C11.6733 14.6693 14.6666 11.6759 14.6666 8.0026C14.6666 4.32927 11.6733 1.33594 7.99992 1.33594ZM10.8999 10.3826C10.8066 10.5426 10.6399 10.6293 10.4666 10.6293C10.3799 10.6293 10.2933 10.6093 10.2133 10.5559L8.14659 9.3226C7.63325 9.01594 7.25325 8.3426 7.25325 7.74927V5.01594C7.25325 4.7426 7.47992 4.51594 7.75325 4.51594C8.02659 4.51594 8.25325 4.7426 8.25325 5.01594V7.74927C8.25325 7.98927 8.45325 8.3426 8.65992 8.4626L10.7266 9.69594C10.9666 9.83594 11.0466 10.1426 10.8999 10.3826Z" fill="currentColor"/>
</svg>
