<svg width="16" height="16" viewBox="0 0 16 16" fill="none" xmlns="http://www.w3.org/2000/svg">
<path d="M8.00016 1.33331C4.32683 1.33331 1.3335 4.32665 1.3335 7.99998C1.3335 11.6733 4.32683 14.6666 8.00016 14.6666C11.6735 14.6666 14.6668 11.6733 14.6668 7.99998C14.6668 4.32665 11.6735 1.33331 8.00016 1.33331ZM10.2402 9.53331C10.4335 9.72665 10.4335 10.0466 10.2402 10.24C10.1402 10.34 10.0135 10.3866 9.88683 10.3866C9.76016 10.3866 9.6335 10.34 9.5335 10.24L8.00016 8.70665L6.46683 10.24C6.36683 10.34 6.24016 10.3866 6.1135 10.3866C5.98683 10.3866 5.86016 10.34 5.76016 10.24C5.56683 10.0466 5.56683 9.72665 5.76016 9.53331L7.2935 7.99998L5.76016 6.46665C5.56683 6.27331 5.56683 5.95331 5.76016 5.75998C5.9535 5.56665 6.2735 5.56665 6.46683 5.75998L8.00016 7.29331L9.5335 5.75998C9.72683 5.56665 10.0468 5.56665 10.2402 5.75998C10.4335 5.95331 10.4335 6.27331 10.2402 6.46665L8.70683 7.99998L10.2402 9.53331Z" fill="currentColor"/>
</svg>
