<svg width="24" height="24" viewBox="0 0 24 24" fill="none" xmlns="http://www.w3.org/2000/svg">
<path d="M15.7123 16.7716L7.22699 8.2863C6.93708 7.99639 6.93708 7.51556 7.22699 7.22564C7.51691 6.93573 7.99774 6.93573 8.28765 7.22564L16.7729 15.7109C17.0628 16.0008 17.0628 16.4817 16.7729 16.7716C16.483 17.0615 16.0022 17.0615 15.7123 16.7716Z" fill="currentColor"/>
<path d="M7.22706 16.7716C6.93715 16.4817 6.93715 16.0008 7.22706 15.7109L15.7123 7.22564C16.0023 6.93573 16.4831 6.93573 16.773 7.22564C17.0629 7.51556 17.0629 7.99639 16.773 8.2863L8.28772 16.7716C7.99781 17.0615 7.51698 17.0615 7.22706 16.7716Z" fill="currentColor"/>
</svg>
