<svg width="16" height="16" viewBox="0 0 16 16" fill="none" xmlns="http://www.w3.org/2000/svg">
<path d="M11.333 8.93335V10.9334C11.333 13.6 10.2663 14.6667 7.59967 14.6667H5.06634C2.39967 14.6667 1.33301 13.6 1.33301 10.9334V8.40002C1.33301 5.73335 2.39967 4.66669 5.06634 4.66669H7.06634" stroke="currentColor" stroke-linecap="round" stroke-linejoin="round"/>
<path d="M11.3331 8.93335H9.19974C7.59974 8.93335 7.06641 8.40002 7.06641 6.80002V4.66669L11.3331 8.93335Z" stroke="currentColor" stroke-linecap="round" stroke-linejoin="round"/>
<path d="M7.7334 1.33331H10.4001" stroke="currentColor" stroke-linecap="round" stroke-linejoin="round"/>
<path d="M4.66699 3.33331C4.66699 2.22665 5.56033 1.33331 6.66699 1.33331H8.41366" stroke="currentColor" stroke-linecap="round" stroke-linejoin="round"/>
<path d="M14.6673 5.33331V9.45998C14.6673 10.4933 13.8273 11.3333 12.7939 11.3333" stroke="currentColor" stroke-linecap="round" stroke-linejoin="round"/>
<path d="M14.667 5.33331H12.667C11.167 5.33331 10.667 4.83331 10.667 3.33331V1.33331L14.667 5.33331Z" stroke="currentColor" stroke-linecap="round" stroke-linejoin="round"/>
</svg>
