<svg width="193" height="275" viewBox="0 0 193 275" fill="none" xmlns="http://www.w3.org/2000/svg">
<path d="M31.5603 1.76503C69.0276 0.944529 108.329 -0.673816 145.668 0.305128C186.025 1.36329 189.859 45.8005 156.84 64.938C168.613 71.1682 182.546 77.4833 187.963 89.7343C193.577 102.404 193.534 244.656 187.086 256.03C181.429 266.018 172.546 269.928 161.276 273C136.238 272.966 32.014 278.964 11.1852 265.101C-1.31202 256.777 -0.152433 205.906 0.191135 189.128C0.731027 162.793 -0.642956 126.668 1.71294 99.7781C2.89088 80.8274 16.1181 74.235 30.8301 63.7665C6.7313 47.4357 0.387688 9.48341 31.5603 1.76503ZM20.1981 211.813C65.4079 210.914 111.931 212.385 157.232 211.417C165.613 211.236 167.159 211.983 171.318 207.819C169.871 183.933 169.564 135.269 171.545 112.21C120.366 111.729 69.2176 112.527 18.0015 111.622C18.9463 128.303 16.5416 203.184 20.1981 211.813ZM31.6951 45.2402C52.6589 44.2726 146.557 45.8402 157.073 43.9502L159.018 17.9148C120.428 17.1622 70.4508 16.6926 31.6768 18.3393C31.5909 26.5613 31.1307 37.2333 31.6951 45.2402Z" fill="#275166"/>
<path d="M83.979 124.885C119.189 125.654 98.7584 130.555 109.851 148.939C117.783 149.211 125.704 149.624 133.624 150.179C138.729 157.156 136.968 164.829 134.526 172.355C125.851 177.38 118.373 171.382 107.066 175.133C107.158 185.676 107.783 189.965 104.464 200.303C94.967 200.088 91.3105 201.191 85.0649 196.421C84.0772 189.252 83.6231 182.988 83.12 175.773C73.9848 171.823 43.1679 181.72 56.2664 151.628C63.9415 147.667 68.7761 150.66 80.531 149.313L83.1077 144.65C81.7395 135.002 81.8256 134.533 83.979 124.885Z" fill="#3E7482"/>
<path d="M171.318 207.818C174.06 217.263 175.68 256.245 161.263 256.335C119.734 256.607 66.2539 260.857 25.5289 256.37C16.0992 249.692 15.7006 219.634 20.1977 211.813C65.4075 210.914 111.93 212.385 157.232 211.417C165.613 211.236 167.158 211.983 171.318 207.818Z" fill="#8399A3"/>
<path d="M48.8796 61.1728C72.2483 60.9634 118.918 59.1415 139.532 62.3612C148.103 72.5128 156.772 83.3434 166.128 92.8102C173.097 99.8666 172.226 103.205 171.545 112.208C120.366 111.727 69.2174 112.525 18.0013 111.62C14.3264 83.4624 40.2904 90.1394 48.8796 61.1728Z" fill="#8399A3"/>
</svg>
