<svg width="20" height="20" viewBox="0 0 20 20" fill="none" xmlns="http://www.w3.org/2000/svg">
<path d="M0.292624 10.7066L9.27089 19.7069C9.6599 20.0969 10.2959 20.0979 10.6849 19.7089L19.7062 10.7086C19.7993 10.6157 19.8732 10.5053 19.9236 10.3838C19.9741 10.2623 20 10.1321 20 10.0005C20 9.869 19.9741 9.73875 19.9236 9.61726C19.8732 9.49576 19.7993 9.38541 19.7062 9.29251L10.6849 0.292212C10.592 0.199395 10.4817 0.12581 10.3603 0.0756693C10.2389 0.0255284 10.1088 -0.000184769 9.9775 9.99427e-07C9.84616 0.000186767 9.71615 0.0262679 9.5949 0.0767519C9.47365 0.127236 9.36355 0.201132 9.27089 0.294213L0.292624 9.29452C0.199856 9.3872 0.126264 9.49726 0.0760537 9.61841C0.0258437 9.73955 0 9.8694 0 10.0005C0 10.1317 0.0258437 10.2615 0.0760537 10.3827C0.126264 10.5038 0.199856 10.6139 0.292624 10.7066ZM6.99982 8.00047H12V6.0004L15.0001 9.0005L12 12.0006V10.0005H8.99988V13.2507H6.99982V8.00047Z" fill="white"/>
</svg>
