<svg width="346" height="319" viewBox="0 0 346 319" fill="none" xmlns="http://www.w3.org/2000/svg">
<path d="M292.913 190.666C298.373 192.25 295.962 191.017 299.729 195.119C305.637 217.686 296.109 244.938 289.379 266.678C302.152 262.734 315.22 259.515 328.196 256.165C328.804 276.507 331.061 297.591 332.877 317.934L119.516 317.759C102.569 317.821 7.44879 321.957 1.2793 312.321C8.15126 295.458 35.536 261.427 48.8395 233.751C52.1138 225.189 53.458 220.402 61.7644 215.609C72.8671 220.962 60.4625 255.52 57.4931 263.923C114.269 238.532 111.462 226.932 152.065 199.369L156.671 200.999C164.773 214.455 156.869 242.878 152.461 257.132C170.945 247.875 182.578 241.582 197.654 227.753C206.293 219.825 222.191 191.9 233.429 197.19C240.257 212.214 229.241 242.12 223.872 257.121C263.158 231.889 268.041 228.047 292.913 190.666Z" fill="#275166"/>
<path d="M138.188 232.765C143.8 248.559 117.84 269.416 127.345 280.536C147.677 282.233 198.156 248.134 214.156 236.613C210.542 247.772 199.612 270.967 203.775 279.602L209.145 280.807C232.756 275.262 267.949 246.748 283.741 229.127C279.459 242.538 272.281 260.329 269.869 273.773C269.256 277.203 270.655 277.067 274.146 280.173C289.023 284.038 296.582 281.52 312.042 281.13C312.214 288.763 313.404 297.319 309.907 303.951C299.146 306.164 242.366 305.343 227.139 305.332C159.32 305.728 91.4978 305.19 23.6953 303.713C25.7745 300.72 32.2919 291.395 35.3729 290.15C74.5255 274.373 106.349 259.967 138.188 232.765Z" fill="#90D6DC"/>
<path d="M215.367 98.3167C182.223 87.1069 173.293 56.7088 199.684 33.5197C218.367 17.0983 254.562 -8.89178 281.066 3.03096C286.729 5.57735 294.772 14.8349 300.919 17.8339C310.042 23.9566 328.092 27.2781 334.712 35.7943C351.927 57.9422 349.031 77.6401 327.54 93.3484C306.324 102.595 240.905 99.8501 215.367 98.3167ZM322.423 78.7604C336.65 50.3032 322.957 41.4417 294.318 35.387C289.078 29.8698 275.741 14.252 268.035 14.5123C250.561 15.1064 223.583 34.9173 211.508 45.6857C193.695 61.5695 200.975 80.5033 225.412 84.2436C252.746 84.7982 298.827 88.2387 322.423 78.7604Z" fill="#275166"/>
<path d="M271.324 41.8828C279.373 43.3597 276.355 41.5094 281.907 45.9118C283.6 53.5736 278.821 65.6943 277.085 74.0464C266.311 59.1812 260.636 57.5403 271.324 41.8828Z" fill="#274A62"/>
<path d="M225.413 84.2429C252.747 84.7975 298.828 88.238 322.423 78.7598L327.54 93.3477C306.325 102.594 240.905 99.8495 215.367 98.316C220.872 92.4706 222.073 91.6218 225.413 84.2429Z" fill="#274A62"/>
<path d="M57.8895 60.2786C82.8976 57.3983 93.1708 61.1671 110.544 78.8843C129.401 98.118 143.856 132.075 116.233 150.783C102.457 160.114 88.2523 157.715 72.7911 155.406C60.4896 152.78 44.7217 160.872 36.2564 158.343C-39.3309 135.742 20.9701 80.4007 57.8895 60.2786ZM71.0929 135.024C100.738 152.843 120.079 139.335 110.311 108.451C106.446 96.2279 92.7279 81.9172 81.668 75.0137C78.7011 73.3387 66.902 73.9272 63.0056 74.1592C48.3782 82.6359 49.7377 91.8369 41.916 97.1673C32.3373 103.697 19.7701 97.371 15.3368 118.042C11.8907 134.112 27.4494 140.659 41.4191 142.963C51.1716 144.564 62.5093 138.594 71.0929 135.024Z" fill="#275166"/>
<path d="M234.406 116.379C247.939 122.994 252.648 141.639 250.147 154.773C248.301 164.455 244.782 165.038 236.788 170.17C206.725 155.254 218.134 137.016 234.406 116.379Z" fill="#274A62"/>
<path d="M304.969 122.354C328.472 130.366 330.086 155.541 312.503 169.756C306.864 169.298 306.999 169.303 301.723 167.396C290.606 152.871 291.772 135.317 304.969 122.354Z" fill="#2B576B"/>
</svg>
