<svg xmlns="http://www.w3.org/2000/svg" width="16" height="16" viewBox="0 0 16 16" fill="none">
  <path d="M11.3333 2.33325H4.66665C2.66665 2.33325 1.33331 3.33325 1.33331 5.66658V10.3333C1.33331 12.6666 2.66665 13.6666 4.66665 13.6666H11.3333C13.3333 13.6666 14.6666 12.6666 14.6666 10.3333V5.66658C14.6666 3.33325 13.3333 2.33325 11.3333 2.33325ZM11.6466 6.39325L9.55998 8.05992C9.11998 8.41325 8.55998 8.58659 7.99998 8.58659C7.43998 8.58659 6.87331 8.41325 6.43998 8.05992L4.35331 6.39325C4.13998 6.21992 4.10665 5.89992 4.27331 5.68658C4.44665 5.47325 4.75998 5.43325 4.97331 5.60659L7.05998 7.27325C7.56665 7.67992 8.42665 7.67992 8.93331 7.27325L11.02 5.60659C11.2333 5.43325 11.5533 5.46658 11.72 5.68658C11.8933 5.89992 11.86 6.21992 11.6466 6.39325Z" fill="currentColor"/>
</svg>