<svg width="37" height="25" viewBox="0 0 37 25" fill="none" xmlns="http://www.w3.org/2000/svg">
<path d="M28.2672 17.5646C28.2672 17.3075 28.4749 17.0997 28.7321 17.0997C28.9892 17.0997 29.1969 17.3075 29.1969 17.5646V20.5669C29.1969 20.5786 29.1969 20.5903 29.1957 20.6033C29.2008 21.1032 29.1814 21.4356 29.0307 21.7694C28.8775 22.1096 28.6165 22.3862 28.1373 22.7667C28.1295 22.7732 28.1204 22.7796 28.1126 22.7848L26.9634 23.6821C26.6063 23.9691 26.2895 24.1678 25.957 24.3003C25.6168 24.4353 25.274 24.495 24.8701 24.5002H24.8649L14.8595 24.5015C14.4505 24.5015 14.1557 24.4795 13.8635 24.3899C13.5649 24.2977 13.3077 24.1483 12.9857 23.8951C12.9792 23.8899 12.9714 23.8834 12.9649 23.8782L10.1419 21.5148C10.1302 21.5058 10.1198 21.4954 10.1094 21.485C9.81721 21.2318 9.63411 21.0045 9.51464 20.7539C9.38998 20.4903 9.34583 20.2254 9.33284 19.8981C9.33284 19.8916 9.33284 19.8865 9.33284 19.88H9.33154V10.4316C9.33154 10.4134 9.33155 10.3953 9.33414 10.3784C9.34713 10.0018 9.44323 9.64469 9.6458 9.31096C9.84838 8.97593 10.1548 8.66816 10.5886 8.39027C10.5899 8.39027 10.5925 8.38769 10.5937 8.38639L11.0651 8.09291C11.282 7.95786 11.569 8.02407 11.704 8.24223C11.8391 8.45909 11.7728 8.74608 11.5547 8.88113L11.0833 9.17461C10.7781 9.37069 10.5704 9.57586 10.4405 9.79012C10.3236 9.98231 10.2678 10.1875 10.26 10.4043C10.26 10.4134 10.26 10.4225 10.26 10.4316V19.88C10.2691 20.076 10.2925 20.228 10.3548 20.3578C10.4171 20.4903 10.5288 20.6227 10.7132 20.7825C10.7223 20.7889 10.7301 20.7954 10.7392 20.8019L13.5623 23.1653C13.7947 23.3471 13.9635 23.451 14.1336 23.5029C14.3115 23.5575 14.5336 23.5705 14.8608 23.5705H24.8662C25.1519 23.5679 25.3896 23.5276 25.6168 23.4367C25.8545 23.3432 26.096 23.1887 26.383 22.9575C26.383 22.9575 26.3869 22.9549 26.3882 22.9536L27.5426 22.0525C27.5426 22.0525 27.5543 22.0421 27.5608 22.0369C27.9166 21.7538 28.1023 21.5681 28.1854 21.3837C28.2633 21.2097 28.2737 20.9746 28.2698 20.6085C28.2685 20.5929 28.2672 20.5773 28.2672 20.563V17.5607V17.5646ZM13.0675 7.89163C12.8532 8.03057 12.5663 7.96954 12.4273 7.75527C12.2884 7.54101 12.3494 7.25404 12.5637 7.11509L13.835 6.29311C14.0752 6.13858 14.2933 6.03079 14.5271 5.96067C14.7647 5.88925 15.0089 5.85938 15.2971 5.85938H27.44C27.9296 5.85938 28.3646 6.05935 28.6801 6.3775C29.0022 6.70214 29.1969 7.14755 29.1969 7.62672V15.4272C29.1969 15.6843 28.9892 15.8921 28.7321 15.8921C28.4749 15.8921 28.2672 15.6843 28.2672 15.4272V7.62672C28.2672 7.39687 28.175 7.18391 28.0218 7.03068C27.875 6.88264 27.6698 6.78915 27.4387 6.78915H15.2958C15.0959 6.78915 14.9348 6.80733 14.7907 6.85148C14.6427 6.89563 14.4998 6.96706 14.3375 7.07224L13.0662 7.89423L13.0675 7.89163Z" fill="currentColor"/>
<path d="M9.92244 19.9105H6.39165C5.96702 19.9105 5.58004 19.7365 5.30085 19.4573C5.02166 19.1781 4.84766 18.7912 4.84766 18.3665V11.9893C4.84766 11.5647 5.02166 11.1777 5.30085 10.8985C5.58004 10.6193 5.96702 10.4453 6.39165 10.4453H9.79647V11.3751H6.39165C6.22284 11.3751 6.0696 11.4439 5.95793 11.5556C5.84625 11.6672 5.77742 11.8205 5.77742 11.9893V18.3665C5.77742 18.5354 5.84625 18.6886 5.95793 18.8003C6.0696 18.9119 6.22284 18.9808 6.39165 18.9808H9.92244V19.9105Z" fill="currentColor"/>
<path d="M31.3397 20.3233H28.5413V19.3935H31.3397V20.3233ZM28.5413 13.25H31.3397V14.1798H28.5413V13.25Z" fill="currentColor"/>
<path d="M3.28662 13.3281H5.45652V14.2579H3.28662V13.3281ZM5.45652 17.0329H3.28662V16.1032H5.45652V17.0329Z" fill="currentColor"/>
<path d="M17.2268 6.22374V4.21875H18.1566V6.22374H17.2268ZM23.408 4.21875V6.22374H22.4782V4.21875H23.408Z" fill="currentColor"/>
<path d="M18.2813 11.4063C18.1697 11.6375 17.8918 11.7323 17.6606 11.6206C17.4295 11.5089 17.3347 11.231 17.4464 10.9999L17.9995 9.86492C18.0632 9.73376 18.1632 9.64287 18.2813 9.58314C18.3891 9.5286 18.5008 9.50781 18.6086 9.50781H21.5641C21.6758 9.50781 21.7952 9.54678 21.8965 9.6143C21.9705 9.66365 22.042 9.73117 22.0939 9.80909C22.1601 9.90778 22.203 10.026 22.203 10.1545C22.203 10.2623 22.1731 10.3714 22.1043 10.4779L20.6421 12.7231H22.5069C22.6315 12.7231 22.7484 12.7568 22.8523 12.8191C22.8679 12.8282 22.8834 12.8399 22.8977 12.8503C22.9795 12.91 23.0484 12.9867 23.0964 13.0802C23.1548 13.1892 23.1795 13.3087 23.173 13.4282C23.173 13.4347 23.173 13.4412 23.1717 13.4477C23.1613 13.5593 23.1237 13.6671 23.0587 13.7645L18.4112 20.6391C18.3995 20.656 18.3865 20.6729 18.3735 20.6871C18.2437 20.8495 18.0684 20.9339 17.8983 20.9495C17.7918 20.9598 17.6879 20.9443 17.5957 20.9053C17.4879 20.8611 17.3957 20.7871 17.3282 20.6884C17.2295 20.543 17.1918 20.356 17.2542 20.1456L18.6878 15.3773H16.3802C16.266 15.3773 16.1556 15.3475 16.0556 15.2929C15.9569 15.2384 15.8751 15.1605 15.8128 15.0618C15.7517 14.9644 15.718 14.8566 15.7128 14.7436C15.7063 14.6306 15.7284 14.5203 15.779 14.4164L16.6361 12.6581C16.7477 12.4283 17.0256 12.3322 17.2568 12.4439C17.4879 12.5556 17.5827 12.8334 17.471 13.0646L16.7971 14.4475H19.3111C19.3552 14.4475 19.3994 14.454 19.4436 14.467C19.689 14.5397 19.8292 14.7982 19.7552 15.0436L18.7021 18.5484L22.0134 13.6515H19.7838C19.6968 13.6502 19.6098 13.6256 19.5319 13.5749C19.3176 13.436 19.2566 13.149 19.3955 12.9347L21.0226 10.4376H18.7514L18.2787 11.4076L18.2813 11.4063Z" fill="currentColor"/>
<path d="M9.56918 12.8281C9.82629 12.8281 10.0341 13.0359 10.0341 13.293C10.0341 13.5501 9.82629 13.7579 9.56918 13.7579H7.30449C7.04737 13.7579 6.8396 13.5501 6.8396 13.293C6.8396 13.0359 7.04737 12.8281 7.30449 12.8281H9.56918Z" fill="currentColor"/>
<path d="M23.9287 1.42848H16.7074C16.6333 1.42848 16.5671 1.45834 16.5178 1.50769C16.4684 1.55703 16.4386 1.62327 16.4386 1.69729V3.2205C16.4386 3.29451 16.4684 3.36074 16.5178 3.41008C16.5671 3.45943 16.6333 3.48929 16.7074 3.48929H23.9287C24.0027 3.48929 24.0689 3.45943 24.1183 3.41008C24.1676 3.36074 24.1975 3.29451 24.1975 3.2205V1.69729C24.1975 1.62327 24.1676 1.55703 24.1183 1.50769C24.0689 1.45834 24.0027 1.42848 23.9287 1.42848ZM16.7074 0.5H23.9287C24.2585 0.5 24.5585 0.635061 24.7753 0.851921C24.9922 1.06878 25.1272 1.36875 25.1272 1.69859V3.2218C25.1272 3.55163 24.9922 3.8516 24.7753 4.06846C24.5585 4.28532 24.2585 4.42037 23.9287 4.42037H16.7074C16.3775 4.42037 16.0776 4.28532 15.8607 4.06846C15.6438 3.8516 15.5088 3.55163 15.5088 3.2218V1.69859C15.5088 1.36875 15.6438 1.06878 15.8607 0.851921C16.0776 0.635061 16.3775 0.5 16.7074 0.5Z" fill="currentColor"/>
<path d="M34.4264 11.5001H32.8474C32.6188 11.5001 32.411 11.5936 32.2591 11.7455C32.1085 11.8962 32.0137 12.1052 32.0137 12.3338V21.2471C32.0137 21.4756 32.1072 21.6834 32.2591 21.8353C32.4097 21.9873 32.6188 22.0808 32.8474 22.0808H34.4264C34.6549 22.0808 34.8627 21.9873 35.0147 21.8353C35.1653 21.6847 35.2601 21.4756 35.2601 21.2471V12.3338C35.2601 12.1052 35.1666 11.8974 35.0147 11.7455C34.864 11.5936 34.6549 11.5001 34.4264 11.5001ZM32.8474 10.5703H34.4264C34.9121 10.5703 35.3523 10.769 35.6717 11.0871C35.9912 11.4066 36.1886 11.8468 36.1886 12.3325V21.2458C36.1886 21.7315 35.9899 22.1717 35.6717 22.4911C35.3523 22.8106 34.9121 23.0079 34.4264 23.0079H32.8474C32.3617 23.0079 31.9215 22.8093 31.602 22.4911C31.2826 22.1717 31.0852 21.7315 31.0852 21.2458V12.3325C31.0852 11.8481 31.2839 11.4066 31.602 11.0871C31.9215 10.7677 32.3617 10.5703 32.8474 10.5703Z" fill="currentColor"/>
<path d="M1.73359 9.06908C1.51283 9.06908 1.31155 9.15999 1.16611 9.30543C1.02068 9.45087 0.929775 9.65215 0.929775 9.8729V20.4782C0.929775 20.699 1.02068 20.9003 1.16611 21.0457C1.31155 21.1912 1.51283 21.2821 1.73359 21.2821C1.95434 21.2821 2.15562 21.1912 2.30106 21.0457C2.44649 20.9003 2.5374 20.699 2.5374 20.4782V9.8729C2.5374 9.65215 2.44649 9.45087 2.30106 9.30543C2.15432 9.15999 1.95434 9.06908 1.73359 9.06908ZM1.73359 8.14062C2.21146 8.14062 2.64388 8.3354 2.95813 8.64965C3.27238 8.9639 3.46716 9.39763 3.46716 9.8742V20.4795C3.46716 20.9574 3.27238 21.3898 2.95813 21.7041C2.64388 22.0184 2.21016 22.2131 1.73359 22.2131C1.25701 22.2131 0.821988 22.0184 0.509034 21.7041C0.194782 21.3898 0 20.9561 0 20.4795V9.8742C0 9.39633 0.194782 8.9639 0.509034 8.64965C0.823286 8.3354 1.25701 8.14062 1.73359 8.14062Z" fill="currentColor"/>
</svg>
