<svg width="16" height="16" viewBox="0 0 16 16" fill="none" xmlns="http://www.w3.org/2000/svg">
<path d="M10.3866 8.00385C10.3866 9.32385 9.31995 10.3905 7.99995 10.3905C6.67995 10.3905 5.61328 9.32385 5.61328 8.00385C5.61328 6.68385 6.67995 5.61719 7.99995 5.61719C9.31995 5.61719 10.3866 6.68385 10.3866 8.00385Z" stroke="white" stroke-linecap="round" stroke-linejoin="round"/>
<path d="M8.00014 13.5099C10.3535 13.5099 12.5468 12.1232 14.0735 9.72323C14.6735 8.78323 14.6735 7.20323 14.0735 6.26323C12.5468 3.86323 10.3535 2.47656 8.00014 2.47656C5.64681 2.47656 3.45347 3.86323 1.92681 6.26323C1.32681 7.20323 1.32681 8.78323 1.92681 9.72323C3.45347 12.1232 5.64681 13.5099 8.00014 13.5099Z" stroke="white" stroke-linecap="round" stroke-linejoin="round"/>
</svg>
