<svg width="20" height="20" viewBox="0 0 20 20" fill="none" xmlns="http://www.w3.org/2000/svg">
<path d="M4.49967 1.74951H15.4997C16.4163 1.74951 17.1663 2.49951 17.1663 3.41618V5.24951C17.1663 5.91618 16.7497 6.74951 16.333 7.16618L12.7497 10.3328C12.2497 10.7495 11.9163 11.5828 11.9163 12.2495V15.8328C11.9163 16.3328 11.583 16.9995 11.1663 17.2495L9.99967 17.9995C8.91634 18.6662 7.41634 17.9162 7.41634 16.5828V12.1662C7.41634 11.5828 7.08301 10.8328 6.74967 10.4162L3.58301 7.08285C3.16634 6.66618 2.83301 5.91618 2.83301 5.41618V3.49951C2.83301 2.49951 3.58301 1.74951 4.49967 1.74951Z" fill="currentColor"/>
</svg>
