<svg width="16" height="16" viewBox="0 0 16 16" fill="none" xmlns="http://www.w3.org/2000/svg">
<path d="M1.72052 12.6735L1.70719 12.6868C1.52719 12.2935 1.41385 11.8468 1.36719 11.3535C1.41385 11.8402 1.54052 12.2802 1.72052 12.6735Z" fill="#1D2742"/>
<path d="M10.792 1.33398H5.20536C2.7787 1.33398 1.33203 2.78065 1.33203 5.20732V10.794C1.33203 11.5207 1.4587 12.154 1.70536 12.6873C2.2787 13.954 3.50536 14.6673 5.20536 14.6673H10.792C13.2187 14.6673 14.6654 13.2207 14.6654 10.794V9.26732V5.20732C14.6654 2.78065 13.2187 1.33398 10.792 1.33398ZM13.5787 8.33398C13.0587 7.88732 12.2187 7.88732 11.6987 8.33398L8.92536 10.714C8.40536 11.1607 7.56536 11.1607 7.04536 10.714L6.8187 10.5273C6.34536 10.114 5.59203 10.074 5.0587 10.434L2.56536 12.1073C2.4187 11.734 2.33203 11.3007 2.33203 10.794V5.20732C2.33203 3.32732 3.32536 2.33398 5.20536 2.33398H10.792C12.672 2.33398 13.6654 3.32732 13.6654 5.20732V8.40732L13.5787 8.33398Z" fill="#1D2742"/>
<path d="M6.00073 6.9204C6.87702 6.9204 7.5874 6.21003 7.5874 5.33374C7.5874 4.45745 6.87702 3.74707 6.00073 3.74707C5.12444 3.74707 4.41406 4.45745 4.41406 5.33374C4.41406 6.21003 5.12444 6.9204 6.00073 6.9204Z" fill="#1D2742"/>
</svg>
