<svg width="41" height="40" viewBox="0 0 41 40" fill="none" xmlns="http://www.w3.org/2000/svg">
<path d="M15.4987 36.6673H25.4987C33.832 36.6673 37.1654 33.334 37.1654 25.0007V15.0007C37.1654 6.66732 33.832 3.33398 25.4987 3.33398H15.4987C7.16536 3.33398 3.83203 6.66732 3.83203 15.0007V25.0007C3.83203 33.334 7.16536 36.6673 15.4987 36.6673Z" stroke="white" stroke-width="1.5" stroke-linecap="round" stroke-linejoin="round"/>
<path d="M15.5013 16.6676C17.3423 16.6676 18.8346 15.1753 18.8346 13.3343C18.8346 11.4934 17.3423 10.001 15.5013 10.001C13.6604 10.001 12.168 11.4934 12.168 13.3343C12.168 15.1753 13.6604 16.6676 15.5013 16.6676Z" stroke="white" stroke-width="1.5" stroke-linecap="round" stroke-linejoin="round"/>
<path d="M4.95312 31.5836L13.1698 26.0669C14.4865 25.1836 16.3865 25.2836 17.5698 26.3003L18.1198 26.7836C19.4198 27.9003 21.5198 27.9003 22.8198 26.7836L29.7531 20.8336C31.0531 19.7169 33.1531 19.7169 34.4531 20.8336L37.1698 23.1669" stroke="white" stroke-width="1.5" stroke-linecap="round" stroke-linejoin="round"/>
</svg>
