<svg width="20" height="25" viewBox="0 0 20 25" fill="none" xmlns="http://www.w3.org/2000/svg">
<path d="M2.9744 11.1406C2.9744 11.3595 2.79758 11.5363 2.57875 11.5363C2.35993 11.5363 2.18311 11.3595 2.18311 11.1406V2.88276C2.18311 2.22739 2.45055 1.6306 2.88268 1.19958C3.3148 0.767455 3.91049 0.5 4.56586 0.5H15.2109C15.8663 0.5 16.4631 0.767455 16.8941 1.19958C17.3251 1.6317 17.5937 2.22739 17.5937 2.88276V20.1467C17.5937 20.3656 17.4169 20.5424 17.198 20.5424C16.9792 20.5424 16.8024 20.3656 16.8024 20.1467V2.88276C16.8024 2.44511 16.6233 2.04725 16.3349 1.7588C16.0464 1.47035 15.6486 1.2913 15.2109 1.2913H4.56586C4.12821 1.2913 3.73035 1.47035 3.4419 1.7588C3.15345 2.04725 2.9744 2.44511 2.9744 2.88276V11.1406ZM2.9744 20.2263C2.9744 20.4451 2.79758 20.622 2.57875 20.622C2.35993 20.622 2.18311 20.4451 2.18311 20.2263V12.6415C2.18311 12.4226 2.35993 12.2458 2.57875 12.2458C2.79758 12.2458 2.9744 12.4226 2.9744 12.6415V20.2263Z" fill="currentColor"/>
<path d="M14.6561 3.39062C14.5854 3.31989 14.4871 3.27569 14.3799 3.27569H5.4865C5.3793 3.27569 5.28094 3.31989 5.21021 3.39062C5.13948 3.46135 5.09527 3.55971 5.09527 3.66692V8.4247H14.7722V3.66692C14.7722 3.55971 14.728 3.46135 14.6573 3.39062M14.3799 2.48438C14.7059 2.48438 15.001 2.617 15.2154 2.8314C15.4298 3.04581 15.5624 3.34089 15.5624 3.66692V8.60595C15.5624 8.77394 15.4939 8.92645 15.3834 9.03697C15.2728 9.14749 15.1203 9.21601 14.9523 9.21601H4.91401C4.74603 9.21601 4.59351 9.14749 4.48299 9.03697C4.37248 8.92645 4.30396 8.77394 4.30396 8.60595V3.66692C4.30396 3.34089 4.43658 3.04581 4.65098 2.8314C4.86539 2.617 5.16048 2.48438 5.4865 2.48438H14.3799Z" fill="currentColor"/>
<path d="M17.9032 20.9529C17.7507 20.8004 17.5407 20.7054 17.3097 20.7054H2.46939C2.23841 20.7054 2.02843 20.8004 1.87591 20.9529C1.7234 21.1054 1.62835 21.3154 1.62835 21.5464V23.7126H18.1519V21.5464C18.1519 21.3154 18.0568 21.1054 17.9043 20.9529M17.3086 19.9141C17.7584 19.9141 18.1662 20.0975 18.4613 20.3926C18.7564 20.6877 18.9409 21.0966 18.9409 21.5453V24.1071C18.9409 24.3259 18.7641 24.5028 18.5453 24.5028H1.2316C1.01277 24.5028 0.835938 24.3259 0.835938 24.1071V21.5453C0.835938 21.0966 1.01941 20.6877 1.31559 20.3926C1.61068 20.0975 2.01958 19.9141 2.46829 19.9141H17.3086Z" fill="currentColor"/>
<path d="M17.3209 14.2913C17.102 14.2913 16.9252 14.1145 16.9252 13.8957C16.9252 13.6768 17.102 13.5 17.3209 13.5H18.0591C18.4614 13.5 18.8261 13.6636 19.0902 13.9288C19.3544 14.1929 19.519 14.5588 19.519 14.9599V17.5251C19.519 17.9273 19.3544 18.292 19.0902 18.5562C18.8261 18.8203 18.4603 18.985 18.0591 18.985H17.2965C17.0777 18.985 16.9009 18.8082 16.9009 18.5893C16.9009 18.3705 17.0777 18.1937 17.2965 18.1937H18.0591C18.2426 18.1937 18.4094 18.1185 18.531 17.997C18.6526 17.8754 18.7277 17.7085 18.7277 17.5251V14.9599C18.7277 14.7765 18.6526 14.6096 18.531 14.488C18.4094 14.3665 18.2426 14.2913 18.0591 14.2913H17.3209Z" fill="currentColor"/>
<path d="M9.08845 11.9364C8.99341 12.1331 8.75689 12.2138 8.56017 12.1188C8.36345 12.0237 8.28277 11.7872 8.37782 11.5905L8.78231 10.7616C8.83536 10.6544 8.91604 10.5793 9.0144 10.5306C9.10171 10.4864 9.19233 10.4688 9.27854 10.4688H11.4381C11.5298 10.4688 11.6281 10.5008 11.711 10.5561C11.7707 10.5958 11.8282 10.65 11.8713 10.7141C11.9254 10.7948 11.9608 10.8909 11.9608 10.997H11.9597C11.9597 11.0877 11.9354 11.1783 11.8801 11.2634L10.8678 12.8173H12.1277C12.2283 12.8173 12.3244 12.8449 12.4084 12.8957C12.4913 12.9455 12.5598 13.0173 12.6084 13.1079C12.656 13.1963 12.6759 13.2936 12.6703 13.3908C12.6703 13.3975 12.6703 13.4041 12.6692 13.4118C12.6604 13.5014 12.6294 13.5876 12.5775 13.6649L9.18128 18.6879C9.17134 18.7034 9.16029 18.7178 9.14813 18.7311C9.04314 18.8604 8.90167 18.9267 8.76573 18.9399C8.67953 18.9488 8.59333 18.9355 8.51707 18.9035C8.42866 18.867 8.3524 18.8062 8.29714 18.7244C8.21646 18.6051 8.18442 18.4525 8.23636 18.2801L9.26196 14.8674H7.65062C7.55778 14.8674 7.46826 14.843 7.38648 14.7988C7.3058 14.7546 7.23948 14.6905 7.18865 14.611C7.13891 14.5314 7.11239 14.443 7.10686 14.3512C7.10244 14.2595 7.12012 14.1689 7.16102 14.0849L7.78766 12.7996C7.8827 12.6028 8.11921 12.5222 8.31593 12.6172C8.51266 12.7123 8.59334 12.9488 8.49829 13.1455L8.04516 14.076H9.79245C9.83002 14.076 9.8676 14.0816 9.90518 14.0926C10.1141 14.1545 10.2334 14.3744 10.1704 14.5844L9.50621 16.7948L11.6613 13.6075H10.1373C10.0632 13.6063 9.98916 13.5853 9.92285 13.5422C9.7405 13.424 9.68856 13.1797 9.80682 12.9974L10.9396 11.259H9.41779L9.08734 11.9364H9.08845Z" fill="currentColor"/>
</svg>
