<svg width="24" height="25" viewBox="0 0 24 25" fill="none" xmlns="http://www.w3.org/2000/svg">
<path opacity="0.4" d="M21.6599 10.9385L20.6799 15.1185C19.8399 18.7285 18.1799 20.1885 15.0599 19.8885C14.5599 19.8485 14.0199 19.7585 13.4399 19.6185L11.7599 19.2185C7.58994 18.2285 6.29994 16.1685 7.27994 11.9885L8.25994 7.79854C8.45994 6.94854 8.69994 6.20854 8.99994 5.59854C10.1699 3.17854 12.1599 2.52854 15.4999 3.31854L17.1699 3.70854C21.3599 4.68854 22.6399 6.75854 21.6599 10.9385Z" fill="currentColor"/>
<path d="M15.0601 19.8916C14.4401 20.3116 13.6601 20.6616 12.7101 20.9716L11.1301 21.4916C7.1601 22.7716 5.0701 21.7016 3.7801 17.7316L2.5001 13.7816C1.2201 9.81156 2.2801 7.71156 6.2501 6.43156L7.8301 5.91156C8.2401 5.78156 8.6301 5.67156 9.0001 5.60156C8.7001 6.21156 8.4601 6.95156 8.2601 7.80156L7.2801 11.9916C6.3001 16.1716 7.5901 18.2316 11.7601 19.2216L13.4401 19.6216C14.0201 19.7616 14.5601 19.8516 15.0601 19.8916Z" fill="currentColor"/>
<path d="M17.4901 11.0117C17.4301 11.0117 17.3701 11.0017 17.3001 10.9917L12.4501 9.76173C12.0501 9.66173 11.8101 9.25173 11.9101 8.85173C12.0101 8.45173 12.4201 8.21173 12.8201 8.31173L17.6701 9.54173C18.0701 9.64173 18.3101 10.0517 18.2101 10.4517C18.1301 10.7817 17.8201 11.0117 17.4901 11.0117Z" fill="currentColor"/>
<path d="M14.5599 14.3889C14.4999 14.3889 14.4399 14.3789 14.3699 14.3689L11.4599 13.6289C11.0599 13.5289 10.8199 13.1189 10.9199 12.7189C11.0199 12.3189 11.4299 12.0789 11.8299 12.1789L14.7399 12.9189C15.1399 13.0189 15.3799 13.4289 15.2799 13.8289C15.1999 14.1689 14.8999 14.3889 14.5599 14.3889Z" fill="currentColor"/>
</svg>
