<svg width="16" height="16" viewBox="0 0 16 16" fill="none" xmlns="http://www.w3.org/2000/svg">
<path d="M9.56667 1.33594H6.43334C5.74001 1.33594 5.17334 1.89594 5.17334 2.58927V3.21594C5.17334 3.90927 5.73334 4.46927 6.42667 4.46927H9.56667C10.26 4.46927 10.82 3.90927 10.82 3.21594V2.58927C10.8267 1.89594 10.26 1.33594 9.56667 1.33594Z" fill="currentColor"/>
<path d="M11.4934 3.2182C11.4934 4.2782 10.6267 5.14487 9.56669 5.14487H6.43336C5.37336 5.14487 4.50669 4.2782 4.50669 3.2182C4.50669 2.84487 4.10669 2.61154 3.77336 2.78487C2.83336 3.28487 2.19336 4.2782 2.19336 5.4182V11.6915C2.19336 13.3315 3.53336 14.6715 5.17336 14.6715H10.8267C12.4667 14.6715 13.8067 13.3315 13.8067 11.6915V5.4182C13.8067 4.2782 13.1667 3.28487 12.2267 2.78487C11.8934 2.61154 11.4934 2.84487 11.4934 3.2182ZM10.2267 8.49154L7.56003 11.1582C7.46003 11.2582 7.33336 11.3049 7.20669 11.3049C7.08003 11.3049 6.95336 11.2582 6.85336 11.1582L5.85336 10.1582C5.66003 9.96487 5.66003 9.64487 5.85336 9.45154C6.04669 9.2582 6.36669 9.2582 6.56003 9.45154L7.20669 10.0982L9.52003 7.78487C9.71336 7.59154 10.0334 7.59154 10.2267 7.78487C10.42 7.9782 10.42 8.2982 10.2267 8.49154Z" fill="currentColor"/>
</svg>
