<svg width="24" height="24" viewBox="0 0 24 24" fill="none" xmlns="http://www.w3.org/2000/svg">
<path d="M20.04 6.81774L14.28 2.78774C12.71 1.68774 10.3 1.74774 8.78999 2.91774L3.77999 6.82774C2.77999 7.60774 1.98999 9.20774 1.98999 10.4677V17.3677C1.98999 19.9177 4.05999 21.9977 6.60999 21.9977H17.39C19.94 21.9977 22.01 19.9277 22.01 17.3777V10.5977C22.01 9.24774 21.14 7.58774 20.04 6.81774ZM12.75 17.9977C12.75 18.4077 12.41 18.7477 12 18.7477C11.59 18.7477 11.25 18.4077 11.25 17.9977V14.9977C11.25 14.5877 11.59 14.2477 12 14.2477C12.41 14.2477 12.75 14.5877 12.75 14.9977V17.9977Z" fill="currentColor"/>
</svg>
