<svg width="16" height="16" viewBox="0 0 16 16" fill="none" xmlns="http://www.w3.org/2000/svg">
<path d="M7.99992 1.33594C4.32659 1.33594 1.33325 4.32927 1.33325 8.0026C1.33325 11.6759 4.32659 14.6693 7.99992 14.6693C11.6733 14.6693 14.6666 11.6759 14.6666 8.0026C14.6666 4.32927 11.6733 1.33594 7.99992 1.33594ZM7.49992 7.33594C7.49992 7.0626 7.72659 6.83594 7.99992 6.83594C8.27325 6.83594 8.49992 7.0626 8.49992 7.33594V10.6693C8.49992 10.9426 8.27325 11.1693 7.99992 11.1693C7.72659 11.1693 7.49992 10.9426 7.49992 10.6693V7.33594ZM8.61325 5.9226C8.57992 6.00927 8.53325 6.07594 8.47325 6.1426C8.40659 6.2026 8.33325 6.24927 8.25325 6.2826C8.17325 6.31594 8.08659 6.33594 7.99992 6.33594C7.91325 6.33594 7.82659 6.31594 7.74659 6.2826C7.66659 6.24927 7.59325 6.2026 7.52659 6.1426C7.46659 6.07594 7.41992 6.00927 7.38659 5.9226C7.35325 5.8426 7.33325 5.75594 7.33325 5.66927C7.33325 5.5826 7.35325 5.49594 7.38659 5.41594C7.41992 5.33594 7.46659 5.2626 7.52659 5.19594C7.59325 5.13594 7.66659 5.08927 7.74659 5.05594C7.90659 4.98927 8.09325 4.98927 8.25325 5.05594C8.33325 5.08927 8.40659 5.13594 8.47325 5.19594C8.53325 5.2626 8.57992 5.33594 8.61325 5.41594C8.64659 5.49594 8.66659 5.5826 8.66659 5.66927C8.66659 5.75594 8.64659 5.8426 8.61325 5.9226Z" fill="currentColor"/>
</svg>
