<svg width="25" height="24" viewBox="0 0 25 24" fill="none" xmlns="http://www.w3.org/2000/svg">
<path opacity="0.3" d="M22.5 8.20267V15.7027C22.5 19.1027 19.7 22.0026 16.2 22.0026H8.7C5.3 22.0026 2.5 19.2027 2.5 15.7027V8.20267C2.5 4.80267 5.3 2.0026 8.7 2.0026H16.2C19.7 1.9026 22.5 4.70267 22.5 8.20267ZM12.5 7.30265C10 7.30265 7.89999 9.40262 7.89999 11.9026C7.89999 14.4026 10 16.5026 12.5 16.5026C15 16.5026 17.1 14.4026 17.1 11.9026C17.1 9.30262 15 7.30265 12.5 7.30265ZM18.4 5.0026C17.8 5.0026 17.4 5.4026 17.4 6.0026C17.4 6.6026 17.8 7.0026 18.4 7.0026C19 7.0026 19.4 6.6026 19.4 6.0026C19.4 5.5026 18.9 5.0026 18.4 5.0026Z" fill="currentColor"/>
<path d="M12.4999 17.5007C9.39991 17.5007 6.8999 15.0008 6.8999 11.9008C6.8999 8.80076 9.39991 6.30078 12.4999 6.30078C15.5999 6.30078 18.0999 8.80076 18.0999 11.9008C18.0999 15.0008 15.5999 17.5007 12.4999 17.5007ZM12.4999 8.30078C10.4999 8.30078 8.8999 9.90076 8.8999 11.9008C8.8999 13.9008 10.4999 15.5007 12.4999 15.5007C14.4999 15.5007 16.0999 13.9008 16.0999 11.9008C16.0999 9.90076 14.4999 8.30078 12.4999 8.30078Z" fill="currentColor"/>
</svg>
