<svg width="16" height="16" viewBox="0 0 16 16" fill="none" xmlns="http://www.w3.org/2000/svg">
<path d="M10.1733 14.663C10.1333 14.663 10.0866 14.6564 10.0466 14.643C8.70661 14.263 7.29994 14.263 5.95994 14.643C5.71327 14.7097 5.45327 14.5697 5.38661 14.323C5.31327 14.0764 5.45994 13.8164 5.70661 13.7497C7.21327 13.323 8.79994 13.323 10.3066 13.7497C10.5533 13.823 10.6999 14.0764 10.6266 14.323C10.5599 14.5297 10.3733 14.663 10.1733 14.663Z" fill="currentColor"/>
<path d="M12.8067 4.24098C12.1134 2.84098 10.7734 1.80765 9.22006 1.46765C7.5934 1.10765 5.92673 1.49432 4.6534 2.52098C3.3734 3.54098 2.64673 5.06765 2.64673 6.70098C2.64673 8.42765 3.68006 10.2343 5.24006 11.281V11.8343C5.2334 12.021 5.22673 12.3077 5.4534 12.541C5.68673 12.781 6.0334 12.8077 6.30673 12.8077H9.72673C10.0867 12.8077 10.3601 12.7077 10.5467 12.521C10.8001 12.261 10.7934 11.9277 10.7867 11.7477V11.281C12.8534 9.88765 14.1534 6.94765 12.8067 4.24098ZM9.14673 7.74765L8.43339 8.98765C8.34006 9.14765 8.1734 9.24098 8.00006 9.24098C7.91339 9.24098 7.82673 9.22098 7.7534 9.17432C7.5134 9.03432 7.4334 8.72765 7.56673 8.49432L8.1334 7.50765H7.57339C7.24006 7.50765 6.96673 7.36098 6.82006 7.11432C6.67339 6.86098 6.68673 6.55432 6.85339 6.26098L7.56673 5.02098C7.70673 4.78098 8.0134 4.70098 8.24673 4.83432C8.48673 4.97432 8.56673 5.28098 8.43339 5.51432L7.86673 6.50098H8.42673C8.76006 6.50098 9.0334 6.64765 9.18006 6.89432C9.32673 7.14765 9.3134 7.46098 9.14673 7.74765Z" fill="currentColor"/>
</svg>
