<svg width="287" height="265" viewBox="0 0 287 265" fill="none" xmlns="http://www.w3.org/2000/svg">
<path d="M1.39599 164.684C-4.69375 143.226 10.368 96.9441 22.8677 77.2973C29.0458 67.5871 48.7666 66.2344 60.1651 64.2822L61.5001 62.3754C47.0248 54.9399 32.9594 45.8521 36.7503 28.6895C50.6323 -34.161 147.296 20.0034 80.9889 60.5079L78.2287 62.1716C115.368 69.8504 120.442 72.9571 132.528 106.581C147.424 101.686 150.584 100.831 165.014 106.286L168.223 106.518C184.898 88.0088 180.493 87.1826 206.524 76.9122L204.475 75.7466C194.021 69.6579 189.567 65.963 187.278 54.3854C179.045 12.7209 250.887 8.86734 251.507 49.2587C251.697 61.685 239.353 69.3467 231.01 77.8516C234.194 79.504 250.642 84.3534 251.568 85.2475C268.593 101.793 291.109 144.443 285.152 167.586C283.784 172.9 265.127 172.911 267.912 180.935C269.508 188.201 272.692 191.998 270.158 198.975C258.618 209.206 251.697 200.316 250.624 213.365C249.574 226.046 253.139 251.515 244.403 260.422C229.985 266.477 195.628 267.835 189.61 251.068C185.781 240.407 188.37 223.629 182.904 216.267L177.505 215.566C163.149 231.693 189.229 260.807 152.461 263.959C122.557 266.528 114.052 240.09 122.896 217.376C121.388 216.765 108.722 215.679 105.851 215.362C106.848 245.975 110.135 272.384 69.6365 259.969C69.3721 259.935 69.1076 259.901 68.8432 259.867C22.5935 275.734 33.4416 228.705 32.857 202.817C32.6011 191.488 32.9103 179.854 32.8619 168.497L30.033 168.922C16.5038 170.84 12.2184 171.995 1.39599 164.684ZM56.7128 252.822C66.4518 233.261 62.4124 194.476 59.3939 173.019L62.2995 170.155C88.4339 170.648 75.9545 223.205 81.6951 248.358L84.532 249.823C102.901 231.948 80.5981 111.724 97.8832 104.561C115.519 112.364 103.404 147.702 126.086 151.703L135.921 145.568C107.206 118.288 129.629 81.7957 78.514 77.3084C17.2909 71.927 27.9716 112.788 11.4907 155.154C19.5094 156.631 15.9252 157.299 22.6413 153.281C31.2643 137.963 29.0458 115.566 38.1344 106.807L42.9584 106.564C55.9901 118.571 41.01 223.822 52.633 249.704L56.7128 252.822ZM257.955 189.994C251.943 174.66 233.819 132.933 240.642 118.82L244.452 117.977C254.225 129.368 262.685 154.651 271.403 162.477C273.489 148.392 263.808 126.929 255.691 114.74C243.955 97.0966 243.783 96.5084 223.003 91.591C209.132 91.6533 182.677 96.9722 183.021 113.026C186.922 115.516 185.665 115.289 189.996 116.325C195.199 119.771 193.432 118.503 197.119 123.856C199.812 140.663 192.824 154.475 186.91 170.648C188.082 174.467 191.487 184.987 194.052 187.482C209.592 202.619 198.052 228.852 207.647 249.478C216.893 234.222 204.813 204.35 218.635 191.5C225.384 189.683 224.881 189.666 231.5 191.85C231.807 206.031 221.426 238.444 230.893 250.383L233.905 248.98C236.899 234.573 236.599 209.206 236.948 193.712L257.955 189.994ZM107.019 160.79C106.661 167.241 105.196 174.128 108.536 179.317L110.822 180.946C111.232 173.466 113.656 165.606 107.019 160.79ZM211.432 34.5971C203.027 38.1734 199.119 47.1989 202.536 55.138C205.954 63.0771 215.512 67.1625 224.292 64.4407C230.408 62.5451 234.887 57.6898 235.942 51.8162C236.991 45.9425 234.439 40.0125 229.304 36.4079C224.169 32.7977 217.298 32.1017 211.432 34.5971ZM121.507 177.528L128.838 177.019C131.203 176.346 129.551 176.663 133.903 177.2C139.749 188.818 132.265 241.058 138.97 249.552C144.989 244.035 142.688 219.052 144.234 216.76C153.787 202.625 165.64 187.935 166.167 169.505C160.235 157.463 141.848 159.376 130.087 163.065C123.508 167.864 123.65 170.048 121.507 177.528ZM145.118 112.596C140.651 118.843 138.835 120.15 139.473 127.602C143.302 133.731 142.866 133.414 149.627 136.719C153.848 130.845 156.731 128.321 156.382 121.367C151.13 113.937 154.48 117.032 145.118 112.596ZM156.382 216.267C154.56 225.61 152.836 229.169 159.48 237.227C160.597 230.352 162.726 224.371 159.468 218.525L156.382 216.267ZM61.6191 16.0028C52.8888 20.1789 49.2654 29.9512 53.3949 38.1846C57.5245 46.4122 67.9456 50.1923 77.0465 46.7575C83.3092 44.3922 87.6578 39.0505 88.3683 32.843C89.0787 26.6355 86.0363 20.5693 80.4472 17.0496C74.8581 13.53 67.626 13.1282 61.6191 16.0028ZM169.039 138.795C168.419 144.024 167.652 147.951 167.953 153.213L173.192 152.93C180.634 147.713 184.352 136.096 179.431 128.366C172.37 130.76 174.069 131.128 169.039 138.795Z" fill="#2B576B"/>
<path d="M11.4903 155.155C19.5089 156.632 15.9247 157.3 22.6409 153.282C31.2638 137.964 29.0453 115.567 38.1339 106.808L42.958 106.564C55.9896 118.572 41.0095 223.822 52.6325 249.705L56.7124 252.823C61.5407 258.357 61.3425 257.854 68.8427 259.868C22.593 275.735 33.4412 228.706 32.8565 202.818C32.6006 191.489 32.9099 179.855 32.8614 168.498L30.0325 168.922C16.5033 170.841 12.2179 171.995 1.39551 164.684C6.87234 161.216 7.44844 159.937 11.4903 155.155Z" fill="#275166"/>
<path d="M206.524 76.9131C213.555 76.1492 218.942 74.7912 225.39 77.1338L226.365 80.2688C215.297 84.2751 212.966 79.7426 208.757 85.1296C217.31 90.2846 217.101 81.429 223.003 91.5919C209.131 91.6542 182.677 96.9731 183.02 113.027C186.922 115.516 185.665 115.29 189.996 116.326C188.616 121.147 189.781 119.019 186.628 122.771C178.517 121.034 167.406 113.751 165.014 106.287L168.222 106.519C184.898 88.0097 180.493 87.1836 206.524 76.9131Z" fill="#275166"/>
<path d="M121.507 177.529L128.838 177.02C128.227 183.204 125.763 213.704 122.896 217.377C121.387 216.766 108.722 215.679 105.851 215.362C113.072 204.209 117.632 189.955 121.507 177.529Z" fill="#275166"/>
<path d="M135.921 145.568C152.093 146.004 155.608 146.757 169.038 138.795C168.418 144.024 167.652 147.95 167.952 153.213C156.94 150.321 137.89 151.312 126.086 151.702L135.921 145.568Z" fill="#608C97"/>
<path d="M156.382 216.268L159.468 218.525C162.725 224.371 160.597 230.352 159.48 237.227C152.836 229.169 154.56 225.61 156.382 216.268Z" fill="#E6F0F1" fill-opacity="0.0823529"/>
<path d="M107.019 160.791C113.656 165.607 111.232 173.466 110.821 180.947L108.536 179.318C105.196 174.129 106.661 167.242 107.019 160.791Z" fill="#B6C3C5" fill-opacity="0.321569"/>
</svg>
