<svg width="16" height="16" viewBox="0 0 16 16" fill="none" xmlns="http://www.w3.org/2000/svg">
<path d="M5.59326 12.3245V5.5512C5.59326 5.28453 5.67326 5.02453 5.81993 4.80453L7.63993 2.09787C7.92659 1.66453 8.63993 1.35787 9.24659 1.58453C9.89993 1.80453 10.3333 2.53787 10.1933 3.1912L9.8466 5.3712C9.81993 5.5712 9.87326 5.7512 9.98659 5.8912C10.0999 6.01787 10.2666 6.09787 10.4466 6.09787H13.1866C13.7133 6.09787 14.1666 6.3112 14.4333 6.68453C14.6866 7.04453 14.7333 7.5112 14.5666 7.98453L12.9266 12.9779C12.7199 13.8045 11.8199 14.4779 10.9266 14.4779H8.32659C7.87993 14.4779 7.25326 14.3245 6.96659 14.0379L6.11326 13.3779C5.78659 13.1312 5.59326 12.7379 5.59326 12.3245Z" fill="currentColor"/>
<path d="M3.47325 4.25781H2.78659C1.75325 4.25781 1.33325 4.65781 1.33325 5.64448V12.3511C1.33325 13.3378 1.75325 13.7378 2.78659 13.7378H3.47325C4.50659 13.7378 4.92659 13.3378 4.92659 12.3511V5.64448C4.92659 4.65781 4.50659 4.25781 3.47325 4.25781Z" fill="currentColor"/>
</svg>
