<svg width="16" height="16" viewBox="0 0 16 16" fill="none" xmlns="http://www.w3.org/2000/svg">
<path d="M5.33325 8.13281H9.99992" stroke="white" stroke-miterlimit="10" stroke-linecap="round" stroke-linejoin="round"/>
<path d="M5.33325 10.8047H8.25325" stroke="white" stroke-miterlimit="10" stroke-linecap="round" stroke-linejoin="round"/>
<path d="M6.66659 4.0026H9.33325C10.6666 4.0026 10.6666 3.33594 10.6666 2.66927C10.6666 1.33594 9.99992 1.33594 9.33325 1.33594H6.66659C5.99992 1.33594 5.33325 1.33594 5.33325 2.66927C5.33325 4.0026 5.99992 4.0026 6.66659 4.0026Z" stroke="white" stroke-miterlimit="10" stroke-linecap="round" stroke-linejoin="round"/>
<path d="M10.6667 2.67969C12.8867 2.79969 14 3.61969 14 6.66635V10.6664C14 13.333 13.3333 14.6664 10 14.6664H6C2.66667 14.6664 2 13.333 2 10.6664V6.66635C2 3.62635 3.11333 2.79969 5.33333 2.67969" stroke="white" stroke-miterlimit="10" stroke-linecap="round" stroke-linejoin="round"/>
</svg>
