<svg width="16" height="16" viewBox="0 0 16 16" fill="none" xmlns="http://www.w3.org/2000/svg">
<g clip-path="url(#clip0_30_8781)">
<path d="M13.7467 5.63073C13.0467 2.55073 10.3601 1.16406 8.00006 1.16406C8.00006 1.16406 8.00006 1.16406 7.9934 1.16406C5.64006 1.16406 2.94673 2.54406 2.24673 5.62406C1.46673 9.06406 3.5734 11.9774 5.48006 13.8107C6.18673 14.4907 7.0934 14.8307 8.00006 14.8307C8.90673 14.8307 9.8134 14.4907 10.5134 13.8107C12.4201 11.9774 14.5267 9.07073 13.7467 5.63073ZM8.00006 8.97073C6.84006 8.97073 5.90006 8.03073 5.90006 6.87073C5.90006 5.71073 6.84006 4.77073 8.00006 4.77073C9.16006 4.77073 10.1001 5.71073 10.1001 6.87073C10.1001 8.03073 9.16006 8.97073 8.00006 8.97073Z" fill="currentColor"/>
</g>
<defs>
<clipPath id="clip0_30_8781">
<rect width="16" height="16" fill="currentColor"/>
</clipPath>
</defs>
</svg>
