<svg width="24" height="24" viewBox="0 0 24 24" fill="none" xmlns="http://www.w3.org/2000/svg">
<path d="M2.29004 7.77802V17.508C2.29004 19.408 3.64004 20.188 5.28004 19.248L7.63004 17.908C8.14004 17.618 8.99004 17.588 9.52004 17.858L14.77 20.488C15.3 20.748 16.15 20.728 16.66 20.438L20.99 17.958C21.54 17.638 22 16.858 22 16.218V6.48802C22 4.58802 20.65 3.80802 19.01 4.74802L16.66 6.08802C16.15 6.37802 15.3 6.40802 14.77 6.13802L9.52004 3.51802C8.99004 3.25802 8.14004 3.27802 7.63004 3.56802L3.30004 6.04802C2.74004 6.36802 2.29004 7.14802 2.29004 7.77802Z" stroke="white" stroke-width="1.5" stroke-linecap="round" stroke-linejoin="round"/>
<path d="M8.56006 4V17" stroke="white" stroke-width="1.5" stroke-linecap="round" stroke-linejoin="round"/>
<path d="M15.73 6.61719V19.9972" stroke="white" stroke-width="1.5" stroke-linecap="round" stroke-linejoin="round"/>
</svg>
