<svg width="277" height="302" viewBox="0 0 277 302" fill="none" xmlns="http://www.w3.org/2000/svg">
<path d="M126.523 0.282554C189.415 -3.75545 215.115 35.9608 215.096 89.0479C215.084 114.394 212.409 140.969 192.188 159.983C204.55 163.999 212.63 166.605 226.355 174.049C266.337 195.745 288.006 256.039 270.282 295.486C268.895 298.568 267.11 298.044 263.607 298.606C242.177 280.047 279.853 228.933 205.777 183.854C200.998 204.882 198.863 203.681 181.997 216.039C191.421 230.965 203.244 244.002 213.587 258.886C204.336 269.149 184.268 285.796 173.163 295.556C167.985 299.2 170.187 298.07 163.519 299.408C148.966 295.663 128.671 265.014 119.438 252.797C122.732 237.275 124.438 225.838 126.278 210.076C92.811 209.798 80.1666 217.671 75.9333 181.345C-13.3636 226.35 37.1163 283.678 10.7966 301.149C4.56941 299.581 6.71658 300.633 2.07842 296.209C-2.93398 278.69 1.62442 234.964 10.3547 217.264C26.7048 184.128 51.0861 172.084 84.541 159.523C56.9206 133.261 55.8654 64.2698 75.0009 32.9046C86.8111 13.5515 104.535 6.09171 126.523 0.282554ZM178.414 147.25C194.476 126.032 194.9 108.202 194.556 82.8556C162.009 83.2268 112.75 84.165 80.7066 82.5834C82.6575 109.307 81.8106 125.86 97.2711 149.525C126.646 164.732 150.604 165.183 178.414 147.25ZM178.065 173.564C168.764 175.498 160.604 175.723 154.309 180.917C154.61 187.294 158.341 189.875 163.022 194.829C177.261 193.693 185.096 194.047 184.415 177.2L181.47 173.833L178.065 173.564ZM125.205 194.644C126.898 184.685 128.462 186.37 123.885 180.268C111.977 174.129 107.216 175.694 95.1547 169.432C95.4737 178.14 94.5842 183.052 99.2715 190.17C108.241 196.308 113.572 195.646 125.205 194.644ZM148.788 219.525L140.757 251.268C147.45 258.321 154.015 266.629 162.764 270.79C167.102 269.666 165.924 270.391 169.427 268.083C175.666 264.325 179.409 263.322 182.513 257.867C175.881 249.672 156.445 224.772 148.788 219.525ZM128.401 16.6564C95.3265 26.8725 91.1974 37.1265 80.6511 66.1072L152.868 66.0444L194.139 65.9408C183.635 29.6305 172.298 14.9854 128.401 16.6564Z" fill="#275166"/>
<path d="M50.8836 231.481C57.5709 232.933 57.2334 232.632 62.5525 236.557C70.9024 250.714 67.0741 282.526 65.1906 299.087C57.1413 299.296 57.8594 300.474 51.9819 297.187C44.5645 282.448 49.1535 248.717 50.8836 231.481Z" fill="#275166"/>
</svg>
