<svg width="226" height="309" viewBox="0 0 226 309" fill="none" xmlns="http://www.w3.org/2000/svg">
<path d="M20.3472 2.1252C52.3358 0.184288 180.812 -2.21496 206.168 3.99256C211.432 5.28273 216.911 6.40881 219.15 11.4337C222.623 19.2256 223.555 30.6108 224.095 39.0818C225.751 65.2247 227.175 289.663 220.966 299.107C216.537 305.835 207.573 306.86 199.984 307.946C149.369 309.168 98.3247 307.884 47.6608 308.84C36.955 309.044 11.6722 308.721 4.83148 300.641C2.50013 290.484 0.045984 278.046 0.138011 267.6C0.825146 185.584 -0.63495 103.522 0.358942 21.523C0.51232 8.68918 8.87448 5.58262 20.3472 2.1252ZM15.6661 250.307C76.091 250.058 147.479 251.807 206.696 249.572C210.457 243.551 207.156 83.0324 207.383 60.8958C144.663 62.2425 78.5267 61.2014 15.5189 61.1052C17.0036 111.122 18.3778 201.077 15.6661 250.307ZM16.341 292.272C35.814 294.614 48.0166 293.907 67.8576 293.234C74.9989 293.375 86.0483 293.986 92.7724 292.855C94.705 287.852 92.3799 274.6 93.5824 264.72C87.2386 262.92 68.8208 264.658 59.8206 264.459L14.5373 265.037C14.9851 273.576 15.2183 283.936 16.341 292.272ZM15.3961 46.3361C75.3486 44.8932 139.964 46.9643 198.751 44.814L205.567 44.067C209.941 36.3996 206.585 25.0823 205.039 16.2435C147.099 15.3268 74.2751 14.0479 17.0036 16.2322L15.3961 46.3361ZM120.62 263.99L122 265.795C126.043 271.205 127.816 272.58 128.08 279.144C123.921 285.459 122.019 285.889 122.086 292.119C137.393 294.993 188.861 294.665 204.702 293.154C206.647 282.346 207.641 275.692 208.426 264.578C179.235 265.32 149.829 264.505 120.62 263.99Z" fill="#274A62"/>
<path d="M164.652 95.9844L171.198 99.7077L172.094 104.387C167.106 119.541 117.46 174.549 102.901 193.256C94.5393 185.544 86.9686 175.913 79.6494 167.227C73.9008 160.504 69.281 155.938 69.4344 147.518L72.6124 145.735C88.2079 150.743 92.0853 158.212 101.932 170.328C112.11 155.768 152.479 106.396 164.652 95.9844Z" fill="#274A62"/>
<path d="M89.7293 22.5578C103.147 22.3202 126.681 19.2702 134.614 29.3539L133.405 35.3351L128.731 37.1119C115.988 37.5985 93.0485 41.0616 84.4839 32.104C85.6128 25.523 84.539 28.7314 89.7293 22.5578Z" fill="#274A62"/>
</svg>
