<svg width="24" height="24" viewBox="0 0 24 24" fill="none" xmlns="http://www.w3.org/2000/svg">
<path d="M11 1.99988H9C4 1.99988 2 3.99988 2 8.99988V14.9999C2 19.9999 4 21.9999 9 21.9999H15C20 21.9999 22 19.9999 22 14.9999V12.9999" stroke="#1D2742" stroke-width="1.5" stroke-linecap="round" stroke-linejoin="round"/>
<path d="M16.0379 3.02117L8.15793 10.9012C7.85793 11.2012 7.55793 11.7912 7.49793 12.2212L7.06793 15.2312C6.90793 16.3212 7.67793 17.0812 8.76793 16.9312L11.7779 16.5012C12.1979 16.4412 12.7879 16.1412 13.0979 15.8412L20.9779 7.96117C22.3379 6.60117 22.9779 5.02117 20.9779 3.02117C18.9779 1.02117 17.3979 1.66117 16.0379 3.02117Z" stroke="#1D2742" stroke-width="1.5" stroke-miterlimit="10" stroke-linecap="round" stroke-linejoin="round"/>
<path d="M14.9102 4.14844C15.5802 6.53844 17.4502 8.40844 19.8502 9.08844" stroke="#1D2742" stroke-width="1.5" stroke-miterlimit="10" stroke-linecap="round" stroke-linejoin="round"/>
</svg>
