<svg width="34" height="25" viewBox="0 0 34 25" fill="none" xmlns="http://www.w3.org/2000/svg">
<path d="M27.2949 8.82455C27.3294 8.59634 27.5433 8.4404 27.7715 8.4749C27.9997 8.5094 28.1567 8.72352 28.1211 8.95143L27.9099 11.3669C27.9099 11.3669 27.9075 11.3759 27.9071 11.3819C27.8732 11.5582 27.8381 11.7389 27.7982 11.933C27.7648 12.0937 27.7295 12.2526 27.6922 12.4147C27.6382 12.6389 27.4133 12.7773 27.1891 12.7233C26.9649 12.6692 26.8265 12.4444 26.8805 12.2202C26.9113 12.0915 26.944 11.9379 26.9804 11.7611C27.0101 11.6189 27.0452 11.4381 27.0851 11.2258L27.2935 8.82538L27.2949 8.82455ZM19.8618 19.5844C20.0638 19.4726 20.3178 19.5467 20.4285 19.7484C20.5403 19.9504 20.4662 20.2043 20.2642 20.3162L14.3957 23.6465C13.0101 24.4092 11.4923 24.5392 10.1315 24.1468C8.74702 23.7479 7.52657 22.8091 6.77536 21.4484L3.01983 14.6473C2.27607 13.2995 2.12245 11.7839 2.50635 10.4099C2.89087 9.0337 3.81312 7.80276 5.21796 7.02703L9.81503 4.48853L10.7749 3.95824L11.466 3.57642L15.2086 1.50926C15.28 1.46901 15.3496 1.43073 15.4175 1.3944C17.378 0.30838 17.6427 0.161247 20.3176 1.21113C20.3232 1.21264 20.3274 1.21498 20.3328 1.21763L26.9472 4.09972C26.9582 4.10387 26.9678 4.10886 26.9782 4.11528C27.2283 4.23077 27.4486 4.3625 27.6429 4.51025C27.8503 4.6676 28.0234 4.83998 28.1665 5.02491C28.1684 5.02665 28.1709 5.03094 28.1709 5.03094C28.2048 5.07637 28.2255 5.10737 28.2501 5.1515C28.2738 5.19419 28.2888 5.22851 28.3095 5.28251C28.31 5.28507 28.3116 5.28794 28.3121 5.2905C28.3936 5.51102 28.4461 5.74921 28.469 6.00735C28.4912 6.25923 28.485 6.52653 28.4453 6.81029C28.4432 6.8182 28.443 6.82785 28.4409 6.83576L28.3836 7.2166C28.3491 7.44481 28.135 7.60188 27.9071 7.56626C27.6789 7.53176 27.5218 7.31764 27.5575 7.08973L27.6144 6.71002C27.6144 6.71002 27.6163 6.69841 27.6164 6.69358C27.6474 6.46928 27.6537 6.26501 27.6366 6.07993C27.6206 5.89997 27.5828 5.73355 27.5261 5.57903L27.5177 5.55618C27.5177 5.55618 27.5113 5.54841 27.498 5.5303C27.3979 5.40173 27.2785 5.28248 27.1386 5.17595C26.9956 5.06738 26.8265 4.96632 26.6301 4.87615C26.6245 4.87464 26.618 4.87169 26.6126 4.86904L19.9985 1.98583C17.703 1.08483 17.4755 1.21044 15.8208 2.1276C15.7537 2.16536 15.6841 2.20364 15.613 2.24276L11.8704 4.30993L11.1793 4.69174L10.2194 5.22203L5.62235 7.76053C4.42238 8.42275 3.63693 9.46865 3.31101 10.6352C2.98449 11.8041 3.11577 13.0956 3.75243 14.2463L7.50796 21.0474C8.14927 22.2078 9.18641 23.0079 10.3616 23.347C11.5175 23.681 12.811 23.5696 13.9935 22.9184L19.862 19.5881L19.8618 19.5844Z" fill="currentColor"/>
<path d="M25.4746 3.77382C25.3583 3.97284 25.102 4.03865 24.903 3.92232C24.7039 3.806 24.6381 3.5497 24.7545 3.35068C25.1978 2.59595 25.8765 2.02062 26.6671 1.69697C27.44 1.38068 28.3182 1.30462 29.1829 1.53633C30.2376 1.81892 31.0771 2.50183 31.5827 3.37754C32.0883 4.25326 32.2599 5.32178 31.9773 6.37641C31.6948 7.43105 31.0118 8.27059 30.1361 8.77618C29.2604 9.28178 28.1919 9.45342 27.1373 9.17084C26.6094 9.02939 26.1332 8.78549 25.7255 8.46666C25.3039 8.13681 24.9562 7.72504 24.7009 7.26287C24.589 7.06086 24.6631 6.80691 24.8651 6.69506C25.0671 6.58321 25.3211 6.65731 25.4318 6.85901C25.6335 7.2232 25.9073 7.54858 26.2399 7.80851C26.5593 8.05886 26.9345 8.25026 27.3538 8.36263C28.1846 8.58524 29.0266 8.44981 29.7171 8.05209C30.408 7.65324 30.9462 6.9918 31.1688 6.16098C31.3914 5.33016 31.256 4.48821 30.8572 3.79738C30.4583 3.10656 29.7966 2.56942 28.9658 2.3468C28.2796 2.16295 27.588 2.22115 26.9809 2.47039C26.3589 2.72534 25.823 3.17903 25.4729 3.77579" fill="currentColor"/>
<path d="M25.6572 7.69836C25.8578 7.58251 26.1133 7.65096 26.2291 7.85162C26.345 8.05227 26.2765 8.30774 26.0759 8.42358C25.8867 8.53281 25.6746 8.60561 25.4498 8.63504C25.235 8.6635 25.0118 8.65095 24.7937 8.59249C24.3426 8.47164 23.9836 8.17918 23.7677 7.8051C23.5517 7.43102 23.4779 6.9739 23.5988 6.52288C23.7196 6.07186 24.0121 5.71286 24.3862 5.49689C24.7602 5.28092 25.2174 5.20713 25.6684 5.32798C25.9747 5.41006 26.2408 5.57464 26.4483 5.79018C26.6615 6.01206 26.8112 6.28965 26.8783 6.5911C26.9284 6.81535 26.7873 7.03922 26.5619 7.08908C26.3365 7.13893 26.1138 6.99808 26.0639 6.7727C26.0296 6.62054 25.9536 6.47904 25.8456 6.36651C25.7432 6.26033 25.6089 6.1783 25.4507 6.1359C25.2235 6.07502 24.9932 6.11145 24.804 6.22068C24.6148 6.32991 24.4682 6.5111 24.4073 6.73831C24.3464 6.96551 24.3828 7.19577 24.4921 7.38496C24.6013 7.57415 24.7825 7.72083 25.0097 7.78171C25.1239 7.8123 25.2359 7.8193 25.3426 7.80548C25.4518 7.79114 25.5586 7.75433 25.6563 7.69693" fill="currentColor"/>
<path fill-rule="evenodd" clip-rule="evenodd" d="M13.755 11.5613C13.7491 11.5613 13.7432 11.5625 13.7374 11.5625H11.0634C10.8106 11.5625 10.5625 11.47 10.3683 11.3085C10.188 11.1588 10.0628 10.9575 10.009 10.7281C9.94815 10.4707 9.98442 10.2062 10.0827 9.96276C10.298 9.42562 10.8106 8.98093 11.2787 8.66496C11.4706 8.53507 11.7328 8.58655 11.8615 8.77847C11.9914 8.97039 11.9399 9.23253 11.748 9.36126C11.4344 9.57308 11.006 9.9101 10.8609 10.2741C10.8293 10.3548 10.8059 10.4508 10.827 10.5362C10.8387 10.5865 10.8656 10.6298 10.9042 10.6626C10.9487 10.6988 11.006 10.7211 11.0634 10.7211H13.7374C13.7374 10.7211 13.7479 10.7211 13.7526 10.7211C13.9469 10.7187 14.2862 10.7012 14.4302 10.5631C14.5484 10.4496 14.5566 10.191 14.5566 10.04V7.77557C14.5566 7.54387 14.745 7.35546 14.9767 7.35546C15.2084 7.35546 15.3968 7.54387 15.3968 7.77557V10.04C15.3968 10.4566 15.3242 10.865 15.0141 11.1658C14.6841 11.4853 14.1961 11.5555 13.755 11.5613ZM24.2473 16.3558C24.1467 16.1475 24.2345 15.8982 24.4416 15.7976C24.6499 15.697 24.8992 15.7847 24.9998 15.9919C25.0841 16.1662 25.1508 16.3523 25.1953 16.5466C25.2374 16.7303 25.2608 16.9187 25.262 17.1094H26.2953C26.4743 17.1024 26.6545 17.0802 26.8277 17.031C27.1917 16.9281 27.469 16.7139 27.6457 16.3804C27.8341 16.0246 27.8856 15.5893 27.8751 15.1926C27.8657 14.8263 27.8014 14.4553 27.7019 14.1031C27.5147 13.4419 27.1975 12.879 26.6335 12.4706C26.2801 12.2155 25.8717 12.0481 25.4574 11.9229C24.9776 11.7766 24.4767 11.6783 23.9852 11.5777L23.8776 11.5555C23.8518 11.5601 23.8272 11.5625 23.8015 11.5625L16.9088 11.5672C16.9088 11.5672 16.897 11.5672 16.8912 11.5672C16.5378 11.5672 16.1961 11.4794 15.9679 11.1915C15.7795 10.9528 15.7362 10.6532 15.7479 10.3571C15.7479 10.3548 15.7479 10.3525 15.7479 10.3513V7.76855C15.7479 7.53685 15.9363 7.34844 16.168 7.34844C16.3997 7.34844 16.5881 7.53685 16.5881 7.76855V10.3513C16.5881 10.3513 16.5881 10.363 16.5869 10.3688V10.3712C16.5834 10.4414 16.5788 10.6134 16.6256 10.6719C16.6642 10.7211 16.8362 10.7269 16.8912 10.7269C16.897 10.7269 16.9029 10.7269 16.9076 10.7269L23.0467 10.7234C22.4475 9.65967 21.6342 8.75858 20.6336 8.07984C20.2159 7.79079 20.6524 7.0395 21.1801 7.43621C22.3855 8.26708 23.3322 9.3952 23.9969 10.7223C24.0496 10.7328 24.1011 10.7433 24.1537 10.7538C24.6792 10.8615 25.2116 10.9668 25.7265 11.1201C26.197 11.2606 26.6557 11.4431 27.063 11.7193C27.8342 12.2412 28.2601 12.9914 28.5106 13.8737C28.6299 14.2927 28.7025 14.7338 28.7142 15.1703C28.7294 15.7145 28.6463 16.2844 28.3888 16.7701C28.1021 17.3119 27.6469 17.67 27.0559 17.8373C26.8149 17.9052 26.5644 17.938 26.3152 17.9438C26.3128 17.9438 26.3105 17.9438 26.3093 17.9438H26.3058L25.1332 17.9462C25.0033 18.3405 24.7833 18.694 24.4966 18.9807C24.0227 19.4546 23.3685 19.7472 22.6453 19.7472C21.9221 19.7472 21.2679 19.4546 20.794 18.9807C20.5084 18.6951 20.2896 18.3452 20.1597 17.9532L16.4044 17.959C15.907 17.9567 15.9012 17.1188 16.4044 17.1211L20.0275 17.1153C20.031 16.3991 20.3235 15.7496 20.794 15.2792C21.2679 14.8052 21.9221 14.5127 22.6453 14.5127C22.7682 14.5127 22.8922 14.522 23.0174 14.5396C23.138 14.5571 23.2597 14.5841 23.3802 14.6192C23.6014 14.6835 23.7289 14.9152 23.6646 15.1364C23.6002 15.3576 23.3685 15.4851 23.1473 15.4208C23.0701 15.3985 22.987 15.3798 22.8992 15.3681C22.8197 15.3564 22.7342 15.3506 22.6441 15.3506C22.1526 15.3506 21.7079 15.5495 21.3849 15.8725C21.0631 16.1943 20.863 16.6402 20.863 17.1317C20.863 17.6232 21.0619 18.0679 21.3849 18.3909C21.7068 18.7127 22.1514 18.9128 22.6441 18.9128C23.1368 18.9128 23.5803 18.7138 23.9033 18.3909C24.2263 18.0679 24.4252 17.6232 24.4252 17.1317C24.4252 16.9912 24.41 16.8578 24.3808 16.7326C24.3503 16.6004 24.3059 16.474 24.2473 16.3546V16.3558ZM7.73404 11.0616C8.7346 9.20796 10.2512 7.71941 12.1599 6.81598C13.4437 6.20862 14.8608 5.89266 16.2815 5.9067C17.4529 5.9184 18.6103 6.15362 19.6846 6.61236C20.0871 6.81247 19.88 7.55791 19.2703 7.34844C18.3224 6.95641 17.3043 6.75629 16.2745 6.74576C14.9802 6.73289 13.6882 7.02194 12.5192 7.57547C10.7451 8.4157 9.34547 9.80829 8.43151 11.5403C8.39875 11.6023 8.35193 11.6538 8.29459 11.6924C7.42393 12.315 6.68316 13.4478 6.34379 14.46C6.194 14.9059 6.09102 15.4196 6.14837 15.89C6.19283 16.2552 6.33911 16.584 6.64103 16.8052C7.01317 17.0767 7.53744 17.1399 7.98564 17.1364H8.61523V17.1328C8.61523 16.4096 8.9078 15.7555 9.38175 15.2815C9.8557 14.8076 10.5099 14.515 11.2319 14.515C11.3548 14.515 11.4788 14.5244 11.604 14.5419C11.7246 14.5595 11.8463 14.5864 11.9668 14.6215C12.188 14.6859 12.3156 14.9176 12.2512 15.1388C12.1868 15.3599 11.9563 15.4875 11.7339 15.4231C11.6567 15.4009 11.5736 15.3822 11.4858 15.3705C11.4063 15.3588 11.3208 15.3529 11.2307 15.3529C10.7392 15.3529 10.2945 15.5518 9.97154 15.8748C9.64973 16.1967 9.44962 16.6425 9.44962 17.134C9.44962 17.6255 9.64856 18.0702 9.97154 18.3932C10.2934 18.715 10.7392 18.9151 11.2307 18.9151C11.7222 18.9151 12.1669 18.7162 12.4899 18.3932C12.8117 18.0714 13.0118 17.6255 13.0118 17.134C13.0118 16.9936 12.9966 16.8602 12.9674 16.735C12.937 16.6027 12.8925 16.4763 12.834 16.357C12.7333 16.1487 12.8211 15.8994 13.0282 15.7988C13.2365 15.6981 13.4858 15.7859 13.5864 15.993C13.6707 16.1674 13.7374 16.3535 13.7819 16.5477C13.8252 16.7373 13.8486 16.9316 13.8486 17.1282H14.9556C15.4869 17.1258 15.474 17.9649 14.9556 17.9649L13.714 17.9672C13.5841 18.3546 13.3653 18.7021 13.0832 18.9853C12.6093 19.4593 11.9551 19.7519 11.2319 19.7519C10.5087 19.7519 9.85453 19.4593 9.38175 18.9853C9.10089 18.7045 8.88323 18.3593 8.75333 17.9754H7.99267C7.35255 17.9813 6.67615 17.8689 6.14837 17.4839C5.65101 17.1211 5.38888 16.5969 5.31515 15.9942C5.24143 15.3962 5.35962 14.7619 5.5492 14.1955C5.93421 13.0464 6.7604 11.793 7.73638 11.064L7.73404 11.0616Z" fill="currentColor"/>
</svg>
