<svg width="16" height="16" viewBox="0 0 16 16" fill="none" xmlns="http://www.w3.org/2000/svg">
<path d="M4.44536 9.3335L2.66536 9.3335C1.93203 9.3335 1.33203 9.9335 1.33203 10.6668L1.33203 14.0002C1.33203 14.3668 1.63203 14.6668 1.9987 14.6668L4.44536 14.6668C4.81203 14.6668 5.11203 14.3668 5.11203 14.0002L5.11203 10.0002C5.11203 9.6335 4.81203 9.3335 4.44536 9.3335Z" fill="#1D2742"/>
<path d="M8.88677 6.6665L7.10677 6.6665C6.37344 6.6665 5.77344 7.2665 5.77344 7.99984L5.77344 13.9998C5.77344 14.3665 6.07344 14.6665 6.4401 14.6665L9.55344 14.6665C9.9201 14.6665 10.2201 14.3665 10.2201 13.9998L10.2201 7.99984C10.2201 7.2665 9.62677 6.6665 8.88677 6.6665Z" fill="#1D2742"/>
<path d="M13.3334 11.3335L11.5534 11.3335C11.1867 11.3335 10.8867 11.6335 10.8867 12.0002L10.8867 14.0002C10.8867 14.3668 11.1867 14.6668 11.5534 14.6668L14.0001 14.6668C14.3667 14.6668 14.6667 14.3668 14.6667 14.0002L14.6667 12.6668C14.6667 11.9335 14.0667 11.3335 13.3334 11.3335Z" fill="#1D2742"/>
<path d="M10.0063 3.23348C10.213 3.02682 10.293 2.78015 10.2263 2.56682C10.1596 2.35348 9.95297 2.20015 9.65963 2.15348L9.01963 2.04682C8.99297 2.04682 8.93297 2.00015 8.91963 1.97348L8.5663 1.26682C8.29963 0.726817 7.69297 0.726817 7.4263 1.26682L7.07297 1.97348C7.0663 2.00015 7.0063 2.04682 6.97963 2.04682L6.33963 2.15348C6.0463 2.20015 5.8463 2.35348 5.77297 2.56682C5.7063 2.78015 5.7863 3.02682 5.99297 3.23348L6.4863 3.73348C6.51297 3.75348 6.53297 3.83348 6.5263 3.86015L6.3863 4.47348C6.27963 4.93348 6.45297 5.14015 6.5663 5.22015C6.67963 5.30015 6.9263 5.40682 7.33297 5.16682L7.93297 4.81348C7.95963 4.79348 8.0463 4.79348 8.07297 4.81348L8.6663 5.16682C8.85297 5.28015 9.0063 5.31348 9.1263 5.31348C9.2663 5.31348 9.3663 5.26015 9.4263 5.22015C9.53963 5.14015 9.71297 4.93348 9.6063 4.47348L9.4663 3.86015C9.45963 3.82682 9.47963 3.75348 9.5063 3.73348L10.0063 3.23348Z" fill="#1D2742"/>
</svg>
