<svg width="16" height="16" viewBox="0 0 16 16" fill="none" xmlns="http://www.w3.org/2000/svg">
<path d="M3.64681 5.99998C4.93547 5.99998 5.98014 4.95531 5.98014 3.66665C5.98014 2.37798 4.93547 1.33331 3.64681 1.33331C2.35815 1.33331 1.31348 2.37798 1.31348 3.66665C1.31348 4.95531 2.35815 5.99998 3.64681 5.99998Z" stroke="currentColor"/>
<path d="M11.3133 10H13.3133C14.0466 10 14.6466 10.6 14.6466 11.3333V13.3333C14.6466 14.0667 14.0466 14.6667 13.3133 14.6667H11.3133C10.58 14.6667 9.97998 14.0667 9.97998 13.3333V11.3333C9.97998 10.6 10.58 10 11.3133 10Z" stroke="currentColor"/>
<path d="M8.00013 3.33331H9.78679C11.0201 3.33331 11.5935 4.85998 10.6668 5.67331L5.34013 10.3333C4.41346 11.14 4.98679 12.6666 6.21346 12.6666H8.00013" stroke="currentColor" stroke-linecap="round" stroke-linejoin="round"/>
<path d="M3.65748 3.66665H3.66518" stroke="currentColor" stroke-width="1.33333" stroke-linecap="round" stroke-linejoin="round"/>
<path d="M12.324 12.3333H12.3317" stroke="currentColor" stroke-width="1.33333" stroke-linecap="round" stroke-linejoin="round"/>
</svg>
