<svg width="57" height="64" viewBox="0 0 57 64" fill="none" xmlns="http://www.w3.org/2000/svg">
<path d="M20.5495 59.0291C20.1635 59.0291 19.8506 58.7162 19.8506 58.3302V44.5341C19.8506 44.1482 20.1635 43.8352 20.5495 43.8352C20.9354 43.8352 21.2484 44.1482 21.2484 44.5341V58.3302C21.2484 58.7162 20.9354 59.0291 20.5495 59.0291Z" fill="#4285F4"/>
<path d="M20.5492 64C18.8634 64 17.4912 62.6284 17.4912 60.942C17.4912 59.2556 18.8634 57.884 20.5492 57.884C22.235 57.884 23.6072 59.2562 23.6072 60.942C23.6072 62.6278 22.2356 64 20.5492 64ZM20.5492 59.2818C19.6333 59.2818 18.889 60.0268 18.889 60.942C18.889 61.8572 19.634 62.6022 20.5492 62.6022C21.4644 62.6022 22.2094 61.8572 22.2094 60.942C22.2094 60.0268 21.4644 59.2818 20.5492 59.2818Z" fill="#4285F4"/>
<path d="M12.9675 53.9427C12.5815 53.9427 12.2686 53.6298 12.2686 53.2438V47.8146C12.2686 47.4287 12.5815 47.1157 12.9675 47.1157C13.3534 47.1157 13.6663 47.4287 13.6663 47.8146V53.2438C13.6663 53.6298 13.3534 53.9427 12.9675 53.9427Z" fill="#4285F4"/>
<path d="M12.9672 58.9138C11.2814 58.9138 9.90918 57.5423 9.90918 55.8558C9.90918 54.1694 11.2807 52.7979 12.9672 52.7979C14.6536 52.7979 16.0251 54.1694 16.0251 55.8558C16.0251 57.5423 14.6536 58.9138 12.9672 58.9138ZM12.9672 54.1956C12.0519 54.1956 11.307 54.9406 11.307 55.8558C11.307 56.7711 12.0519 57.516 12.9672 57.516C13.8824 57.516 14.6274 56.7711 14.6274 55.8558C14.6274 54.9406 13.8824 54.1956 12.9672 54.1956Z" fill="#4285F4"/>
<path d="M28.1296 55.0773C27.7436 55.0773 27.4307 54.7643 27.4307 54.3784V48.9491C27.4307 48.5632 27.7436 48.2502 28.1296 48.2502C28.5155 48.2502 28.8285 48.5632 28.8285 48.9491V54.3784C28.8285 54.7643 28.5155 55.0773 28.1296 55.0773Z" fill="#4285F4"/>
<path d="M28.1293 60.0483C26.4435 60.0483 25.0713 58.6768 25.0713 56.9904C25.0713 55.3039 26.4428 53.9324 28.1293 53.9324C29.8157 53.9324 31.1873 55.3039 31.1873 56.9904C31.1873 58.6768 29.8151 60.0483 28.1293 60.0483ZM28.1293 55.3302C27.2141 55.3302 26.4691 56.0751 26.4691 56.9904C26.4691 57.9056 27.2141 58.6505 28.1293 58.6505C29.0445 58.6505 29.7895 57.9056 29.7895 56.9904C29.7895 56.0751 29.0445 55.3302 28.1293 55.3302Z" fill="#4285F4"/>
<path d="M35.7096 59.0291C35.3237 59.0291 35.0107 58.7162 35.0107 58.3302V44.5341C35.0107 44.1482 35.3237 43.8352 35.7096 43.8352C36.0956 43.8352 36.4085 44.1482 36.4085 44.5341V58.3302C36.4085 58.7162 36.0956 59.0291 35.7096 59.0291Z" fill="#4285F4"/>
<path d="M35.7094 64C34.0236 64 32.6514 62.6284 32.6514 60.942C32.6514 59.2556 34.0229 57.884 35.7094 57.884C37.3958 57.884 38.7673 59.2562 38.7673 60.942C38.7673 62.6278 37.3958 64 35.7094 64ZM35.7094 59.2818C34.7941 59.2818 34.0491 60.0268 34.0491 60.942C34.0491 61.8572 34.7941 62.6022 35.7094 62.6022C36.6246 62.6022 37.3695 61.8572 37.3695 60.942C37.3695 60.0268 36.6246 59.2818 35.7094 59.2818Z" fill="#4285F4"/>
<path d="M43.2907 53.9427C42.9048 53.9427 42.5918 53.6298 42.5918 53.2438V47.8146C42.5918 47.4287 42.9048 47.1157 43.2907 47.1157C43.6766 47.1157 43.9896 47.4287 43.9896 47.8146V53.2438C43.9896 53.6298 43.6766 53.9427 43.2907 53.9427Z" fill="#4285F4"/>
<path d="M43.2904 58.9138C41.6046 58.9138 40.2324 57.5423 40.2324 55.8558C40.2324 54.1694 41.604 52.7979 43.2904 52.7979C44.9768 52.7979 46.3484 54.1694 46.3484 55.8558C46.3484 57.5423 44.9762 58.9138 43.2904 58.9138ZM43.2904 54.1956C42.3752 54.1956 41.6302 54.9406 41.6302 55.8558C41.6302 56.7711 42.3752 57.516 43.2904 57.516C44.2056 57.516 44.9506 56.7711 44.9506 55.8558C44.9506 54.9406 44.2056 54.1956 43.2904 54.1956Z" fill="#4285F4"/>
<path d="M3.12988 30.5L9.12988 35.5V31.5L11.6299 29L17.1299 30.5L22.6299 33L22.1299 37.5L28.1299 39L34.1299 37.5L33.6299 32.5L44.1299 29L47.1299 31.5V35.5L48.1299 35L52.1299 32.5L54.6299 28L55.6299 22L53.1299 16.5L48.1299 12.5L47.1299 10L45.1299 5.5L40.1299 2L33.6299 0.5L28.1299 2.5L21.1299 0.5L15.1299 2L10.6299 6L8.62988 12L4.12988 15L0.629883 22.5L3.12988 30.5Z" fill="#EDF3FE"/>
<path d="M31.6191 24.2305C31.0345 23.6459 29.6802 23.2074 28.2674 23.1587C26.9716 23.11 25.6173 23.412 24.7988 24.2305" stroke="#4285F4" stroke-width="1.5" stroke-linecap="round" stroke-linejoin="round"/>
<path d="M35.0283 20.8203C31.2577 17.0497 25.1584 17.0497 21.3877 20.8203" stroke="#4285F4" stroke-width="1.5" stroke-linecap="round" stroke-linejoin="round"/>
<path d="M38.498 17.2896C32.8094 11.6009 23.6076 11.6009 17.9189 17.2896" stroke="#4285F4" stroke-width="1.5" stroke-linecap="round" stroke-linejoin="round"/>
<path d="M47.8354 34.6027C52.0395 32.7584 54.8619 28.54 54.8619 23.8584C54.8619 19.0737 51.9953 14.8118 47.5587 13.0006C47.3206 12.9033 47.1549 12.6831 47.128 12.4278C46.463 6.139 41.1899 1.39715 34.8628 1.39715C32.6247 1.39715 30.4211 2.01604 28.4889 3.1879C28.2668 3.32295 27.9865 3.32295 27.7638 3.1879C25.838 2.01668 23.6363 1.39779 21.3963 1.39779C15.0633 1.39779 9.79091 6.13964 9.13106 12.4278C9.10418 12.6838 8.93841 12.9046 8.70033 13.0019C4.26376 14.8131 1.39715 19.0749 1.39715 23.8597C1.39715 28.7505 4.47441 33.136 8.98857 34.8364C9.42274 35 9.53266 36.5051 8.86631 36.2768C3.61331 34.4778 0 29.4653 0 23.859C0 18.6429 3.04454 13.9817 7.79087 11.8703C8.70737 5.07402 14.4848 0 21.3963 0C23.7528 0 26.0709 0.614411 28.1273 1.78115C30.1888 0.615052 32.5082 0 34.8628 0C41.7685 0 47.5459 5.07402 48.4682 11.8703C53.2151 13.9817 56.259 18.6423 56.259 23.859C56.259 29.3775 52.7543 34.3214 47.6299 36.1909C47.1299 35.5 47.1299 36 47.8354 34.6027Z" fill="#4285F4"/>
<path d="M12.0001 28.2629C12.379 28.2629 12.754 28.3244 13.1156 28.446L21.2111 31.1731C23.0307 31.7856 24.0176 33.7658 23.4115 35.5879C23.1824 36.2746 22.9686 36.8513 22.7651 37.3287C24.6282 37.8548 26.1092 38.0628 28.1105 38.1006L28.1681 38.1006C30.1572 38.0628 31.637 37.8548 33.5 37.3287C33.2965 36.8513 33.0821 36.2746 32.8536 35.5879C32.2475 33.7664 33.2338 31.7856 35.054 31.1731L43.1495 28.446C43.5111 28.3244 43.8868 28.2629 44.2657 28.2629C45.73 28.2629 47.0491 29.1871 47.5483 30.5625C48.8111 34.0538 48.2767 37.2359 46.0584 39.5662C42.3156 43.4984 36.8102 45.2642 28.2071 45.2917L28.0618 45.2917C19.4562 45.2642 13.9508 43.4984 10.2081 39.5662C7.98977 37.2359 7.45535 34.0538 8.7021 30.606C9.21667 29.1865 10.5357 28.2629 12.0001 28.2629ZM28.0977 39.4977C25.7002 39.4529 23.937 39.1649 21.5798 38.434C21.3808 38.3726 21.2201 38.2254 21.1408 38.0327C21.0614 37.8401 21.0723 37.6218 21.1702 37.4382C21.4428 36.9268 21.7424 36.1773 22.0861 35.1463C22.4502 34.0538 21.8576 32.8646 20.7657 32.4973L12.6702 29.7702C12.4526 29.6966 12.2273 29.6601 12.0001 29.6601C11.1214 29.6601 10.3303 30.2143 10.0314 31.0387C8.95875 34.0051 9.38628 36.6759 11.2199 38.603C14.6785 42.2363 19.8735 43.8684 28.0638 43.8946L28.2046 43.8946C36.3929 43.869 41.5879 42.237 45.0459 38.603C46.8795 36.6759 47.3077 34.0045 46.2504 31.0815C45.9355 30.2143 45.1444 29.6601 44.2657 29.6601C44.0385 29.6601 43.8132 29.6972 43.5956 29.7702L35.5001 32.4973C34.4082 32.8646 33.8162 34.0531 34.1797 35.1463C34.5228 36.1767 34.8223 36.9261 35.095 37.4375C35.1929 37.6212 35.2044 37.8394 35.125 38.0321C35.0457 38.2247 34.885 38.3719 34.686 38.434C32.3288 39.1649 30.5656 39.4529 28.1815 39.4977L28.0977 39.4977Z" fill="#4285F4"/>
</svg>
