<svg width="240" height="294" viewBox="0 0 240 294" fill="none" xmlns="http://www.w3.org/2000/svg">
<path d="M99.1962 0.943568C141.915 -5.45465 182.137 21.3656 188.947 60.7853C195.763 100.205 166.566 137.23 123.81 143.397C81.2325 149.538 41.2989 122.745 34.5135 83.4883C27.7341 44.2327 56.6613 7.31519 99.1962 0.943568ZM119.215 123.348C150.265 119.53 172.026 93.1403 167.726 64.5178C163.419 35.8953 134.7 15.9633 103.693 20.0839C72.9133 24.1734 51.5016 50.4289 55.7717 78.8386C60.0417 107.248 88.3922 127.138 119.215 123.348Z" fill="#275166"/>
<path d="M166.143 187.395C178.732 188.973 209.567 189.797 217.715 195.485C234.924 207.503 256.121 290.351 220.764 293.255C213.672 293.837 202.776 286.39 197.499 281.322L196.487 279.281C181.112 275.629 173.131 276.536 164.143 287.85C153.234 293.524 137.878 293.326 131.712 281.712C123.258 265.793 131.448 233.986 137.847 218.048C144.449 201.616 149.725 194.482 166.143 187.395ZM148.651 258.584L150.388 251.857C159.504 244.014 170.94 244.34 178.934 253.117C166.811 263.455 164.738 261.505 148.651 258.584ZM225.316 249.827C223.359 246.083 222.752 242.673 219.481 242.073C203.266 239.094 165.216 240.427 149.682 242.484C144.148 247.95 144.952 250.819 142.59 259.226C142.4 268.658 142.062 269.673 145.203 278.407L148.762 279.612C150.633 278.136 152.529 276.682 154.443 275.25C167.959 265.235 191.628 266.254 208.831 267.916C213.457 275.381 213.788 278.271 221.052 281.045L225.764 279.136C228.684 271.114 226.273 258.731 225.316 249.827ZM152.234 229.582C172.818 227.605 198.027 227.923 218.304 231.66C216.432 222.686 215.794 215.814 210.849 207.942L206.843 206.349L204.806 207.739C194.383 214.764 191.426 216.87 178.622 217.22L173.523 215.089L170.173 204.873C168.241 204.284 165.302 203.259 163.413 202.953C157.621 212.707 155.78 219.136 152.234 229.582Z" fill="#2B576B"/>
<path d="M142.59 259.227C144.952 250.819 144.148 247.951 149.682 242.484C165.216 240.427 203.266 239.095 219.481 242.073C222.751 242.674 223.359 246.084 225.316 249.827C216.917 254.345 212.512 257.278 202.604 258.103C196.26 254.059 196.984 252.328 195.745 244.63C187.591 244.735 187.419 245.651 180.83 249.939L178.934 253.117C170.94 244.341 159.504 244.014 150.388 251.858L148.651 258.584L142.59 259.227Z" fill="#F7F5F7" fill-opacity="0.0235294"/>
<path d="M148.651 258.584L150.388 251.857C159.504 244.014 170.94 244.34 178.934 253.117C166.811 263.455 164.738 261.504 148.651 258.584Z" fill="#5CB7C6"/>
<path d="M82.1155 157.426C109.668 156.005 144.258 155.149 165.983 173.59L164.842 178.998C136.798 188.78 88.9133 167.358 54.9001 184.433C-8.88073 216.449 24.0403 253.199 77.7535 269.859L95.8951 271.611C105.908 272.494 125.246 274.359 126.706 285.896C107.662 298.304 54.3602 288.021 36.6481 275.564C-37.1883 223.65 12.1934 171.025 82.1155 157.426Z" fill="#274A62"/>
</svg>
