<svg width="32" height="32" viewBox="0 0 32 32" fill="none" xmlns="http://www.w3.org/2000/svg">
<path d="M23.3431 21.5246C21.8099 21.5246 20.4286 22.1867 19.4698 23.2399L10.8466 17.8991C11.0768 17.3098 11.2045 16.6696 11.2045 16C11.2045 15.33 11.0768 14.6899 10.8466 14.1008L19.4698 8.75975C20.4286 9.81297 21.8099 10.4753 23.3431 10.4753C26.2313 10.4753 28.5809 8.12572 28.5809 5.23754C28.5809 2.34936 26.2313 0 23.3431 0C20.4549 0 18.1053 2.3496 18.1053 5.23778C18.1053 5.90746 18.2333 6.54759 18.4632 7.13695L9.84022 12.4778C8.88148 11.4245 7.50014 10.7622 5.96694 10.7622C3.07876 10.7622 0.729156 13.112 0.729156 16C0.729156 18.8881 3.07876 21.2377 5.96694 21.2377C7.50014 21.2377 8.88148 20.5756 9.84022 19.5222L18.4632 24.863C18.2333 25.4523 18.1053 26.0925 18.1053 26.7624C18.1053 29.6503 20.4549 31.9999 23.3431 31.9999C26.2313 31.9999 28.5809 29.6503 28.5809 26.7624C28.5809 23.8742 26.2313 21.5246 23.3431 21.5246ZM20.0152 5.23778C20.0152 3.40282 21.5082 1.90991 23.3431 1.90991C25.1781 1.90991 26.671 3.40282 26.671 5.23778C26.671 7.07274 25.1781 8.56566 23.3431 8.56566C21.5082 8.56566 20.0152 7.07274 20.0152 5.23778ZM5.96694 19.3278C4.13174 19.3278 2.63882 17.8349 2.63882 16C2.63882 14.165 4.13174 12.6721 5.96694 12.6721C7.8019 12.6721 9.29457 14.165 9.29457 16C9.29457 17.8349 7.8019 19.3278 5.96694 19.3278ZM20.0152 26.7622C20.0152 24.9272 21.5082 23.4343 23.3431 23.4343C25.1781 23.4343 26.671 24.9272 26.671 26.7622C26.671 28.5971 25.1781 30.09 23.3431 30.09C21.5082 30.09 20.0152 28.5971 20.0152 26.7622Z" fill="currentColor"/>
</svg>
