<svg width="24" height="25" viewBox="0 0 24 25" fill="none" xmlns="http://www.w3.org/2000/svg">
<path opacity="0.4" d="M10.4899 2.7325L5.49991 4.60251C4.34991 5.03251 3.40991 6.3925 3.40991 7.6225V15.0525C3.40991 16.2325 4.18992 17.7825 5.13992 18.4925L9.43991 21.7025C10.8499 22.7625 13.1699 22.7625 14.5799 21.7025L18.8799 18.4925C19.8299 17.7825 20.6099 16.2325 20.6099 15.0525V7.6225C20.6099 6.3925 19.6699 5.03251 18.5199 4.60251L13.5299 2.7325C12.6799 2.4225 11.3199 2.4225 10.4899 2.7325Z" fill="currentColor"/>
<path d="M11.8998 11.8013C11.9198 11.8013 11.9398 11.8013 11.9598 11.8013H11.9798H11.9998C13.1498 11.7613 14.0498 10.8312 14.0598 9.67125C14.0598 8.49125 13.0998 7.53125 11.9198 7.53125C10.7398 7.53125 9.77979 8.49125 9.77979 9.67125C9.79979 10.8212 10.6998 11.7613 11.8998 11.8013Z" fill="currentColor"/>
<path d="M14.1899 13.9125C12.9799 13.1125 11.0199 13.1125 9.7999 13.9125C9.2399 14.2925 8.90991 14.8325 8.90991 15.3925C8.90991 15.9625 9.2299 16.4825 9.7999 16.8625C10.4099 17.2625 11.1999 17.4725 11.9899 17.4725C12.7799 17.4725 13.5799 17.2725 14.1799 16.8625C14.7399 16.4825 15.0699 15.9425 15.0699 15.3825C15.0799 14.8125 14.7599 14.2925 14.1899 13.9125Z" fill="currentColor"/>
</svg>
