<svg width="24" height="25" viewBox="0 0 24 25" fill="none" xmlns="http://www.w3.org/2000/svg">
<path d="M19.9377 4.56009C17.9061 2.52843 15.0993 1.27186 11.9989 1.27186C8.89851 1.27186 6.09176 2.52843 4.06009 4.56009C2.02843 6.59176 0.77185 9.39852 0.77185 12.4989C0.77185 15.5993 2.02843 18.4061 4.06009 20.4377C6.09176 22.4694 8.89851 23.726 11.9989 23.726C15.0993 23.726 17.9061 22.4694 19.9377 20.4377C21.9694 18.4061 23.226 15.5993 23.226 12.4989C23.226 9.39852 21.9694 6.59176 19.9377 4.56009ZM12 0.5C15.313 0.5 18.313 1.84293 20.485 4.01494C22.656 6.18586 24 9.18586 24 12.5C24 15.8141 22.6571 18.8131 20.485 20.9851C18.313 23.1571 15.3141 24.5 12 24.5C8.68585 24.5 5.68693 23.1571 3.51493 20.9851C1.344 18.8141 0 15.8141 0 12.5C0 9.18586 1.34292 6.18694 3.51493 4.01494C5.68693 1.84293 8.68585 0.5 12 0.5Z" fill="currentColor"/>
<path d="M21.2147 13.6961C21.2417 13.4856 21.4338 13.3355 21.6443 13.3625C21.8549 13.3895 22.0049 13.5817 21.9779 13.7922C21.8495 14.795 21.5742 15.7493 21.1747 16.6335C20.7645 17.5424 20.2226 18.3801 19.5727 19.1229C19.4324 19.2826 19.1895 19.2988 19.0297 19.1596C19.0233 19.1542 19.0168 19.1477 19.0114 19.1423L17.0985 17.2304C16.9473 17.0793 16.9473 16.8353 17.0985 16.6842C17.2496 16.5331 17.4936 16.5331 17.6447 16.6842L19.2597 18.2992C19.7422 17.6968 20.1514 17.0307 20.4731 16.3172C20.8433 15.4978 21.0981 14.6169 21.2158 13.6961" fill="currentColor"/>
<path d="M19.2922 6.73987C19.1605 6.57362 19.1885 6.33181 19.3558 6.20011C19.5221 6.06841 19.7639 6.09647 19.8956 6.2638C20.5185 7.05077 21.0259 7.93274 21.3918 8.88381C21.7481 9.80896 21.9715 10.7978 22.0395 11.8288C22.0525 12.0414 21.8916 12.2238 21.679 12.2379C21.6703 12.2379 21.6628 12.2379 21.6552 12.2379H18.9499C18.7362 12.2379 18.5635 12.0652 18.5635 11.8514C18.5635 11.6377 18.7362 11.465 18.9499 11.465H21.2342C21.1457 10.6607 20.9546 9.88777 20.6739 9.15909C20.335 8.27928 19.8665 7.46423 19.2922 6.73771" fill="currentColor"/>
<path d="M5.00566 18.6142C5.14599 18.774 5.12979 19.0169 4.96894 19.1572C4.80917 19.2976 4.56521 19.2814 4.42595 19.1205C3.70915 18.3012 3.12295 17.3652 2.69978 16.344C2.28956 15.3541 2.03263 14.2853 1.95923 13.1669C1.94627 12.9543 2.10713 12.7718 2.3198 12.7578C2.32843 12.7578 2.33599 12.7578 2.34354 12.7578H5.04883C5.26257 12.7578 5.4353 12.9305 5.4353 13.1443C5.4353 13.358 5.26257 13.5308 5.04883 13.5308H2.76456C2.86172 14.4149 3.0841 15.2623 3.4112 16.0525C3.80198 16.9949 4.34283 17.8586 5.00457 18.6153" fill="currentColor"/>
<path d="M2.77645 11.3716C2.75162 11.5832 2.55947 11.7343 2.34789 11.7095C2.1363 11.6846 1.98516 11.4925 2.00999 11.2809C2.13198 10.2672 2.40617 9.2978 2.80883 8.39748C3.22121 7.47448 3.76853 6.62382 4.42704 5.87355C4.56738 5.71378 4.81027 5.69759 4.97004 5.83685C4.97652 5.84225 4.983 5.84871 4.9884 5.85411L6.90131 7.76596C7.05245 7.91709 7.05245 8.16106 6.90131 8.31219C6.75018 8.46333 6.50621 8.46333 6.35508 8.31219L4.7401 6.69723C4.25 7.3104 3.83546 7.98618 3.5116 8.71162C3.14133 9.53962 2.8898 10.4335 2.77645 11.3716Z" fill="currentColor"/>
<path d="M6.26115 5.19395C6.09382 5.32565 5.85093 5.2965 5.71922 5.12917C5.58752 4.96184 5.61667 4.71896 5.78399 4.58726C6.56881 3.96977 7.44862 3.46671 8.39752 3.10291C9.31619 2.75099 10.3007 2.5286 11.3295 2.46167C11.5422 2.44871 11.7246 2.60956 11.7387 2.82223C11.7387 2.83086 11.7387 2.83843 11.7387 2.84599V5.55127C11.7387 5.76501 11.5659 5.93773 11.3522 5.93773C11.1384 5.93773 10.9657 5.76501 10.9657 5.55127V3.26699C10.1669 3.35551 9.39716 3.54551 8.67064 3.82403C7.79515 4.15976 6.98443 4.62396 6.25899 5.19395" fill="currentColor"/>
<path d="M13.1454 3.27716C12.9338 3.25125 12.7826 3.0591 12.8086 2.84751C12.8345 2.63593 13.0266 2.48479 13.2382 2.5107C14.2465 2.63485 15.2116 2.90905 16.1076 3.31064C17.0273 3.72301 17.8737 4.26925 18.6229 4.92344C18.7826 5.06378 18.7988 5.30667 18.6585 5.46644C18.6531 5.47292 18.6466 5.4794 18.6412 5.4848L16.7283 7.39771C16.5772 7.54885 16.3332 7.54885 16.1821 7.39771C16.0309 7.24658 16.0309 7.0026 16.1821 6.85147L17.797 5.2365C17.1871 4.74856 16.5146 4.3351 15.7924 4.01233C14.9676 3.64313 14.0781 3.39052 13.1432 3.27502" fill="currentColor"/>
<path d="M12.5387 10.8079C12.4502 11.0011 12.2224 11.0864 12.0292 10.9979C11.836 10.9093 11.7507 10.6816 11.8392 10.4883L13.0904 7.76684C13.2037 7.52071 13.4067 7.34366 13.642 7.25621C13.8633 7.17417 14.1159 7.17202 14.3502 7.2681C14.3782 7.27782 14.4041 7.28969 14.429 7.3048C14.6546 7.42139 14.8176 7.61462 14.8996 7.83592C14.9817 8.05722 14.9838 8.30984 14.8878 8.54409C14.8802 8.56892 14.8694 8.5916 14.8565 8.61427L14.5466 9.28897L13.6247 11.3055C13.5362 11.4987 13.3084 11.584 13.1152 11.4955C12.922 11.407 12.8367 11.1792 12.9252 10.986L13.8471 8.96942L14.172 8.26342C14.1958 8.2116 14.1958 8.15331 14.1764 8.10149C14.158 8.05075 14.1213 8.00864 14.0706 7.98489C14.0188 7.96114 13.9605 7.96115 13.9086 7.98058C13.8579 7.99894 13.8158 8.03564 13.792 8.08638L12.5409 10.8079H12.5387Z" fill="currentColor"/>
<path d="M11.3813 14.3331C11.4698 14.1399 11.6976 14.0546 11.8908 14.1431C12.084 14.2316 12.1693 14.4594 12.0808 14.6527L11.8703 15.1104C11.757 15.3565 11.554 15.5336 11.3187 15.621C11.0844 15.7074 10.8167 15.7052 10.5716 15.5918C10.3255 15.4785 10.1485 15.2755 10.061 15.0402C9.97466 14.806 9.97682 14.5382 10.0902 14.2932L10.3762 13.6703C10.4648 13.4771 10.6925 13.3918 10.8858 13.4803C11.079 13.5688 11.1643 13.7966 11.0758 13.9898L10.7897 14.6127C10.766 14.6645 10.7659 14.7228 10.7854 14.7746C10.8037 14.8254 10.8415 14.8686 10.8923 14.8912C10.9441 14.915 11.0024 14.915 11.0542 14.8956C11.1049 14.8772 11.1481 14.8394 11.1708 14.7887L11.3813 14.331V14.3331Z" fill="currentColor"/>
<path d="M13.3019 13.2123C13.3915 13.019 13.6203 12.9348 13.8136 13.0234C14.0068 13.113 14.091 13.3418 14.0025 13.5351C13.9518 13.6441 13.8935 13.7467 13.8265 13.8438C13.7596 13.9421 13.6851 14.0338 13.6041 14.1191C13.5966 14.1266 13.589 14.1342 13.5804 14.1418C13.3429 14.3825 13.0536 14.566 12.7341 14.675C12.4145 14.7841 12.0669 14.8197 11.7117 14.7668C11.1202 14.6772 10.6193 14.3555 10.29 13.9075C9.96075 13.4606 9.80207 12.8884 9.89167 12.2979C9.98127 11.7064 10.303 11.2054 10.7499 10.8762C11.1968 10.5469 11.7679 10.3883 12.3595 10.4779C12.6855 10.5275 12.9834 10.6473 13.2425 10.8211C13.5102 11.0003 13.7326 11.2368 13.8967 11.5099C14.0057 11.6923 13.9464 11.9287 13.7639 12.0378C13.5815 12.1468 13.3451 12.0874 13.236 11.905C13.1302 11.729 12.9867 11.5757 12.815 11.4602C12.6499 11.3501 12.4577 11.2724 12.2461 11.2411C11.864 11.1828 11.4948 11.2853 11.2065 11.498C10.9194 11.7096 10.7132 12.0313 10.656 12.4134C10.5977 12.7956 10.7002 13.1648 10.9129 13.453C11.1245 13.7402 11.4462 13.9464 11.8283 14.0036C12.0583 14.0381 12.2839 14.0155 12.489 13.9453C12.6952 13.8751 12.8809 13.7585 13.032 13.6063C13.0374 13.5998 13.0428 13.5944 13.0482 13.588C13.1011 13.5329 13.1486 13.4735 13.1929 13.4098C13.235 13.3472 13.2727 13.2814 13.3051 13.2123" fill="currentColor"/>
<path fill-rule="evenodd" clip-rule="evenodd" d="M11.7356 12.3523C11.8824 12.2055 12.121 12.2055 12.2678 12.3523C12.4146 12.4991 12.4146 12.7377 12.2678 12.8845C12.121 13.0313 11.8824 13.0313 11.7356 12.8845C11.5888 12.7377 11.5888 12.4991 11.7356 12.3523Z" fill="currentColor"/>
</svg>
