<svg width="16" height="16" viewBox="0 0 16 16" fill="none" xmlns="http://www.w3.org/2000/svg">
<path d="M13.2201 5.80247L10.2001 2.78247C9.56673 2.14914 8.6934 1.80914 7.80007 1.85581L4.46673 2.01581C3.1334 2.07581 2.0734 3.13581 2.00673 4.46247L1.84673 7.79581C1.80673 8.68914 2.14006 9.56247 2.7734 10.1958L5.7934 13.2158C7.0334 14.4558 9.04673 14.4558 10.2934 13.2158L13.2201 10.2891C14.4667 9.05581 14.4667 7.04247 13.2201 5.80247ZM6.3334 8.25581C5.28006 8.25581 4.4134 7.39581 4.4134 6.33581C4.4134 5.27581 5.28006 4.41581 6.3334 4.41581C7.38673 4.41581 8.2534 5.27581 8.2534 6.33581C8.2534 7.39581 7.38673 8.25581 6.3334 8.25581ZM11.6867 9.02247L9.02006 11.6891C8.92006 11.7891 8.7934 11.8358 8.66673 11.8358C8.54007 11.8358 8.4134 11.7891 8.3134 11.6891C8.12007 11.4958 8.12007 11.1758 8.3134 10.9825L10.9801 8.31581C11.1734 8.12247 11.4934 8.12247 11.6867 8.31581C11.8801 8.50914 11.8801 8.82914 11.6867 9.02247Z" fill="currentColor"/>
</svg>
