<svg width="25" height="24" viewBox="0 0 25 24" fill="none" xmlns="http://www.w3.org/2000/svg">
<path opacity="0.3" d="M7.1821 13.1129L1.61411 10.6766C0.986613 10.4022 1.02907 9.49806 1.67967 9.28401L22.8526 2.30413C23.4065 2.12169 23.9463 2.61619 23.8129 3.18428L19.5819 21.1738C19.4555 21.7112 18.8097 21.9304 18.3826 21.5806L13.411 17.5127L7.1821 13.1129Z" fill="white"/>
<path d="M18.7194 6.18646L7.18286 13.1105L8.59444 19.6581C8.72105 20.2456 9.41345 20.5045 9.89441 20.1443L13.4118 17.5103L10.5177 15.1418L19.0839 6.65542C19.335 6.40658 19.0226 6.00446 18.7194 6.18646Z" fill="white"/>
<path d="M9.05908 20.2417C9.31842 20.3589 9.63624 20.3436 9.89359 20.1508L13.411 17.5168L11.9639 16.3326L10.5169 15.1484L9.05908 20.2417Z" fill="white"/>
<path d="M9.05908 20.2417C9.31842 20.3589 9.63624 20.3436 9.89359 20.1508L13.411 17.5168L11.9639 16.3326L10.5169 15.1484L9.05908 20.2417Z" fill="white" fill-opacity="0.6"/>
</svg>
