<svg width="16" height="16" viewBox="0 0 16 16" fill="none" xmlns="http://www.w3.org/2000/svg">
<g clip-path="url(#clip0_30_8777)">
<path d="M7.53132 0.503752C7.78452 0.23161 8.21548 0.231611 8.46868 0.503753L8.99634 1.07091C9.18421 1.27284 9.4803 1.33174 9.73115 1.21707L10.4357 0.895016C10.7738 0.740482 11.1719 0.905406 11.3017 1.25373L11.5721 1.97963C11.6684 2.23809 11.9195 2.40581 12.1951 2.39587L12.9692 2.36795C13.3407 2.35455 13.6455 2.65929 13.6321 3.03076L13.6041 3.80491C13.5942 4.08054 13.7619 4.33156 14.0204 4.42785L14.7463 4.69831C15.0946 4.82808 15.2595 5.22625 15.105 5.56431L14.7829 6.26885C14.6683 6.5197 14.7272 6.81579 14.9291 7.00366L15.4962 7.53132C15.7684 7.78452 15.7684 8.21548 15.4962 8.46868L14.9291 8.99634C14.7272 9.18421 14.6683 9.4803 14.7829 9.73115L15.105 10.4357C15.2595 10.7738 15.0946 11.1719 14.7463 11.3017L14.0204 11.5721C13.7619 11.6684 13.5942 11.9195 13.6041 12.1951L13.6321 12.9692C13.6455 13.3407 13.3407 13.6455 12.9692 13.6321L12.1951 13.6041C11.9195 13.5942 11.6684 13.7619 11.5721 14.0204L11.3017 14.7463C11.1719 15.0946 10.7738 15.2595 10.4357 15.105L9.73115 14.7829C9.4803 14.6683 9.18421 14.7272 8.99634 14.9291L8.46868 15.4962C8.21548 15.7684 7.78452 15.7684 7.53132 15.4962L7.00366 14.9291C6.81579 14.7272 6.5197 14.6683 6.26885 14.7829L5.56431 15.105C5.22625 15.2595 4.82809 15.0946 4.69831 14.7463L4.42785 14.0204C4.33156 13.7619 4.08054 13.5942 3.80491 13.6041L3.03076 13.6321C2.65929 13.6455 2.35455 13.3407 2.36795 12.9692L2.39587 12.1951C2.40581 11.9195 2.23809 11.6684 1.97963 11.5721L1.25373 11.3017C0.905407 11.1719 0.740482 10.7738 0.895016 10.4357L1.21707 9.73115C1.33174 9.4803 1.27284 9.18421 1.07091 8.99634L0.503753 8.46868C0.231611 8.21548 0.231611 7.78452 0.503753 7.53132L1.07091 7.00366C1.27284 6.81579 1.33174 6.5197 1.21707 6.26885L0.895016 5.56431C0.740483 5.22625 0.905407 4.82809 1.25373 4.69831L1.97963 4.42785C2.23809 4.33156 2.40581 4.08054 2.39587 3.80491L2.36795 3.03076C2.35455 2.65929 2.65929 2.35455 3.03076 2.36795L3.80491 2.39587C4.08054 2.40581 4.33156 2.23809 4.42785 1.97963L4.69831 1.25373C4.82808 0.905407 5.22625 0.740482 5.56431 0.895016L6.26885 1.21707C6.5197 1.33174 6.81579 1.27284 7.00366 1.07091L7.53132 0.503752Z" fill="#64A63B"/>
<path d="M4.95215 8.63672L6.65606 10.3406L11.1998 5.79688" stroke="white" stroke-width="1.21708" stroke-linecap="round" stroke-linejoin="round"/>
</g>
<defs>
<clipPath id="clip0_30_8777">
<rect width="16" height="16" fill="white"/>
</clipPath>
</defs>
</svg>
