<svg width="16" height="16" viewBox="0 0 16 16" fill="none" xmlns="http://www.w3.org/2000/svg">
<path d="M14.9998 14.1275C14.9998 13 13.1999 10.605 10.9924 10.43H10.9824C10.9599 10.4675 10.9349 10.5025 10.9124 10.535C10.8349 10.65 10.6774 10.6775 10.5649 10.5975C10.4524 10.52 10.4249 10.365 10.5024 10.25C11.0524 9.46 11.8549 7.555 11.9324 6.0325C12.0724 3.2875 10.9124 1.8475 9.9149 1.1225C8.7699 0.2925 7.2324 0.2925 6.0874 1.1225C5.0899 1.8475 3.9299 3.2875 4.0699 6.0325C4.2599 9.78 6.1949 10.6425 7.7474 11.3375C8.3549 11.61 8.8824 11.845 9.2274 12.2225C9.3199 12.3225 9.3124 12.4825 9.2124 12.575C9.1649 12.62 9.1024 12.64 9.0424 12.64C8.9749 12.64 8.9074 12.6125 8.8599 12.56C8.5824 12.26 8.1024 12.045 7.5424 11.795C6.5374 11.345 5.2949 10.7875 4.4674 9.4125C4.2149 9.735 3.8749 10.445 4.3599 11.645C4.6324 12.3225 5.5074 13.545 8.2874 14.1275C10.1949 14.5275 10.7424 15.145 10.8974 15.5C12.211 15.5 13.4998 15.5 14.9998 14.1275ZM8.0074 10.4225C8.0074 10.4225 7.9999 10.425 7.9949 10.425C7.9899 10.425 7.9849 10.425 7.9799 10.4225C4.9874 10.2525 4.8449 6.585 4.8424 6.5475C4.8424 6.5325 4.8449 6.515 4.8474 6.5C5.1549 4.6875 6.0799 3.6175 6.9074 3.0025C6.9349 2.97 6.9699 2.945 7.0099 2.9275C7.7524 2.405 8.3924 2.2475 8.4049 2.245C8.5399 2.2125 8.6749 2.2975 8.7074 2.43C8.7374 2.565 8.6549 2.7 8.5199 2.7325C8.4849 2.74 8.2074 2.81 7.8274 3.0025C8.8699 3.22 10.7099 3.965 11.1399 6.5C11.1449 6.515 11.1449 6.5325 11.1449 6.5475C11.1424 6.585 11.0024 10.2525 8.0074 10.4225Z" fill="currentColor"/>
<path d="M3.89738 11.8319C3.84738 11.7119 3.80738 11.5969 3.77238 11.4844C2.23036 11.8511 1.35714 12.6861 1.02881 14.167C3.5 15.9994 10 15.4994 10.2899 15.4994C10.0574 15.2594 9.50238 14.8919 8.18488 14.6169C5.17738 13.9869 4.20738 12.6019 3.89738 11.8319Z" fill="currentColor"/>
</svg>
