<svg width="24" height="24" viewBox="0 0 24 24" fill="none" xmlns="http://www.w3.org/2000/svg">
<path d="M2.20859 17.3042L7.88904 5.53429C8.84699 3.80997 10.1202 3.51172 10.7704 3.51172H20.4715C21.3955 3.51172 22.471 4.64292 21.78 6.45419L18.5624 13.2427C17.758 15.3217 16.3448 15.4087 14.6096 15.4087H10.2595C9.84502 15.4087 9.47679 15.6743 9.34702 16.0684L7.48683 19.7324C7.48683 19.7324 6.39368 22.295 3.18828 20.8873C0.992464 19.9233 2.20859 17.3042 2.20859 17.3042Z" fill="#74C044"/>
<path d="M19.6423 22.6456C19.9967 20.7848 20.484 20.2975 22.3448 19.943C22.5663 19.8987 22.6992 19.7215 22.6992 19.5C22.6992 19.2785 22.5663 19.1013 22.3448 19.057C20.484 18.7025 19.9967 18.2152 19.6423 16.3544C19.598 16.1329 19.4207 16 19.1992 16C18.9777 16 18.8005 16.1329 18.7562 16.3544C18.4018 18.2152 17.9144 18.7025 16.0536 19.057C15.8764 19.1013 15.6992 19.2785 15.6992 19.5C15.6992 19.7215 15.8321 19.8987 16.0536 19.943C17.9144 20.2975 18.4018 20.7848 18.7562 22.6456C18.8005 22.8671 18.9777 23 19.1992 23C19.4207 23 19.598 22.8228 19.6423 22.6456Z" fill="#74C044"/>
<path d="M5.40802 2.91014C4.33051 2.71423 4.08562 2.46934 3.8897 1.39182C3.84073 1.14693 3.64481 1 3.39992 1C3.15503 1 2.95912 1.14693 2.91014 1.39182C2.71423 2.46934 2.46934 2.71423 1.39182 2.91014C1.14693 2.95912 1 3.15503 1 3.39992C1 3.64481 1.14693 3.84073 1.39182 3.8897C2.46934 4.08562 2.71423 4.33051 2.91014 5.40802C2.95912 5.65291 3.15503 5.79985 3.39992 5.79985C3.64481 5.79985 3.84073 5.65291 3.8897 5.40802C4.08562 4.33051 4.33051 4.08562 5.40802 3.8897C5.65291 3.84073 5.79985 3.64481 5.79985 3.39992C5.79985 3.15503 5.65291 2.95912 5.40802 2.91014Z" fill="#74C044"/>
<path d="M22.6992 16C22.9992 16 23.1992 15.8987 23.3992 15.6962C23.5992 15.4937 23.6992 15.2911 23.6992 14.9873C23.6992 14.6835 23.5992 14.481 23.3992 14.2785C23.2992 14.1772 23.1992 14.0759 23.0992 14.0759C22.8992 13.9747 22.5992 13.9747 22.2992 14.0759C22.1992 14.0759 22.0992 14.1772 21.9992 14.2785C21.7992 14.481 21.6992 14.6835 21.6992 14.9873C21.6992 15.2911 21.7992 15.4937 21.9992 15.6962C22.1992 15.8987 22.3992 16 22.6992 16Z" fill="#74C044"/>
</svg>
