<svg width="67" height="16" viewBox="0 0 67 16" fill="none" xmlns="http://www.w3.org/2000/svg">
<g clip-path="url(#clip0_3002_85584)">
<path d="M64.7194 14.5203L63.0097 9.29054L62.9501 9.13405C62.9244 9.06514 62.8929 8.99624 62.8555 8.93317C62.3416 8.06076 61.8523 7.97668 61.0359 7.97668H59.2876C58.9326 7.97668 58.7013 7.60412 58.859 7.28646L62.1221 0.829229C62.3732 0.454338 62.1045 -0.0478516 61.6537 -0.0478516L58.7212 -0.0233252C58.4035 -0.0233252 58.108 0.134339 57.9305 0.398281L51.0202 14.2237C50.727 14.8041 50.88 15.7349 51.7723 15.944C51.8085 15.9521 51.8459 15.9557 51.8832 15.9557H53.9224C54.24 15.9557 54.5355 15.7968 54.713 15.5329L58.0485 8.82573C58.0485 8.82573 60.139 14.9875 60.1624 15.0272C60.6248 15.8143 61.2228 15.9521 61.5323 15.9521L64.0362 15.9545C64.487 15.9545 65.0534 15.4032 64.7159 14.5192L64.7194 14.5203Z" fill="white"/>
<path d="M66.4876 2.36963H62.6838C62.3498 2.36963 62.0391 2.54364 61.8651 2.82978L60.7591 5.07562L60.0981 6.43153C60.0981 6.43153 60.0946 6.43854 60.0934 6.44204L58.7656 9.16321H60.7043L61.412 7.60175C61.5837 7.22452 61.7553 7.10773 62.2155 7.10773H64.3399C64.6739 7.10773 64.9845 6.93255 65.1586 6.64759L66.8999 3.09839C67.0937 2.77839 66.8637 2.36963 66.4899 2.36963H66.4876Z" fill="white"/>
<path d="M52.5116 5.76698H49.6549C49.3373 5.76815 49.0418 5.92698 48.8643 6.18976L48.4146 7.08786L48.2348 6.72582C47.9615 6.14655 47.4827 5.76231 46.859 5.76582H43.7022C42.6313 5.76582 41.6012 6.05311 40.9997 7.11238L37.4902 14.1372C36.9577 15.2806 37.781 15.9533 38.351 15.9533H42.3556C42.5577 15.9533 42.7422 15.8388 42.8321 15.6578L43.9428 13.433C44.1192 13.0791 43.8622 12.6622 43.4663 12.6622H42.1711C41.7962 12.6622 41.5662 12.2522 41.76 11.9322L42.9629 9.51706C43.137 9.23093 43.4476 9.05574 43.7816 9.05574H46.6208C46.9956 9.05574 47.2257 9.46567 47.0319 9.78567L44.3539 15.1825C44.1775 15.5363 44.4356 15.9533 44.8316 15.9533C44.8421 15.9533 44.8491 15.9556 44.8608 15.9556H47.7851C48.1028 15.9556 48.3983 15.7979 48.5758 15.534L52.9787 6.64173C53.1948 6.2283 52.9612 5.76465 52.5104 5.76465L52.5116 5.76698Z" fill="white"/>
<path d="M25.21 5.76698H22.3533C22.0357 5.76815 21.7402 5.92698 21.5627 6.18976L21.1131 7.08786L20.9332 6.72582C20.6599 6.14655 20.1811 5.76231 19.5574 5.76582H16.4006C15.3297 5.76582 14.2996 6.05311 13.6982 7.11238L10.1887 14.1372C9.65612 15.2806 10.4795 15.9533 11.0494 15.9533H15.0541C15.2561 15.9533 15.4406 15.8388 15.5306 15.6578L16.6412 13.433C16.8176 13.0791 16.5606 12.6622 16.1647 12.6622H14.8695C14.4947 12.6622 14.2646 12.2522 14.4585 11.9322L15.6614 9.51706C15.8354 9.23093 16.146 9.05574 16.4801 9.05574H19.3192C19.6941 9.05574 19.9241 9.46567 19.7303 9.78567L17.0523 15.1825C16.876 15.5363 17.1341 15.9533 17.53 15.9533C17.5405 15.9533 17.5475 15.9556 17.5592 15.9556H20.4836C20.8012 15.9556 21.0967 15.7979 21.2742 15.534L25.6771 6.64173C25.8932 6.2283 25.6596 5.76465 25.2088 5.76465L25.21 5.76698Z" fill="white"/>
<path d="M41.8581 -0.0490553H39.0015C38.6838 -0.0478875 38.3883 0.110944 38.2108 0.373718L34.838 7.08671L34.6581 6.72467C34.3848 6.1454 33.906 5.76116 33.2823 5.76467H30.1256C29.0546 5.76467 28.0245 6.05197 27.4231 7.11124L23.9136 14.1361C23.381 15.2794 24.2044 15.9521 24.7743 15.9521H28.779C28.981 15.9521 29.1656 15.8377 29.2555 15.6566L30.3661 13.4318C30.5425 13.078 30.2856 12.661 29.8896 12.661H28.5945C28.2196 12.661 27.9895 12.2511 28.1834 11.9311L29.3863 9.51591C29.5603 9.22978 29.871 9.05459 30.205 9.05459H33.0441C33.419 9.05459 33.6491 9.46452 33.4552 9.78452L30.7772 15.1813C30.6009 15.5352 30.859 15.9521 31.2549 15.9521C31.2654 15.9521 31.2724 15.9544 31.2841 15.9544H34.2085C34.5261 15.9544 34.8216 15.7968 34.9991 15.5328L42.3264 0.825689C42.5425 0.412258 42.3089 -0.0513916 41.8581 -0.0513916V-0.0490553Z" fill="white"/>
<path d="M6.84151 9.19118L6.83567 8.46243L6.72356 8.85133L5.60356 6.55994C5.56268 6.47586 5.47743 6.4233 5.384 6.4233H3.25378C2.58458 6.40345 2.29261 6.0344 2.15597 5.71673L0.287354 1.75177L1.04297 1.16549L0.961223 0.155273L5.51597 0.157609L8.17407 5.34301L8.92969 3.87498L11.0412 7.27118C11.0412 7.27118 10.6979 8.64345 10.629 8.73571C10.5601 8.82797 9.74837 10.2119 9.71334 10.2458C9.6783 10.2797 8.50108 10.5436 8.42049 10.5436C8.33991 10.5436 6.84151 9.19352 6.84151 9.19352V9.19118Z" fill="white"/>
<path d="M9.65141 6.67677L6.88119 0.937789C6.41404 0.0969128 5.79272 -0.0490723 5.47623 -0.0490723H0.745132C0.294329 -0.0490723 -0.23005 0.502169 0.107468 1.38626L1.6771 4.69721C2.06951 5.71093 2.75856 5.75297 3.60528 5.75297H5.72615C5.9282 5.75297 6.10805 5.88261 6.17112 6.07414L7.07856 7.861C7.07856 7.861 7.61229 9.11064 9.17491 8.42392C10.2459 7.95326 9.65258 6.67677 9.65258 6.67677H9.65141Z" fill="url(#paint0_linear_3002_85584)"/>
<path d="M14.3382 -0.0490723H11.464C11.1464 -0.0490723 10.8509 0.108592 10.6734 0.372534L8.92971 3.87618L10.1957 6.43385C10.1957 6.43385 10.9758 8.13428 9.47628 8.91443C8.99394 9.16436 8.40183 9.23326 8.11803 9.20056C7.98839 9.18538 7.55628 9.12699 7.12299 8.76961C6.87424 8.56407 6.73175 8.25691 6.73175 8.25691L3.78402 14.2225C3.48504 14.8146 3.64971 15.7722 4.59102 15.9544H6.69905C7.01672 15.9544 7.31219 15.7968 7.48971 15.5328L14.8065 0.828007C15.0576 0.453117 14.789 -0.0490723 14.3382 -0.0490723Z" fill="white"/>
</g>
<defs>
<linearGradient id="paint0_linear_3002_85584" x1="0.98922" y1="-0.534912" x2="9.46922" y2="8.2464" gradientUnits="userSpaceOnUse">
<stop offset="0.17" stop-color="#73BF44"/>
<stop offset="0.63" stop-color="#74C044"/>
</linearGradient>
<clipPath id="clip0_3002_85584">
<rect width="67" height="16" fill="white"/>
</clipPath>
</defs>
</svg>
