<svg width="24" height="24" viewBox="0 0 24 24" fill="none" xmlns="http://www.w3.org/2000/svg">
<path d="M11.4038 15.0441L16.6908 15.0441C17.4395 15.0441 18.1196 14.6077 18.4316 13.927L22.2281 5.64367C22.6758 4.66692 21.9621 3.55469 20.8876 3.55469L20.3132 3.55469L11.0994 3.55469C10.0002 3.55469 8.99738 4.18203 8.51651 5.17048L2.02464 18.5149C1.40588 19.7868 2.33217 21.2675 3.74658 21.2675L5.76519 21.2675C6.46965 21.2675 7.11722 20.8807 7.4512 20.2604L9.71776 16.0511C10.0517 15.4308 10.6993 15.0441 11.4038 15.0441Z" stroke="#1D2742" stroke-width="1.43617"/>
<path d="M19.1992 17.6309C19.36 18.0833 19.5749 18.4773 19.8984 18.8008C20.2217 19.1241 20.6153 19.3392 21.0674 19.5C20.6153 19.6608 20.2217 19.8759 19.8984 20.1992C19.5751 20.5225 19.36 20.9161 19.1992 21.3682C19.0384 20.9161 18.8233 20.5225 18.5 20.1992C18.1765 19.8757 17.7825 19.6608 17.3301 19.5C17.7825 19.3392 18.1765 19.1243 18.5 18.8008C18.8235 18.4773 19.0384 18.0833 19.1992 17.6309Z" fill="#1D2742" stroke="#1D2742" stroke-width="1.5"/>
<path d="M3.39941 2.42285C3.49234 2.63808 3.61502 2.83865 3.78809 3.01172C3.96083 3.18446 4.1612 3.30654 4.37598 3.39941C4.16106 3.4923 3.96093 3.61524 3.78809 3.78809C3.61524 3.96093 3.4923 4.16106 3.39941 4.37598C3.30654 4.1612 3.18446 3.96083 3.01172 3.78809C2.83865 3.61502 2.63808 3.49234 2.42285 3.39941C2.63795 3.3065 2.83875 3.18469 3.01172 3.01172C3.18469 2.83875 3.3065 2.63795 3.39941 2.42285Z" stroke="#1D2742" stroke-width="1.5"/>
<path d="M22.459 14.5498C22.6849 14.4735 22.8348 14.5032 22.873 14.5225L22.9795 14.5762H22.9893C23.0047 14.5911 23.0215 14.6081 23.043 14.6299C23.1135 14.7013 23.1473 14.7532 23.166 14.7959C23.1839 14.8366 23.1992 14.893 23.1992 14.9873C23.1992 15.0817 23.1839 15.138 23.166 15.1787C23.1473 15.2214 23.1135 15.2733 23.043 15.3447C22.9725 15.416 22.9223 15.4495 22.8818 15.4678C22.8436 15.485 22.7901 15.5 22.6992 15.5C22.6084 15.5 22.5548 15.485 22.5166 15.4678C22.4762 15.4495 22.4259 15.416 22.3555 15.3447C22.2849 15.2733 22.2512 15.2214 22.2324 15.1787C22.2145 15.138 22.1992 15.0817 22.1992 14.9873C22.1992 14.893 22.2145 14.8366 22.2324 14.7959C22.2512 14.7532 22.2849 14.7013 22.3555 14.6299C22.3814 14.6036 22.4009 14.5836 22.4189 14.5664C22.4209 14.5646 22.4221 14.5622 22.4238 14.5605L22.459 14.5498Z" fill="#74C044" stroke="#1D2742"/>
</svg>
