<svg width="44" height="63" viewBox="0 0 44 63" fill="none" xmlns="http://www.w3.org/2000/svg">
<g filter="url(#filter0_f_1181_74665)">
<ellipse cx="22.5313" cy="56.8525" rx="10.3731" ry="2.70602" fill="black" fill-opacity="0.2"/>
</g>
<path d="M22.3177 0.931117C10.8463 0.931117 1.54684 10.2308 1.54684 21.7025C1.54684 30.7475 7.32762 38.4407 15.3941 41.2918C16.191 41.5735 16.8484 42.2719 17.4262 43.2986C18.0013 44.3206 18.4465 45.5751 18.867 46.8414C18.9246 47.0149 18.9819 47.1892 19.0391 47.3633C19.3895 48.429 19.7373 49.4868 20.1365 50.3051C20.3701 50.7841 20.6436 51.2301 20.9827 51.5626C21.3323 51.9054 21.7762 52.1492 22.3177 52.1492C22.8592 52.1492 23.3031 51.9054 23.6527 51.5626C23.9918 51.2301 24.2653 50.7841 24.4989 50.3051C24.8981 49.4868 25.2459 48.4289 25.5963 47.3632C25.6535 47.1891 25.7108 47.0149 25.7684 46.8414C26.1889 45.5751 26.6341 44.3206 27.2092 43.2986C27.7869 42.2719 28.4444 41.5735 29.2413 41.2918C37.3078 38.4407 43.0885 30.7475 43.0885 21.7025C43.0885 10.2308 33.7891 0.931117 22.3177 0.931117Z" fill="#1D2742" stroke="white" stroke-width="1.25886"/>
<circle cx="22.0807" cy="21.6734" r="6.32578" fill="#FFF5E9"/>
<defs>
<filter id="filter0_f_1181_74665" x="9.45218" y="51.4405" width="26.1581" height="10.8242" filterUnits="userSpaceOnUse" color-interpolation-filters="sRGB">
<feFlood flood-opacity="0" result="BackgroundImageFix"/>
<feBlend mode="normal" in="SourceGraphic" in2="BackgroundImageFix" result="shape"/>
<feGaussianBlur stdDeviation="1.35301" result="effect1_foregroundBlur_1181_74665"/>
</filter>
</defs>
</svg>
