<svg width="34" height="44" viewBox="0 0 34 44" fill="none" xmlns="http://www.w3.org/2000/svg">
<ellipse cx="17.002" cy="42" rx="7" ry="2" fill="black" fill-opacity="0.2"/>
<path d="M22.4999 32.5609C28.9078 30.2961 33.4999 24.1849 33.4999 17C33.4999 7.88729 26.1126 0.5 17 0.5C7.88729 0.5 0.5 7.88729 0.5 17C0.5 24.1849 5.09215 30.2961 11.5 32.5609C12.133 32.7847 12.6553 33.3395 13.1142 34.155C13.5711 34.9669 13.9248 35.9634 14.2588 36.9692C14.3045 37.107 14.3501 37.2455 14.3955 37.3838C14.6739 38.2303 14.9502 39.0706 15.2673 39.7207C15.4529 40.1012 15.6701 40.4555 15.9395 40.7196C16.2172 40.9919 16.5698 41.1855 17 41.1855C17.4301 41.1855 17.7828 40.9919 18.0605 40.7196C18.3298 40.4555 18.5471 40.1012 18.7327 39.7207C19.0498 39.0706 19.3261 38.2303 19.6044 37.3838C19.6499 37.2455 19.6954 37.107 19.7411 36.9692C20.0751 35.9634 20.4288 34.9669 20.8857 34.155C21.3446 33.3395 21.8669 32.7847 22.4999 32.5609Z" fill="#1D2742" stroke="white"/>
<ellipse cx="17" cy="17" rx="14" ry="14" fill="#1D2742"/>
</svg>
